<svg width="238" height="186" viewBox="0 0 238 186" fill="none" xmlns="http://www.w3.org/2000/svg">
<path d="M16.6471 31.6053H5C3.89543 31.6053 3 32.5008 3 33.6053V175.393C3 176.498 3.89543 177.393 5 177.393H107.501C108.402 177.393 109.159 178.008 109.483 178.849C110.338 181.061 112.264 183.266 119.175 182.974C126.851 182.65 128.096 184.079 129.589 179.534C129.868 178.686 130.638 178.081 131.531 178.075L233.013 177.407C234.113 177.399 235 176.506 235 175.407V114.614M235 98.919V33.2566C235 32.152 234.105 31.2566 233 31.2566H221.003M221.003 31.2566V24.0829C221.003 23.1725 220.398 22.3806 219.519 22.1426C208.53 19.1654 185.496 11.7954 170.264 3.00576M221.003 31.2566L219.29 167.887C219.272 169.282 217.868 170.23 216.567 169.727C188.776 158.98 177.097 154.616 160.816 151.235C147.379 148.445 126.99 159.838 118.475 165.884M154.167 3.00576C147.985 3.35453 132.192 6.77253 118.475 17.6543M118.475 17.6543C114.393 12.6552 100.419 2.72674 77.184 3.00576C48.553 3.34958 54.6071 14.5392 18.2464 22.876C17.3308 23.0859 16.6471 23.904 16.6471 24.8434V167.415C16.6471 168.632 17.72 169.567 18.9193 169.362C26.2948 168.1 39.6952 164.964 48.4902 159.955C60.7376 152.979 86.632 141.121 118.475 165.884M118.475 17.6543V165.884M35.8929 62.9894C46.2385 57.7804 66.4537 48.2749 71.3373 48.3922C71.9812 48.4077 72.6692 48.6501 73.3111 48.5963C89.8219 47.2133 100.935 51.9987 104.478 54.6188M35.8929 97.5181C46.9739 92.6353 64.5867 84.2647 73.6848 83.5671C77.5855 83.2681 83.1327 79.7306 104.478 89.4963M133.872 72.4063C137.721 70.3137 148.289 65.9888 159.766 65.4308C174.113 64.7333 200.008 80.7769 202.107 80.7769M133.872 106.586C137.604 104.377 148.569 100.239 162.566 101.355C176.563 102.471 194.759 111.12 202.107 115.306" stroke="#184296" stroke-width="6"/>
</svg>
