<svg width="501" height="519" viewBox="0 0 501 519" fill="none" xmlns="http://www.w3.org/2000/svg">
<path opacity="0.52" d="M14.1923 11.4142H299.489C307.328 11.4142 313.682 17.774 313.682 25.6191V221.71C313.682 229.555 307.328 235.915 299.489 235.915H14.1923C6.35416 235.915 6.10352e-05 229.555 6.10352e-05 221.71V25.6191C6.10352e-05 17.774 6.35416 11.4142 14.1923 11.4142Z" fill="url(#paint0_linear_136_562)"/>
<path d="M43.4029 63.8216H270.279C274.501 63.8216 277.924 67.2471 277.924 71.4728C277.924 75.6984 274.501 79.1239 270.279 79.1239H43.4029C39.181 79.1239 35.7585 75.6984 35.7585 71.4728C35.7585 67.2471 39.181 63.8216 43.4029 63.8216Z" fill="white"/>
<path d="M248.634 96.0214H274.434C275.886 96.0214 277.062 97.199 277.062 98.6517V118.077C277.062 119.53 275.886 120.708 274.434 120.708H248.634C247.182 120.708 246.006 119.53 246.006 118.077V98.6517C246.006 97.199 247.182 96.0214 248.634 96.0214Z" fill="white"/>
<path d="M42.0924 110.542H230.725C232.745 110.542 234.383 112.181 234.383 114.203V114.207C234.383 116.229 232.745 117.869 230.725 117.869H42.0924C40.0722 117.869 38.4345 116.229 38.4345 114.207V114.203C38.4345 112.181 40.0722 110.542 42.0924 110.542Z" fill="white"/>
<path d="M70.0242 99.2249H230.689C232.729 99.2249 234.383 100.88 234.383 102.922C234.383 104.963 232.729 106.618 230.689 106.618H70.0242C67.9843 106.618 66.3307 104.963 66.3307 102.922C66.3307 100.88 67.9843 99.2249 70.0242 99.2249Z" fill="white"/>
<path d="M42.0924 152.25H230.725C232.745 152.25 234.383 153.889 234.383 155.911V155.916C234.383 157.938 232.745 159.577 230.725 159.577H42.0924C40.0722 159.577 38.4345 157.938 38.4345 155.916V155.911C38.4345 153.889 40.0722 152.25 42.0924 152.25Z" fill="white"/>
<path d="M70.0242 140.933H230.689C232.729 140.933 234.383 142.588 234.383 144.63C234.383 146.671 232.729 148.327 230.689 148.327H70.0242C67.9843 148.327 66.3307 146.671 66.3307 144.63C66.3307 142.588 67.9843 140.933 70.0242 140.933Z" fill="white"/>
<path d="M42.0924 192.683H230.725C232.745 192.683 234.383 194.322 234.383 196.344V196.349C234.383 198.371 232.745 200.01 230.725 200.01H42.0924C40.0722 200.01 38.4345 198.371 38.4345 196.349V196.344C38.4345 194.322 40.0722 192.683 42.0924 192.683Z" fill="white"/>
<path d="M70.0242 181.366H230.689C232.729 181.366 234.383 183.021 234.383 185.063C234.383 187.104 232.729 188.76 230.689 188.76H70.0242C67.9843 188.76 66.3307 187.104 66.3307 185.063C66.3307 183.021 67.9843 181.366 70.0242 181.366Z" fill="white"/>
<path d="M248.634 137.601H274.434C275.886 137.601 277.062 138.778 277.062 140.231V159.657C277.062 161.109 275.886 162.287 274.434 162.287H248.634C247.182 162.287 246.006 161.109 246.006 159.657V140.231C246.006 138.778 247.182 137.601 248.634 137.601Z" fill="white"/>
<path opacity="0.5" d="M248.634 179.184H274.434C275.886 179.184 277.062 180.362 277.062 181.815V201.24C277.062 202.693 275.886 203.871 274.434 203.871H248.634C247.182 203.871 246.006 202.693 246.006 201.24V181.815C246.006 180.362 247.182 179.184 248.634 179.184Z" fill="white"/>
<path d="M301.412 27.5297C300.003 27.5297 298.86 26.3858 298.86 24.9748C298.86 23.5638 300.003 22.42 301.412 22.42C302.822 22.42 303.965 23.5638 303.965 24.9748C303.965 26.3858 302.822 27.5297 301.412 27.5297Z" fill="#FF4A51"/>
<path d="M292.164 27.5297C290.754 27.5297 289.612 26.3858 289.612 24.9748C289.612 23.5638 290.754 22.42 292.164 22.42C293.574 22.42 294.717 23.5638 294.717 24.9748C294.717 26.3858 293.574 27.5297 292.164 27.5297Z" fill="#FEBC2E"/>
<path d="M282.918 27.5297C281.508 27.5297 280.366 26.3858 280.366 24.9748C280.366 23.5638 281.508 22.42 282.918 22.42C284.328 22.42 285.471 23.5638 285.471 24.9748C285.471 26.3858 284.328 27.5297 282.918 27.5297Z" fill="#26C940"/>
<path opacity="0.24" d="M0.186127 35.674H313.57V36.8026H0.186127V35.674Z" fill="#C7DBFF"/>
<path d="M310.224 442.728L314.232 468.196L301.323 474.719L287.162 450.006" fill="#FFB999"/>
<path d="M289.209 453.645L294.407 462.651L311.854 453.067L310.642 445.283L289.209 453.645Z" fill="#FC8C60"/>
<path d="M298.796 489.639C298.796 492.474 298.619 494.815 297.021 496.832L296.985 496.872C296.774 497.131 296.549 497.377 296.31 497.61L284.209 510.722C283.619 511.388 283.247 512.218 283.141 513.102C283.036 513.986 283.202 514.881 283.619 515.667C284.147 516.671 285.044 517.43 286.12 517.785C287.197 518.14 288.369 518.062 289.39 517.569L324.761 500.747C326.242 500.034 327.391 498.777 327.97 497.238C328.548 495.699 328.512 493.996 327.869 492.483L318.205 469.773C317.996 469.283 317.692 468.839 317.309 468.468C316.927 468.097 316.474 467.807 315.978 467.613C315.481 467.42 314.951 467.328 314.419 467.343C313.887 467.357 313.363 467.478 312.878 467.699L300.923 473.199C300.026 473.606 299.311 474.329 298.914 475.231C298.517 476.133 298.468 477.15 298.774 478.087L298.796 489.639Z" fill="#FE6F5D"/>
<path d="M215.646 209.309C214.696 210.887 212.369 210.709 210.935 211.86C207.65 214.495 203.762 215.903 195.447 215.516C195.997 217.702 197.928 219.244 199.886 220.355C203.134 222.166 206.733 223.256 210.439 223.551C214.145 223.845 217.871 223.337 221.363 222.061" fill="#78AD04"/>
<path d="M217.51 208.265C217.341 210.78 214.402 212.024 213.377 214.321C211.038 219.577 207.189 223.732 196.85 228.473C198.883 230.779 202.177 231.445 205.262 231.583C210.342 231.748 215.399 230.814 220.086 228.847C224.774 226.88 228.982 223.924 232.426 220.182" fill="#83CE00"/>
<path d="M265.032 285.639C264.082 287.212 261.756 287.038 260.318 288.189C257.037 290.82 253.144 292.233 244.834 291.846C245.38 294.028 247.311 295.574 249.273 296.68C252.52 298.492 256.119 299.583 259.825 299.878C263.531 300.173 267.257 299.666 270.75 298.391" fill="#78AD04"/>
<path d="M266.891 284.595C266.723 287.105 263.784 288.349 262.763 290.651C260.419 295.916 256.575 300.057 246.231 304.802C248.264 307.113 251.558 307.779 254.666 307.913C259.745 308.078 264.801 307.147 269.489 305.183C274.177 303.219 278.387 300.267 281.834 296.529" fill="#83CE00"/>
<path d="M232.746 215.463C234.549 215.108 235.174 212.859 236.741 211.909C240.333 209.714 242.983 206.532 245.451 198.579C247.316 199.841 248.115 202.182 248.483 204.4C249.08 208.073 248.878 211.831 247.893 215.419C246.908 219.008 245.162 222.341 242.774 225.194" fill="#78AD04"/>
<path d="M231.13 216.863C233.55 217.556 235.716 215.219 238.233 215.037C243.968 214.623 249.18 212.415 257.158 204.297C258.631 206.999 258.13 210.34 257.197 213.273C255.625 218.11 253.029 222.551 249.587 226.295C246.145 230.038 241.938 232.995 237.252 234.964" fill="#83CE00"/>
<path d="M254.915 237.657C256.722 237.297 257.348 235.049 258.911 234.102C262.497 231.912 265.148 228.73 267.62 220.773C269.48 222.03 270.284 224.372 270.652 226.593C271.247 230.266 271.046 234.025 270.061 237.613C269.075 241.201 267.33 244.534 264.943 247.387" fill="#78AD04"/>
<path d="M253.289 239.043C255.704 239.741 257.875 237.399 260.392 237.221C266.127 236.804 271.339 234.6 279.312 226.482C280.79 229.184 280.289 232.525 279.356 235.457C277.783 240.295 275.187 244.737 271.744 248.48C268.302 252.224 264.094 255.18 259.406 257.149" fill="#83CE00"/>
<path d="M283.135 275.651C284.941 275.295 285.567 273.047 287.13 272.096C290.717 269.901 293.367 266.72 295.84 258.766C297.7 260.028 298.503 262.37 298.867 264.587C299.464 268.26 299.264 272.019 298.278 275.607C297.293 279.195 295.547 282.529 293.158 285.381" fill="#78AD04"/>
<path d="M281.523 277.05C283.938 277.748 286.109 275.406 288.626 275.224C294.362 274.811 299.569 272.603 307.546 264.489C309.025 267.186 308.523 270.528 307.591 273.46C306.016 278.297 303.419 282.738 299.977 286.481C296.534 290.224 292.327 293.181 287.641 295.152" fill="#83CE00"/>
<path d="M256.35 219.493C250.263 235.817 235.387 245.179 221.537 250.511C213.187 235.826 204.53 218.311 202.728 201.352C202.084 195.34 200.721 185.587 206.67 184.561C209.671 184.05 215.247 187.471 217.817 189.097C231.655 197.899 244.565 208.083 256.35 219.493Z" fill="#ADE701"/>
<path d="M283.566 250.542C275.176 267.426 256.895 275.988 242.348 280.249C237.966 274.971 233.789 269.523 229.918 263.858C226.935 259.5 224.125 255.052 221.546 250.529C235.396 245.197 250.272 235.835 256.358 219.511C266.279 229.074 275.381 239.454 283.566 250.542Z" fill="#83CE00"/>
<path d="M316.527 313.866L274.159 313.991C263.123 303.176 252.198 292.135 242.348 280.258C256.895 275.997 275.176 267.448 283.566 250.551C297.887 269.95 309.256 291.393 316.527 313.866Z" fill="#ADE701"/>
<path d="M300.47 314.52C300.567 314.518 300.66 314.485 300.736 314.426C300.783 314.391 300.822 314.347 300.852 314.297C300.882 314.247 300.901 314.191 300.91 314.134C300.918 314.076 300.915 314.017 300.9 313.96C300.886 313.904 300.86 313.851 300.825 313.804L210.118 194.016C210.083 193.969 210.039 193.929 209.989 193.899C209.938 193.868 209.882 193.849 209.824 193.84C209.766 193.832 209.706 193.835 209.649 193.85C209.592 193.865 209.539 193.891 209.492 193.927C209.445 193.962 209.406 194.007 209.376 194.057C209.346 194.108 209.327 194.164 209.319 194.223C209.311 194.281 209.315 194.34 209.33 194.397C209.346 194.454 209.372 194.507 209.408 194.553L300.111 314.342C300.152 314.398 300.207 314.443 300.269 314.474C300.332 314.504 300.4 314.52 300.47 314.52Z" fill="#78AD04"/>
<path d="M221.518 235.524C227.342 235.455 233.119 234.473 238.64 232.614C238.75 232.573 238.84 232.489 238.889 232.382C238.938 232.274 238.943 232.151 238.902 232.041C238.86 231.93 238.777 231.84 238.67 231.791C238.562 231.742 238.44 231.737 238.329 231.779C238.236 231.814 228.718 235.266 218.614 234.524C218.556 234.52 218.497 234.527 218.442 234.545C218.386 234.564 218.335 234.593 218.291 234.631C218.246 234.669 218.21 234.716 218.184 234.768C218.157 234.82 218.141 234.877 218.137 234.935C218.133 234.994 218.14 235.052 218.158 235.108C218.176 235.164 218.205 235.215 218.244 235.259C218.282 235.304 218.328 235.34 218.38 235.366C218.433 235.393 218.489 235.409 218.548 235.413C219.545 235.487 220.535 235.524 221.518 235.524Z" fill="#78AD04"/>
<path d="M241.304 235.76C241.413 235.761 241.519 235.721 241.601 235.648C241.659 235.6 247.372 230.477 250.537 223.439C250.561 223.385 250.574 223.327 250.576 223.268C250.578 223.21 250.568 223.151 250.547 223.096C250.526 223.041 250.494 222.991 250.453 222.949C250.413 222.906 250.365 222.872 250.311 222.848C250.257 222.824 250.2 222.811 250.141 222.809C250.082 222.808 250.024 222.818 249.969 222.839C249.914 222.86 249.864 222.891 249.821 222.932C249.779 222.972 249.745 223.021 249.721 223.074C246.653 229.939 241.064 234.929 241.011 234.978C240.942 235.037 240.892 235.116 240.869 235.204C240.847 235.293 240.852 235.386 240.884 235.471C240.916 235.557 240.973 235.63 241.048 235.682C241.123 235.733 241.213 235.761 241.304 235.76Z" fill="#78AD04"/>
<path d="M254.861 253.306C254.976 253.305 255.085 253.261 255.168 253.181C255.221 253.132 260.779 247.823 263.696 240.687C263.74 240.577 263.739 240.453 263.693 240.344C263.647 240.234 263.559 240.148 263.449 240.103C263.339 240.058 263.216 240.059 263.106 240.105C262.997 240.151 262.91 240.239 262.865 240.349C260.029 247.307 254.608 252.484 254.555 252.533C254.514 252.574 254.48 252.623 254.458 252.677C254.435 252.731 254.424 252.789 254.424 252.848C254.424 252.907 254.435 252.965 254.458 253.019C254.48 253.073 254.514 253.122 254.555 253.164C254.635 253.25 254.745 253.301 254.861 253.306Z" fill="#78AD04"/>
<path d="M276.254 281.622C276.323 281.623 276.39 281.607 276.452 281.577C276.514 281.547 276.567 281.503 276.609 281.449C276.658 281.387 281.341 275.295 283.13 267.795C283.144 267.737 283.146 267.676 283.137 267.617C283.127 267.558 283.106 267.501 283.074 267.45C283.043 267.399 283.001 267.355 282.953 267.32C282.904 267.285 282.849 267.26 282.791 267.246C282.733 267.233 282.672 267.23 282.613 267.24C282.554 267.25 282.497 267.271 282.446 267.303C282.396 267.334 282.351 267.375 282.316 267.424C282.281 267.473 282.256 267.528 282.243 267.586C280.494 274.9 275.93 280.84 275.881 280.916C275.829 280.981 275.797 281.06 275.788 281.144C275.779 281.227 275.794 281.311 275.83 281.386C275.867 281.461 275.924 281.524 275.995 281.569C276.066 281.613 276.148 281.636 276.232 281.635L276.254 281.622Z" fill="#78AD04"/>
<path d="M261.83 289.993C267.654 289.922 273.431 288.941 278.953 287.087C279.064 287.047 279.154 286.963 279.204 286.856C279.254 286.748 279.26 286.625 279.219 286.514C279.178 286.403 279.095 286.312 278.988 286.262C278.88 286.212 278.758 286.207 278.646 286.248C278.549 286.283 269.031 289.735 258.927 288.998C258.869 288.993 258.81 289.001 258.755 289.019C258.699 289.037 258.648 289.066 258.604 289.104C258.559 289.143 258.523 289.189 258.497 289.241C258.47 289.294 258.454 289.35 258.45 289.409C258.446 289.467 258.453 289.526 258.471 289.581C258.489 289.637 258.518 289.688 258.556 289.733C258.595 289.777 258.641 289.814 258.693 289.84C258.745 289.866 258.802 289.882 258.861 289.886C259.859 289.962 260.836 289.993 261.83 289.993Z" fill="#78AD04"/>
<path d="M250.499 265.933H250.552C254.387 265.478 258.165 264.625 261.823 263.387C261.934 263.346 262.025 263.262 262.074 263.154C262.124 263.046 262.129 262.923 262.087 262.812C262.046 262.701 261.962 262.61 261.855 262.561C261.747 262.511 261.624 262.506 261.513 262.548C257.92 263.762 254.211 264.599 250.445 265.045C250.328 265.052 250.218 265.105 250.139 265.194C250.061 265.282 250.021 265.398 250.028 265.516C250.035 265.633 250.089 265.744 250.177 265.822C250.265 265.9 250.381 265.94 250.499 265.933Z" fill="#78AD04"/>
<path d="M213.461 217.009H213.514C217.348 216.555 221.124 215.702 224.781 214.463C224.836 214.443 224.886 214.412 224.93 214.373C224.973 214.333 225.008 214.285 225.033 214.232C225.083 214.125 225.088 214.002 225.047 213.89C225.007 213.779 224.923 213.688 224.816 213.638C224.709 213.588 224.586 213.583 224.474 213.624C220.882 214.838 217.173 215.675 213.407 216.121C213.29 216.128 213.18 216.181 213.101 216.27C213.023 216.358 212.983 216.474 212.99 216.592C212.997 216.71 213.051 216.82 213.139 216.898C213.227 216.976 213.343 217.016 213.461 217.009Z" fill="#78AD04"/>
<path d="M237.65 249.036H237.703C241.537 248.581 245.313 247.727 248.97 246.49C249.081 246.449 249.171 246.365 249.221 246.257C249.27 246.149 249.275 246.026 249.234 245.915C249.193 245.803 249.109 245.713 249.001 245.663C248.893 245.614 248.77 245.609 248.659 245.65C245.069 246.868 241.361 247.706 237.596 248.152C237.479 248.159 237.369 248.212 237.29 248.301C237.212 248.389 237.172 248.505 237.179 248.623C237.186 248.74 237.24 248.851 237.328 248.929C237.416 249.007 237.532 249.047 237.65 249.04V249.036Z" fill="#78AD04"/>
<path d="M231.475 222.772C231.536 222.773 231.596 222.761 231.652 222.737C231.707 222.713 231.758 222.678 231.8 222.634C233.347 220.935 234.777 219.131 236.079 217.236C236.113 217.188 236.137 217.134 236.15 217.076C236.162 217.019 236.164 216.96 236.153 216.902C236.143 216.844 236.121 216.789 236.089 216.739C236.058 216.69 236.016 216.647 235.968 216.614C235.92 216.58 235.866 216.556 235.808 216.543C235.751 216.531 235.692 216.529 235.634 216.54C235.576 216.55 235.521 216.572 235.472 216.603C235.422 216.635 235.38 216.677 235.347 216.725C234.07 218.582 232.668 220.35 231.151 222.017C231.11 222.058 231.077 222.107 231.054 222.161C231.032 222.216 231.02 222.274 231.02 222.332C231.02 222.391 231.032 222.449 231.054 222.503C231.077 222.557 231.11 222.606 231.151 222.648C231.194 222.689 231.245 222.722 231.301 222.743C231.356 222.764 231.416 222.774 231.475 222.772Z" fill="#78AD04"/>
<path d="M287.473 296.805C287.534 296.804 287.594 296.792 287.65 296.767C287.706 296.743 287.756 296.707 287.797 296.662C289.349 294.967 290.781 293.164 292.081 291.268C292.115 291.22 292.139 291.166 292.152 291.109C292.164 291.051 292.166 290.992 292.155 290.934C292.145 290.876 292.123 290.821 292.091 290.772C292.06 290.722 292.018 290.68 291.97 290.646C291.922 290.612 291.868 290.588 291.81 290.576C291.753 290.563 291.694 290.562 291.636 290.572C291.578 290.582 291.523 290.604 291.474 290.636C291.424 290.668 291.382 290.709 291.348 290.757C290.069 292.613 288.668 294.38 287.153 296.049C287.112 296.09 287.079 296.14 287.056 296.194C287.034 296.248 287.022 296.306 287.022 296.365C287.022 296.423 287.034 296.481 287.056 296.536C287.079 296.59 287.112 296.639 287.153 296.68C287.196 296.721 287.246 296.753 287.301 296.774C287.356 296.796 287.414 296.806 287.473 296.805Z" fill="#78AD04"/>
<path d="M302.566 293.17C304.59 295.329 306.561 297.613 307.893 300.279C309.147 302.837 309.872 305.622 310.024 308.468C310.14 310.501 310.115 312.539 309.948 314.568C309.886 315.421 308.545 315.43 308.616 314.568C308.847 311.4 308.914 308.152 308.203 305.038C307.603 302.505 306.494 300.121 304.945 298.031C303.924 296.665 302.818 295.365 301.633 294.139C301.043 293.508 301.989 292.557 302.579 293.188L302.566 293.17Z" fill="#78AD04"/>
<path d="M205.617 207.403C204.965 204.488 204.512 201.534 204.139 198.57C204.139 198.217 204.28 197.878 204.529 197.628C204.779 197.378 205.118 197.237 205.471 197.237C205.821 197.248 206.153 197.392 206.4 197.64C206.648 197.888 206.792 198.22 206.803 198.57C207.122 201.094 207.584 204.013 208.188 206.688C208.283 207.031 208.237 207.397 208.062 207.707C207.887 208.016 207.596 208.244 207.253 208.338C206.911 208.433 206.544 208.388 206.235 208.213C205.926 208.037 205.699 207.746 205.604 207.403H205.617Z" fill="white"/>
<path d="M204.972 195.798C204.369 195.798 203.88 195.139 203.88 194.327C203.88 193.515 204.369 192.856 204.972 192.856C205.576 192.856 206.064 193.515 206.064 194.327C206.064 195.139 205.576 195.798 204.972 195.798Z" fill="white"/>
<path d="M480.801 223.585C481.751 225.163 484.078 224.985 485.516 226.136C488.797 228.766 492.69 230.179 501 229.792C500.45 231.978 498.523 233.52 496.561 234.631C493.312 236.442 489.713 237.533 486.006 237.827C482.299 238.121 478.572 237.613 475.079 236.337" fill="#78AD04"/>
<path d="M478.941 222.541C479.11 225.056 482.049 226.3 483.07 228.597C485.414 233.853 489.258 238.008 499.602 242.749C497.568 245.055 494.274 245.721 491.167 245.859C486.087 246.027 481.031 245.096 476.343 243.132C471.655 241.168 467.444 238.215 463.999 234.476" fill="#83CE00"/>
<path d="M431.414 299.915C432.369 301.488 434.695 301.314 436.129 302.465C439.414 305.096 443.302 306.508 451.617 306.122C451.067 308.303 449.136 309.845 447.178 310.956C443.931 312.768 440.332 313.859 436.626 314.154C432.92 314.449 429.193 313.942 425.701 312.667" fill="#78AD04"/>
<path d="M429.555 298.871C429.723 301.381 432.662 302.625 433.683 304.927C436.027 310.179 439.876 314.333 450.215 319.074C448.182 321.384 444.888 322.051 441.78 322.184C436.701 322.35 431.645 321.419 426.957 319.455C422.269 317.49 418.059 314.539 414.612 310.801" fill="#83CE00"/>
<path d="M463.711 229.739C461.904 229.384 461.278 227.131 459.716 226.185C456.129 223.99 453.501 220.808 451.006 212.855C449.146 214.112 448.342 216.458 447.974 218.676C447.379 222.349 447.581 226.107 448.566 229.695C449.551 233.283 451.296 236.617 453.683 239.47" fill="#78AD04"/>
<path d="M465.316 231.139C462.901 231.832 460.731 229.495 458.214 229.313C452.478 228.899 447.266 226.691 439.294 218.573C437.815 221.275 438.317 224.616 439.249 227.549C440.82 232.391 443.417 236.838 446.861 240.585C450.306 244.333 454.517 247.292 459.208 249.262" fill="#83CE00"/>
<path d="M441.514 251.928C439.711 251.568 439.081 249.32 437.518 248.374C433.927 246.183 431.277 243.002 428.809 235.044C426.944 236.302 426.145 238.643 425.777 240.865C425.181 244.538 425.382 248.296 426.367 251.885C427.352 255.473 429.098 258.806 431.485 261.659" fill="#78AD04"/>
<path d="M443.143 253.328C440.728 254.026 438.557 251.684 436.04 251.506C430.309 251.089 425.097 248.885 417.12 240.767C415.641 243.464 416.148 246.81 417.08 249.742C418.653 254.579 421.249 259.02 424.691 262.763C428.133 266.506 432.34 269.464 437.025 271.434" fill="#83CE00"/>
<path d="M413.312 289.926C411.51 289.571 410.88 287.323 409.317 286.372C405.726 284.177 403.076 280.996 400.607 273.042C398.743 274.304 397.944 276.646 397.575 278.863C396.979 282.536 397.18 286.295 398.166 289.883C399.151 293.471 400.896 296.805 403.284 299.657" fill="#78AD04"/>
<path d="M414.928 291.326C412.508 292.024 410.342 289.682 407.825 289.5C402.089 289.087 396.878 286.878 388.9 278.765C387.427 281.462 387.928 284.804 388.86 287.736C390.433 292.573 393.029 297.015 396.471 300.758C399.913 304.501 404.12 307.458 408.806 309.428" fill="#83CE00"/>
<path d="M440.097 233.769C446.183 250.098 461.046 259.482 474.91 264.814C483.242 250.107 491.917 232.592 493.723 215.632C494.363 209.62 495.73 199.868 489.777 198.841C486.78 198.33 481.2 201.751 478.63 203.378C464.793 212.179 451.883 222.362 440.097 233.769Z" fill="#ADE701"/>
<path d="M412.881 264.814C421.271 281.698 439.556 290.26 454.099 294.521C458.481 289.251 462.658 283.804 466.542 278.143C469.521 273.784 472.313 269.337 474.91 264.814C461.06 259.482 446.184 250.12 440.098 233.791C430.176 243.354 421.072 253.731 412.881 264.814Z" fill="#83CE00"/>
<path d="M379.92 328.142L422.288 328.267C433.328 317.452 444.249 306.411 454.1 294.534C439.557 290.273 421.271 281.724 412.881 264.827C398.56 284.226 387.191 305.691 379.92 328.142Z" fill="#ADE701"/>
<path d="M395.981 328.795C396.05 328.795 396.118 328.779 396.179 328.749C396.241 328.718 396.295 328.673 396.336 328.618L487.043 208.829C487.078 208.782 487.104 208.729 487.119 208.672C487.133 208.615 487.137 208.556 487.128 208.498C487.112 208.38 487.049 208.274 486.954 208.203C486.86 208.132 486.74 208.101 486.623 208.118C486.506 208.134 486.4 208.197 486.328 208.292L395.626 328.08C395.575 328.146 395.544 328.225 395.536 328.308C395.528 328.391 395.543 328.474 395.58 328.549C395.617 328.623 395.674 328.686 395.745 328.73C395.816 328.773 395.898 328.796 395.981 328.795Z" fill="#78AD04"/>
<path d="M474.933 249.796C475.91 249.796 476.904 249.765 477.899 249.693C478.016 249.685 478.126 249.63 478.203 249.541C478.281 249.452 478.32 249.336 478.311 249.218C478.303 249.1 478.248 248.99 478.159 248.913C478.07 248.835 477.954 248.797 477.836 248.805C467.724 249.547 458.211 246.094 458.117 246.059C458.062 246.038 458.004 246.029 457.946 246.031C457.887 246.033 457.83 246.047 457.777 246.071C457.724 246.096 457.676 246.13 457.636 246.173C457.596 246.216 457.565 246.266 457.545 246.321C457.524 246.376 457.515 246.434 457.517 246.493C457.519 246.551 457.533 246.609 457.557 246.662C457.581 246.715 457.616 246.763 457.659 246.803C457.701 246.843 457.752 246.874 457.807 246.894C463.329 248.749 469.108 249.728 474.933 249.796Z" fill="#78AD04"/>
<path d="M455.142 250.036C455.205 250.035 455.268 250.022 455.325 249.996C455.382 249.97 455.434 249.932 455.475 249.885C455.515 249.841 455.545 249.79 455.565 249.734C455.584 249.679 455.592 249.62 455.589 249.562C455.586 249.503 455.571 249.445 455.545 249.393C455.52 249.34 455.484 249.292 455.44 249.254C455.382 249.205 449.793 244.206 446.726 237.35C446.702 237.297 446.667 237.249 446.625 237.209C446.582 237.168 446.532 237.137 446.478 237.116C446.423 237.095 446.365 237.085 446.307 237.087C446.248 237.089 446.191 237.102 446.137 237.126C446.084 237.15 446.036 237.184 445.996 237.227C445.956 237.269 445.924 237.319 445.903 237.374C445.883 237.428 445.873 237.487 445.874 237.545C445.876 237.604 445.889 237.661 445.913 237.715C449.061 244.753 454.792 249.871 454.845 249.924C454.927 249.997 455.033 250.036 455.142 250.036Z" fill="#78AD04"/>
<path d="M441.589 267.582C441.68 267.583 441.768 267.557 441.843 267.507C441.918 267.457 441.976 267.385 442.01 267.301C442.043 267.217 442.05 267.125 442.03 267.037C442.009 266.949 441.962 266.869 441.896 266.809C441.838 266.76 436.418 261.575 433.581 254.621C433.559 254.567 433.526 254.517 433.485 254.476C433.444 254.434 433.395 254.401 433.341 254.378C433.287 254.356 433.229 254.344 433.17 254.343C433.112 254.343 433.054 254.354 432.999 254.377C432.945 254.399 432.896 254.431 432.854 254.473C432.813 254.514 432.78 254.563 432.757 254.617C432.734 254.671 432.722 254.729 432.722 254.788C432.722 254.846 432.733 254.904 432.755 254.959C435.667 262.099 441.225 267.4 441.283 267.457C441.365 267.537 441.475 267.581 441.589 267.582Z" fill="#78AD04"/>
<path d="M420.206 295.916C420.29 295.916 420.372 295.893 420.443 295.849C420.514 295.805 420.571 295.742 420.607 295.666C420.644 295.591 420.659 295.507 420.65 295.424C420.641 295.341 420.609 295.262 420.557 295.196C420.512 295.134 415.944 289.189 414.2 281.867C414.186 281.808 414.161 281.753 414.126 281.704C414.091 281.656 414.047 281.615 413.996 281.583C413.945 281.551 413.888 281.53 413.829 281.521C413.77 281.511 413.71 281.513 413.651 281.527C413.593 281.54 413.538 281.565 413.49 281.6C413.441 281.635 413.4 281.68 413.368 281.731C413.337 281.782 413.315 281.838 413.306 281.897C413.296 281.957 413.298 282.017 413.312 282.075C415.088 289.575 419.789 295.667 419.833 295.729C419.875 295.789 419.931 295.837 419.996 295.869C420.061 295.902 420.133 295.918 420.206 295.916Z" fill="#78AD04"/>
<path d="M434.621 304.269C435.597 304.269 436.587 304.238 437.586 304.162C437.644 304.158 437.701 304.143 437.754 304.117C437.806 304.091 437.853 304.054 437.891 304.01C437.929 303.966 437.958 303.915 437.977 303.859C437.996 303.804 438.003 303.745 437.999 303.687C437.995 303.629 437.979 303.572 437.953 303.519C437.927 303.467 437.891 303.42 437.847 303.382C437.803 303.344 437.752 303.314 437.696 303.296C437.641 303.277 437.582 303.27 437.524 303.274C427.407 304.016 417.898 300.559 417.805 300.523C417.694 300.482 417.57 300.487 417.463 300.536C417.355 300.586 417.271 300.677 417.23 300.788C417.189 300.899 417.193 301.022 417.243 301.13C417.292 301.238 417.383 301.322 417.494 301.363C423.017 303.218 428.796 304.198 434.621 304.269Z" fill="#78AD04"/>
<path d="M445.952 280.209C446.07 280.216 446.186 280.176 446.274 280.098C446.362 280.02 446.416 279.909 446.423 279.792C446.43 279.674 446.39 279.558 446.312 279.47C446.234 279.381 446.123 279.328 446.006 279.321C442.238 278.872 438.527 278.03 434.934 276.81C434.823 276.77 434.7 276.775 434.593 276.825C434.485 276.875 434.402 276.965 434.362 277.077C434.321 277.188 434.326 277.311 434.376 277.419C434.426 277.526 434.517 277.609 434.628 277.65C438.285 278.888 442.061 279.741 445.895 280.196L445.952 280.209Z" fill="#78AD04"/>
<path d="M482.986 231.285C483.103 231.292 483.219 231.252 483.307 231.174C483.396 231.096 483.449 230.985 483.456 230.868C483.463 230.75 483.423 230.634 483.345 230.546C483.267 230.457 483.157 230.404 483.039 230.397C479.275 229.952 475.567 229.115 471.976 227.9C471.865 227.858 471.742 227.863 471.634 227.913C471.526 227.962 471.443 228.053 471.401 228.164C471.36 228.275 471.365 228.399 471.414 228.506C471.464 228.614 471.554 228.698 471.666 228.739C475.323 229.977 479.099 230.83 482.932 231.285H482.986Z" fill="#78AD04"/>
<path d="M458.801 263.312C458.911 263.312 459.017 263.272 459.099 263.199C459.181 263.126 459.233 263.026 459.245 262.916C459.259 262.8 459.226 262.682 459.154 262.59C459.081 262.498 458.975 262.438 458.859 262.423C455.092 261.978 451.381 261.141 447.787 259.926C447.676 259.885 447.553 259.89 447.445 259.939C447.337 259.989 447.254 260.079 447.212 260.19C447.171 260.302 447.176 260.425 447.225 260.533C447.275 260.641 447.365 260.725 447.477 260.766C451.135 262.004 454.913 262.857 458.748 263.312H458.801Z" fill="#78AD04"/>
<path d="M464.971 237.048C465.059 237.05 465.145 237.025 465.219 236.977C465.293 236.929 465.351 236.86 465.386 236.779C465.421 236.698 465.43 236.609 465.414 236.522C465.398 236.436 465.357 236.356 465.295 236.293C463.778 234.626 462.376 232.858 461.1 231.001C461.066 230.953 461.024 230.912 460.974 230.88C460.925 230.848 460.87 230.827 460.812 230.817C460.754 230.806 460.695 230.807 460.638 230.82C460.581 230.833 460.526 230.856 460.478 230.89C460.43 230.923 460.389 230.966 460.358 231.016C460.326 231.065 460.304 231.12 460.294 231.178C460.284 231.236 460.285 231.295 460.298 231.352C460.31 231.409 460.334 231.464 460.367 231.512C461.67 233.408 463.101 235.211 464.651 236.91C464.692 236.954 464.742 236.988 464.797 237.012C464.852 237.036 464.911 237.048 464.971 237.048Z" fill="#78AD04"/>
<path d="M408.965 311.067C409.053 311.069 409.139 311.044 409.213 310.996C409.287 310.948 409.345 310.879 409.38 310.798C409.415 310.717 409.425 310.628 409.408 310.541C409.392 310.455 409.351 310.375 409.289 310.312C407.779 308.644 406.384 306.876 405.112 305.02C405.078 304.972 405.036 304.931 404.986 304.899C404.937 304.868 404.882 304.846 404.824 304.836C404.766 304.825 404.707 304.826 404.65 304.839C404.593 304.852 404.538 304.875 404.49 304.909C404.442 304.942 404.401 304.985 404.37 305.035C404.338 305.084 404.316 305.139 404.306 305.197C404.296 305.255 404.297 305.314 404.309 305.371C404.322 305.429 404.346 305.483 404.379 305.531C405.677 307.427 407.107 309.23 408.659 310.925C408.738 311.011 408.848 311.062 408.965 311.067Z" fill="#78AD04"/>
<path d="M394.817 308.397C392.877 310.463 391.026 312.649 389.73 315.182C388.546 317.592 387.871 320.221 387.745 322.904C387.638 324.887 387.666 326.874 387.83 328.853C387.892 329.711 386.556 329.706 386.498 328.853C386.254 325.539 386.218 322.157 386.968 318.901C387.615 316.235 388.792 313.728 390.431 311.529C391.495 310.1 392.644 308.737 393.871 307.446C394.462 306.815 395.407 307.766 394.821 308.397H394.817Z" fill="#78AD04"/>
<path d="M488.245 220.964C488.556 219.591 488.818 218.205 489.049 216.818C489.279 215.432 489.493 214.077 489.63 212.846C489.719 212.153 490.185 211.473 490.962 211.513C491.614 211.54 492.396 212.109 492.294 212.846C491.921 215.81 491.468 218.764 490.815 221.679C490.769 221.849 490.69 222.008 490.582 222.147C490.474 222.286 490.339 222.403 490.186 222.489C490.033 222.576 489.864 222.632 489.69 222.653C489.515 222.674 489.338 222.66 489.168 222.612C488.83 222.511 488.545 222.283 488.37 221.976C488.196 221.669 488.146 221.306 488.232 220.964H488.245Z" fill="white"/>
<path d="M491.474 210.074C490.871 210.074 490.382 209.415 490.382 208.603C490.382 207.791 490.871 207.132 491.474 207.132C492.077 207.132 492.566 207.791 492.566 208.603C492.566 209.415 492.077 210.074 491.474 210.074Z" fill="white"/>
<path d="M479.896 151.712C478.62 156.9 476.176 161.727 472.749 165.824C469.329 169.968 465.038 173.306 460.181 175.599C457.46 176.882 454.58 177.795 451.618 178.314C450.779 178.456 450.419 177.172 451.267 177.025C461.477 175.248 470.494 168.556 475.465 159.515C476.872 156.957 477.929 154.222 478.608 151.383C478.808 150.548 480.091 150.899 479.896 151.734V151.712Z" fill="#02263C"/>
<path d="M476.549 116.451C483.097 122.947 486.213 132.127 486.484 141.222C486.58 146.334 485.983 151.435 484.708 156.387C483.559 161.043 481.872 165.593 479.293 169.658C476.594 173.899 473.101 177.577 469.007 180.491C468.856 180.58 468.689 180.638 468.515 180.662C468.342 180.686 468.166 180.676 467.996 180.632C467.827 180.588 467.667 180.51 467.528 180.405C467.388 180.299 467.271 180.167 467.182 180.015C467.008 179.705 466.961 179.339 467.053 178.994C467.144 178.65 467.365 178.355 467.671 178.171C471.014 175.777 473.918 172.82 476.252 169.432C478.728 165.743 480.57 161.665 481.703 157.368C484.167 148.46 484.864 138.796 481.823 129.941C480.361 125.568 477.912 121.591 474.667 118.317C473.45 117.109 475.333 115.207 476.549 116.433V116.451Z" fill="#02263C"/>
<path d="M479.883 143.803C481.104 154.467 476.989 165.446 469.447 172.986C467.331 175.108 464.942 176.938 462.344 178.429C462.193 178.506 462.018 178.523 461.855 178.475C461.692 178.428 461.554 178.32 461.468 178.174C461.381 178.027 461.354 177.854 461.392 177.688C461.429 177.523 461.528 177.378 461.669 177.283C470.685 172.115 476.851 162.62 478.409 152.401C478.836 149.551 478.884 146.657 478.552 143.795C478.454 142.941 479.79 142.95 479.883 143.795V143.803Z" fill="#02263C"/>
<path d="M442.748 119.388C451.6 115.589 461.637 116.211 470.476 119.735C474.853 121.514 478.993 123.83 482.799 126.63C486.693 129.452 490.235 132.664 493.076 136.565C496.044 140.635 498.18 145.251 499.362 150.148C499.762 151.819 497.196 152.53 496.796 150.859C495.81 146.758 494.119 142.859 491.798 139.338C489.34 135.704 486.291 132.508 482.777 129.883C475.808 124.551 467.542 120.326 458.685 119.57C453.753 119.148 448.666 119.726 444.094 121.69C443.786 121.857 443.427 121.901 443.088 121.811C442.75 121.722 442.459 121.507 442.273 121.21C441.945 120.65 442.083 119.672 442.748 119.388Z" fill="#02263C"/>
<path d="M469.415 126.448C479.74 129.296 488.397 137.201 492.565 147.034C493.743 149.786 494.547 152.683 494.958 155.649C495 155.817 494.977 155.994 494.895 156.146C494.813 156.298 494.677 156.414 494.514 156.471C494.343 156.516 494.162 156.493 494.008 156.405C493.855 156.318 493.742 156.174 493.693 156.004C492.299 145.758 485.942 136.481 477.108 131.189C474.587 129.676 471.872 128.513 469.037 127.732C468.872 127.681 468.733 127.568 468.65 127.415C468.566 127.263 468.546 127.085 468.592 126.918C468.638 126.751 468.748 126.608 468.897 126.521C469.047 126.433 469.224 126.407 469.392 126.448H469.415Z" fill="#02263C"/>
<path d="M430.008 49.5368C428.334 55.0063 431.207 61.0091 435.424 64.8702C439.641 68.7313 445.03 70.9929 450.109 73.6188C455.187 76.2448 460.27 79.5149 462.983 84.5446C465.202 88.6324 465.615 93.431 467.156 97.8253C470.263 106.712 476.718 113.919 481.477 122.027C487.683 132.567 487.399 142.146 483.155 150.966C480.984 155.48 479.35 157.875 476.869 160.519C470.849 166.917 466.876 168.925 460.523 170.129C454.171 171.333 447.579 170.64 441.324 169.023C435.69 167.632 430.32 165.335 425.422 162.22C413.88 154.667 406.502 142.337 399.537 130.425L390.938 115.718C389.309 112.928 387.64 110.04 387.196 106.832C386.845 104.321 387.271 101.766 387.746 99.2782C389.966 87.5882 393.327 76.147 396.669 64.7325C397.024 63.5239 397.393 62.2843 398.152 61.2801C399.173 59.9471 400.771 59.1696 402.316 58.4765C410.775 54.6838 419.519 51.5639 428.468 49.1458" fill="#02263C"/>
<path d="M399.842 106.263H364.119V120.352H402.768L399.842 106.263Z" fill="#E8463A"/>
<path d="M372.519 95.346L370.135 114.292L394.551 114.145C394.551 114.145 389.326 106.889 390.08 95.0972" fill="#FFB999"/>
<path d="M256.536 144.443C228.693 140.778 216.707 132.082 211.797 126.67C211.566 126.418 211.427 126.094 211.404 125.752C211.381 125.41 211.474 125.07 211.669 124.789C211.865 124.507 212.15 124.3 212.478 124.202C212.806 124.104 213.158 124.121 213.475 124.249C215.768 125.2 218.146 125.927 220.578 126.422C224.755 127.239 229.163 127.19 233.185 125.795L233.341 125.737C232.082 124.169 231.166 122.354 230.651 120.41C240.31 119.486 249.739 125.244 255.319 133.189C256.594 135.001 257.743 136.965 259.475 138.352" fill="#FFB999"/>
<path d="M360.72 167.774L349.178 170.289C336.995 172.946 324.464 173.622 312.066 172.293C289.023 171.513 267.121 162.066 250.729 145.838L248.141 143.27L255.954 132.229L278.66 139.591C287.92 142.591 297.761 143.336 307.366 141.763C316.971 140.19 326.063 136.346 333.885 130.549L349.471 118.997C353.138 116.28 356.956 113.773 360.906 111.488" fill="#F1DEE0"/>
<path d="M244.376 142.333C245.633 142.613 246.938 142.875 248.283 143.128L255.297 133.158C254.551 132.098 253.741 131.085 252.873 130.123L244.376 142.333Z" fill="#FC8C60"/>
<path d="M331.097 241.003L332.629 241.407C359.975 248.618 386.943 251.528 415.199 250.036H417.862C415.989 246.894 415.088 243.451 414.528 239.816C411.923 223.074 413.561 206.243 421.316 191.083L423.815 186.196L439.393 226.304L441.23 226.113C442.869 225.96 444.478 225.584 446.016 224.998C453.714 221.972 458.783 213.948 457.372 205.55L455.529 192.972C454.076 182.83 451.719 172.839 448.484 163.118C445.789 154.974 442.332 147.103 438.159 139.609C433.98 132.231 429.188 125.219 423.833 118.646C421.583 115.866 418.651 113.718 415.323 112.412L399.83 106.267L396.998 108.4C392.457 111.825 386.891 113.61 381.207 113.464C375.523 113.318 370.056 111.249 365.697 107.596L364.107 106.263L342.404 128.279C338.383 132.358 335.42 137.36 333.774 142.848C332.958 145.533 332.539 148.324 332.531 151.13C332.531 156.529 334.116 161.883 337.166 167.232C339.387 170.962 341.034 175.007 342.049 179.229L342.107 179.487C343.131 184.395 343.053 189.47 341.88 194.345L331.097 241.003Z" fill="#F9EDED"/>
<path d="M332.039 187.173C350.089 180.775 363.113 187.551 363.113 187.551L359.739 194.216L346.071 197.588L339.301 196.206L335.417 192.834L332.039 187.173Z" fill="#CE2420"/>
<path d="M360.99 204.831L363.236 187.142C363.236 187.142 354.948 189.724 347.202 189.59C339.455 189.457 332.237 186.698 332.162 186.773L338.177 232.312C338.115 232.249 343.344 234.058 348.458 234.089C353.341 234.138 358.109 232.418 358.109 232.418L358.726 227.531" fill="#E8463A"/>
<path d="M375.076 213.641C373.961 210.478 372.384 207.496 370.397 204.795C368.082 201.929 365.146 199.627 361.811 198.064L360.684 203.635C356.183 205.924 351.335 206.501 345.95 205.106C344.576 204.703 343.144 204.538 341.715 204.617C340.552 204.637 339.423 205.012 338.479 205.693C337.573 206.396 336.841 207.299 336.339 208.33C335.836 209.361 335.577 210.494 335.58 211.642V211.744C335.793 218.049 338.168 222.852 346.434 224.749C358.726 227.544 372.017 227.695 378.201 227.073" fill="#FFB999"/>
<path d="M434.523 198.806L427.473 202.609C415.042 209.319 400.869 212.094 386.828 210.567L374.802 209.274C374.589 209.251 374.376 209.309 374.205 209.437C374.034 209.565 373.917 209.752 373.878 209.962L370.367 228.753C370.347 228.877 370.353 229.004 370.385 229.125C370.418 229.246 370.476 229.36 370.555 229.457C370.634 229.554 370.733 229.634 370.845 229.69C370.958 229.746 371.081 229.778 371.206 229.783L382.242 229.988C401.354 230.339 420.463 229.117 439.375 226.336" fill="#F9EDED"/>
<path d="M385.767 230.299L396.812 230.032C407.075 229.788 417.459 229.073 427.664 227.917C427.723 227.911 427.777 227.881 427.814 227.835C427.851 227.789 427.868 227.73 427.862 227.671C427.855 227.612 427.826 227.558 427.78 227.521C427.733 227.484 427.674 227.467 427.616 227.473C417.405 228.628 407.053 229.339 396.798 229.588L385.767 229.85L372.005 229.61C371.975 229.608 371.945 229.612 371.917 229.621C371.889 229.631 371.863 229.647 371.841 229.668C371.819 229.688 371.802 229.713 371.791 229.741C371.779 229.768 371.774 229.798 371.774 229.828C371.774 229.888 371.797 229.945 371.839 229.988C371.88 230.031 371.937 230.057 371.996 230.059L385.767 230.299Z" fill="#CEB6B9"/>
<path d="M214.225 458.661C214.225 459.416 195.922 476.727 195.922 476.727L184.38 467.067L197.533 441.475" fill="#FFB999"/>
<path d="M215.023 458.021C215.023 458.772 206.385 466.987 206.385 466.987L192.028 452.156L196.254 443.781" fill="#FC8C60"/>
<path d="M22.5594 320.122H432.684V335.367H22.5594V320.122Z" fill="#F6C375"/>
<path d="M22.5594 320.122H432.684V328.267H22.5594V320.122Z" fill="#F2A641"/>
<path d="M252.437 411.239L282.771 457.91L314.857 444.363L293.3 374.107" fill="#4092C1"/>
<path d="M333.912 267.217C279.514 282.4 238.415 336.975 214.598 391.96L191.022 446.367L213.968 465.708L229.901 444.825C271.798 389.854 332.931 336.047 394.566 327.143L396.967 326.698C406.914 323.717 415.273 316.906 420.207 307.761C420.242 307.695 420.278 307.633 420.309 307.566C424.876 298.912 427.218 289.256 427.122 279.469C427.027 269.683 424.498 260.074 419.763 251.511L415.128 243.131L403.457 245.352C379.143 250.027 353.968 244.901 333.41 231.09L262.826 260.25C229.532 274.002 213.404 310.756 223.85 343.742C225.522 349.109 227.927 354.218 230.997 358.925" fill="#4092C1"/>
<path d="M254.83 414.913L266.608 433.05C276.337 418.428 287.014 404.459 298.57 391.236L294.242 377.124C280.236 388.781 267.067 401.408 254.83 414.913Z" fill="#1B739B"/>
<path d="M231.049 359.658C231.126 359.657 231.202 359.637 231.269 359.598C231.336 359.559 231.392 359.503 231.431 359.436C244.509 336.695 259.398 317.434 275.659 302.185C293.971 285.021 313.61 273.429 334.03 267.733C334.144 267.701 334.24 267.625 334.298 267.522C334.356 267.419 334.371 267.298 334.339 267.184C334.307 267.07 334.232 266.974 334.129 266.916C334.026 266.858 333.904 266.843 333.791 266.875C313.233 272.611 293.469 284.275 275.051 301.532C258.719 316.839 243.785 336.189 230.658 358.987C230.619 359.055 230.599 359.131 230.599 359.21C230.599 359.288 230.619 359.364 230.659 359.432C230.698 359.5 230.754 359.556 230.822 359.595C230.89 359.633 230.966 359.654 231.044 359.653L231.049 359.658Z" fill="#1E6882"/>
<path d="M414.355 265.196C418.165 265.215 421.966 264.813 425.688 263.996C425.803 263.968 425.901 263.895 425.962 263.794C426.022 263.694 426.041 263.573 426.012 263.458C425.998 263.401 425.973 263.348 425.938 263.3C425.904 263.253 425.86 263.213 425.809 263.183C425.759 263.153 425.703 263.133 425.645 263.125C425.587 263.116 425.528 263.119 425.471 263.134C419.901 264.334 414.173 264.614 408.513 263.961C396.367 262.481 387.764 256.603 382.947 246.494C382.897 246.388 382.806 246.306 382.695 246.266C382.584 246.226 382.461 246.233 382.355 246.283C382.248 246.334 382.166 246.425 382.127 246.536C382.087 246.647 382.093 246.77 382.144 246.876C388.328 259.842 399.852 263.805 408.433 264.845C410.398 265.082 412.376 265.199 414.355 265.196Z" fill="#1E6882"/>
<path d="M170.348 471.155C167.786 472.364 165.575 473.164 163.076 472.546H163.023C162.701 472.462 162.383 472.36 162.073 472.239L145.11 466.726C144.258 466.47 143.349 466.48 142.502 466.754C141.656 467.029 140.914 467.555 140.374 468.263C139.688 469.162 139.376 470.291 139.504 471.415C139.631 472.539 140.188 473.57 141.057 474.292L171.129 499.414C172.396 500.463 174.017 500.982 175.657 500.865C177.296 500.747 178.828 500.002 179.932 498.783L196.495 480.495C196.855 480.099 197.133 479.635 197.31 479.129C197.488 478.624 197.563 478.088 197.529 477.554C197.496 477.019 197.356 476.497 197.117 476.017C196.879 475.538 196.546 475.112 196.14 474.763L186.174 466.188C185.431 465.544 184.477 465.196 183.494 465.212C182.511 465.227 181.569 465.605 180.846 466.272L170.348 471.155Z" fill="#FE6F5D"/>
<path d="M394.259 211.104C402.791 211.104 410.027 209.891 417.125 207.408C417.153 207.398 417.179 207.383 417.201 207.363C417.222 207.344 417.24 207.32 417.253 207.294C417.266 207.268 417.273 207.239 417.275 207.21C417.277 207.18 417.273 207.151 417.263 207.123C417.253 207.096 417.238 207.07 417.219 207.048C417.199 207.026 417.176 207.008 417.149 206.995C417.123 206.983 417.094 206.975 417.065 206.974C417.036 206.972 417.007 206.976 416.979 206.986C404.993 211.171 392.634 211.726 374.247 208.914C374.218 208.909 374.188 208.91 374.159 208.917C374.13 208.924 374.103 208.936 374.079 208.954C374.055 208.971 374.035 208.993 374.02 209.018C374.004 209.043 373.994 209.071 373.989 209.1C373.985 209.13 373.986 209.159 373.993 209.188C373.999 209.217 374.012 209.244 374.029 209.268C374.046 209.292 374.068 209.312 374.093 209.328C374.119 209.343 374.147 209.354 374.176 209.358C381.758 210.513 388.324 211.104 394.259 211.104Z" fill="#CEB6B9"/>
<path d="M358.274 66.7808C357.146 85.4422 367.268 101.26 380.878 102.082C394.489 102.904 414.133 88.4191 415.26 69.7577C416.015 57.2324 417.662 38.4821 408.282 32.195C403.678 29.1114 394.116 34.4566 384.962 34.4566C371.33 34.461 359.388 48.1061 358.274 66.7808Z" fill="#FFB999"/>
<path d="M413.964 79.706C408.425 79.706 403.936 75.0252 403.936 69.2512C403.936 63.4771 408.425 58.7964 413.964 58.7964C419.502 58.7964 423.992 63.4771 423.992 69.2512C423.992 75.0252 419.502 79.706 413.964 79.706Z" fill="#FFB999"/>
<path d="M370.929 108.129C379.43 106.885 385.703 103.89 390.16 100.731C390.16 100.709 390.16 100.682 390.16 100.66C387.196 101.737 384.051 102.227 380.9 102.104C379.283 102.006 377.685 101.694 376.15 101.175C374.714 100.69 373.339 100.04 372.052 99.2382L371.551 103.237L370.929 108.129Z" fill="#FC8C60"/>
<path d="M362.308 50.8386C371.942 55.2551 382.76 57.0591 392.402 52.918C393.797 52.3234 395.151 51.6377 396.455 50.8653L402.968 46.9819C402.968 46.9819 407.762 55.4773 414.283 58.2809C414.063 58.1454 413.851 57.997 413.648 57.8366C413.036 57.3671 412.471 56.8388 411.961 56.2593C410.306 54.3709 409.218 52.0605 408.246 49.7456C407.679 48.4442 407.194 47.1086 406.794 45.7467C405.942 42.5467 405.79 39.2002 406.35 35.9362L407.349 32.6749C405.556 38.2111 401.449 42.8498 396.504 45.9378C391.399 49.128 385.455 50.772 379.48 51.5184C376.705 51.8694 373.859 52.0249 371.138 51.3674C370.494 51.2119 369.863 51.0054 369.251 50.7497C368.008 50.2246 366.639 50.0703 365.309 50.3054C364.376 50.47 363.427 50.5237 362.482 50.4654C362.422 50.5898 362.365 50.7142 362.308 50.8386Z" fill="#FC8C60"/>
<path d="M350.705 32.2217C351.593 26.4144 354.674 21.1759 358.057 16.3728C360.636 12.7072 363.477 9.15708 367.068 6.48228C375.245 0.395115 386.161 -0.386886 396.341 0.132967C399.992 0.2534 403.626 0.699485 407.199 1.46592C414.795 3.2432 421.893 7.3487 426.869 13.3559C431.846 19.3631 434.585 27.2764 433.994 35.0564C433.666 39.3752 432.356 43.5696 431.988 47.8839C431.619 52.1982 431.499 61.3778 434.611 64.3814L425.475 55.8905L420.876 58.392C419.746 59.0124 418.462 59.294 417.177 59.2034C415.891 59.1128 414.659 58.6538 413.627 57.8811C413.014 57.4128 412.448 56.8844 411.94 56.3037C410.284 54.4198 409.197 52.1094 408.229 49.7945C407.661 48.493 407.175 47.1575 406.773 45.7956C405.923 42.5967 405.771 39.2522 406.329 35.9895L407.496 32.1772C405.801 37.9534 401.583 42.7964 396.478 45.9867C391.373 49.1769 385.424 50.8208 379.454 51.5717C376.679 51.9183 373.829 52.0783 371.112 51.4207C370.467 51.2639 369.835 51.0574 369.221 50.8031C367.977 50.2799 366.609 50.1256 365.279 50.3587C363.673 50.6485 362.024 50.6035 360.436 50.2266C358.848 49.8497 357.355 49.149 356.05 48.1683C351.438 44.5293 349.8 38.0289 350.705 32.2217Z" fill="#02263C"/>
<path d="M429.799 201.578C429.833 201.58 429.866 201.572 429.896 201.556L433.625 199.739C433.656 199.729 433.684 199.712 433.708 199.69C433.732 199.668 433.751 199.642 433.763 199.612C433.776 199.582 433.782 199.55 433.781 199.518C433.78 199.486 433.773 199.454 433.759 199.425C433.745 199.396 433.724 199.37 433.7 199.349C433.675 199.328 433.646 199.313 433.615 199.305C433.584 199.296 433.551 199.294 433.519 199.3C433.487 199.305 433.457 199.316 433.43 199.334L429.701 201.156C429.656 201.178 429.619 201.215 429.597 201.26C429.576 201.306 429.57 201.357 429.581 201.406C429.593 201.455 429.62 201.499 429.66 201.53C429.699 201.561 429.748 201.578 429.799 201.578Z" fill="#CEB6B9"/>
<path d="M427.025 39.2108C425.969 43.654 426.692 48.2616 428.073 52.5404C429.24 56.1616 430.763 60.0271 433.48 62.7819C434.772 64.1231 436.422 65.0639 438.234 65.4922C440.396 65.9854 442.7 65.8699 444.893 65.7188C453.882 65.0732 462.495 61.8475 469.7 56.4281C470.388 55.9127 471.031 57.068 470.374 57.5789C463.223 62.926 454.729 66.1822 445.839 66.9851C443.586 67.2384 441.312 67.2384 439.06 66.9851C437.016 66.7236 435.086 65.8939 433.489 64.5903C430.381 62.0488 428.65 58.1254 427.318 54.4376C425.52 49.4701 424.499 44.0628 425.738 38.842C425.937 38.0067 427.22 38.3621 427.025 39.1975V39.2108Z" fill="#02263C"/>
<path d="M474.968 66.4742C471.553 68.1757 467.986 69.5532 464.314 70.5886C457.38 72.628 449.842 73.6988 442.7 72.1348C438.319 71.1956 434.291 69.0398 431.078 65.9143C429.852 64.7102 431.735 62.8263 432.96 64.0304C435.574 66.5896 438.818 68.4121 442.362 69.3134C443.225 69.5438 444.099 69.7277 444.981 69.8643L445.643 69.9665C445.425 69.9354 445.643 69.9665 445.687 69.9665L446.087 70.011C446.531 70.0613 446.975 70.1013 447.419 70.1309C449.239 70.2494 451.065 70.2346 452.883 70.0865C453.327 70.0554 453.771 70.0154 454.215 69.9665L454.801 69.8999L455.125 69.8599H455.289C456.177 69.7384 457.047 69.5903 457.9 69.4156C459.524 69.1194 461.134 68.7402 462.729 68.2781C465.34 67.55 467.906 66.6687 470.414 65.6389L470.8 65.4745C470.836 65.4745 471.066 65.3634 470.844 65.4745C470.622 65.5855 470.902 65.4523 470.947 65.4345L471.608 65.1457C471.976 64.9813 472.345 64.8169 472.713 64.6436C473.082 64.4703 473.335 64.3503 473.641 64.1993C473.949 64.0294 474.31 63.9845 474.649 64.0738C474.989 64.1632 475.281 64.3799 475.466 64.6791C475.554 64.8305 475.612 64.9978 475.636 65.1716C475.66 65.3454 475.649 65.5222 475.605 65.6918C475.56 65.8615 475.483 66.0207 475.376 66.1602C475.27 66.2998 475.138 66.4171 474.986 66.5053L474.968 66.4742Z" fill="#02263C"/>
<path d="M472.846 116.798C477.152 121.103 479.332 126.937 480.69 132.762C481.085 134.468 481.418 136.188 481.725 137.912C481.871 138.752 480.588 139.111 480.442 138.267C479.145 130.967 477.334 123.16 471.905 117.74C471.787 117.613 471.723 117.446 471.726 117.274C471.73 117.101 471.799 116.936 471.921 116.814C472.043 116.692 472.208 116.622 472.381 116.619C472.553 116.616 472.72 116.68 472.846 116.798Z" fill="#02263C"/>
<path d="M371.942 5.16265L371.756 5.23819L371.663 5.27373C371.849 5.19376 371.569 5.31372 371.663 5.27373C371.561 5.31817 371.458 5.35815 371.361 5.40703C370.686 5.70028 370.029 6.02019 369.372 6.35343C367.113 7.51379 364.941 8.8369 362.873 10.3123C360.011 12.3471 357.374 14.6811 355.007 17.2748C352.205 20.3367 349.874 23.7988 348.09 27.5474C346.029 31.9651 344.797 36.7243 344.454 41.5879C344.406 42.2721 344.375 42.9564 344.357 43.6407C344.33 44.4982 342.998 44.5026 343.025 43.6407C343.14 38.5173 344.193 33.4586 346.133 28.716C347.827 24.6658 350.138 20.9024 352.982 17.5591C355.396 14.7315 358.118 12.183 361.097 9.9613C363.295 8.30039 365.619 6.81476 368.049 5.51811C368.799 5.11822 369.554 4.74055 370.322 4.38954C370.719 4.18696 371.128 4.01034 371.547 3.8608H371.592C372.395 3.55422 372.741 4.84275 371.947 5.14933L371.942 5.16265Z" fill="#02263C"/>
<path d="M373.003 4.88717C372.115 5.33149 371.263 5.82913 370.424 6.34454C368.302 7.65846 366.279 9.12721 364.373 10.7389C361.665 13.0065 359.207 15.5564 357.039 18.3456C354.475 21.6519 352.423 25.3262 350.953 29.2447C349.256 33.8437 348.419 38.7162 348.485 43.6184C348.485 44.2894 348.512 44.9514 348.547 45.6312C348.596 46.4843 347.264 46.4843 347.215 45.6312C346.615 36.0997 349.349 26.6563 354.949 18.9232C357.128 15.8977 359.64 13.127 362.438 10.6633C364.508 8.8273 366.714 7.15182 369.039 5.6514C370.072 4.95751 371.149 4.32977 372.262 3.77194L372.31 3.74972C373.078 3.37649 373.753 4.52728 372.981 4.9005L373.003 4.88717Z" fill="#02263C"/>
<path d="M418.581 70.8774C418.423 69.7402 417.976 68.6624 417.284 67.747C416.591 66.8315 415.676 66.1088 414.626 65.6477C414.512 65.6117 414.416 65.5339 414.358 65.43C414.299 65.3261 414.282 65.2038 414.31 65.0879C414.325 65.0297 414.352 64.9751 414.388 64.9274C414.425 64.8797 414.47 64.8399 414.523 64.8104C414.575 64.781 414.633 64.7624 414.692 64.7559C414.752 64.7493 414.812 64.755 414.87 64.7724C416.073 65.2757 417.127 66.0803 417.93 67.109C418.733 68.1377 419.259 69.3558 419.456 70.6463C419.484 70.7622 419.467 70.8845 419.408 70.9884C419.35 71.0923 419.254 71.1701 419.14 71.2062C419.083 71.2236 419.022 71.2291 418.962 71.2222C418.902 71.2154 418.844 71.1965 418.792 71.1665C418.74 71.1366 418.694 71.0963 418.658 71.0481C418.621 70.9999 418.595 70.9449 418.581 70.8863V70.8774Z" fill="#EA754B"/>
<path d="M417.281 67.7849C416.919 67.9064 416.59 68.1085 416.318 68.3759C415.945 68.722 415.617 69.113 415.341 69.54C414.853 70.282 414.378 71.2239 414.422 72.0726C414.453 72.6591 413.534 72.6591 413.534 72.0726C413.477 71.0018 414.031 69.891 414.613 69.0246C415.195 68.1582 416.007 67.1984 417.059 66.9096C417.177 66.8778 417.302 66.8941 417.408 66.9549C417.514 67.0157 417.591 67.1161 417.623 67.234C417.655 67.3518 417.638 67.4775 417.578 67.5833C417.517 67.6891 417.416 67.7664 417.299 67.7982L417.281 67.7849Z" fill="#EA754B"/>
<path d="M423.53 185.303C423.558 185.309 423.587 185.309 423.614 185.303C423.642 185.292 423.667 185.277 423.688 185.256C423.71 185.236 423.726 185.212 423.738 185.185C423.75 185.158 423.756 185.129 423.756 185.099C423.756 185.07 423.75 185.041 423.739 185.014L417.63 170.089C417.62 170.062 417.603 170.037 417.583 170.016C417.563 169.995 417.539 169.979 417.512 169.967C417.485 169.956 417.456 169.949 417.427 169.949C417.398 169.949 417.369 169.954 417.342 169.965C417.287 169.988 417.243 170.031 417.219 170.086C417.196 170.141 417.195 170.203 417.217 170.258L423.313 185.165C423.33 185.207 423.361 185.243 423.4 185.268C423.439 185.292 423.484 185.305 423.53 185.303Z" fill="#CEB6B9"/>
<path d="M180.626 469.477C180.302 468.786 180.87 467.837 181.893 467.356C182.916 466.876 184.008 467.047 184.332 467.738C184.656 468.429 184.088 469.379 183.065 469.859C182.042 470.339 180.95 470.168 180.626 469.477Z" fill="#DD2F22"/>
<path d="M174.862 472.905C174.539 472.214 175.106 471.265 176.129 470.785C177.153 470.305 178.245 470.475 178.568 471.166C178.892 471.857 178.325 472.807 177.301 473.287C176.278 473.767 175.186 473.596 174.862 472.905Z" fill="#DD2F22"/>
<path d="M168.597 476.043C168.273 475.352 168.84 474.403 169.864 473.922C170.887 473.442 171.979 473.613 172.303 474.304C172.626 474.995 172.059 475.944 171.036 476.425C170.012 476.905 168.92 476.734 168.597 476.043Z" fill="#DD2F22"/>
<path d="M301.582 480.486C300.82 480.47 300.221 479.541 300.243 478.41C300.266 477.279 300.902 476.374 301.665 476.39C302.427 476.405 303.027 477.334 303.004 478.465C302.981 479.596 302.345 480.501 301.582 480.486Z" fill="#DD2F22"/>
<path d="M302.104 487.294C301.341 487.278 300.742 486.349 300.764 485.218C300.787 484.087 301.423 483.182 302.186 483.197C302.948 483.212 303.548 484.142 303.525 485.273C303.503 486.404 302.866 487.309 302.104 487.294Z" fill="#DD2F22"/>
<path d="M302.143 494.188C301.381 494.173 300.781 493.243 300.804 492.112C300.826 490.981 301.463 490.077 302.225 490.092C302.987 490.107 303.587 491.037 303.564 492.168C303.542 493.299 302.905 494.203 302.143 494.188Z" fill="#DD2F22"/>
<path d="M182.338 468.685C181.006 467.592 179.089 467.219 177.41 467.352C177.055 467.387 176.469 467.499 176.66 467.961C176.811 468.338 177.104 468.663 177.286 469.04C177.657 469.864 177.792 470.775 177.677 471.671C177.671 471.815 177.62 471.953 177.531 472.065C177.441 472.178 177.318 472.259 177.179 472.297C177.041 472.334 176.893 472.327 176.759 472.275C176.625 472.223 176.511 472.13 176.434 472.008C175.702 470.981 174.637 470.239 173.42 469.911C172.354 469.614 170.756 469.467 169.775 470.16L170.081 469.765C170.121 469.556 170.081 469.587 170.219 469.716C170.31 469.826 170.391 469.945 170.459 470.071C170.591 470.289 170.708 470.516 170.809 470.751C171.443 472.178 171.486 473.798 170.929 475.256C170.618 476.047 169.331 475.701 169.642 474.901C169.909 474.244 170.022 473.534 169.972 472.826C169.922 472.118 169.71 471.431 169.353 470.818C169.034 470.28 168.385 469.645 169.038 469.04C169.482 468.64 170.281 468.507 170.858 468.418C172.137 468.232 173.442 468.404 174.629 468.915C175.816 469.425 176.838 470.255 177.584 471.311L176.345 471.649C176.425 471.082 176.385 470.505 176.225 469.956C175.994 469.438 175.728 468.936 175.431 468.454C174.929 467.347 175.741 466.299 176.842 466.072C177.979 465.89 179.141 465.943 180.256 466.228C181.368 466.47 182.407 466.976 183.284 467.703C183.941 468.249 182.995 469.187 182.338 468.645V468.685Z" fill="#2B2B2B"/>
<path d="M301.193 478.806C299.666 479.646 298.627 481.241 298.112 482.881C298.015 483.196 297.846 483.801 298.308 483.876C298.543 483.869 298.777 483.827 299 483.752C299.207 483.717 299.416 483.693 299.626 483.681C300.557 483.648 301.479 483.874 302.29 484.334C302.401 484.401 302.49 484.5 302.546 484.617C302.602 484.734 302.623 484.866 302.606 484.995C302.589 485.124 302.535 485.245 302.451 485.344C302.366 485.443 302.255 485.515 302.13 485.551C300.896 485.843 299.8 486.549 299.022 487.551C298.639 488.043 298.339 488.596 298.135 489.186C297.891 489.762 297.798 490.39 297.864 491.012L297.557 490.612C297.384 490.505 297.371 490.576 297.628 490.51C297.762 490.479 297.895 490.448 298.032 490.425C298.281 490.382 298.531 490.354 298.783 490.341C299.574 490.306 300.365 490.431 301.107 490.707C301.85 490.983 302.53 491.406 303.107 491.949C303.737 492.536 302.791 493.478 302.165 492.891C301.672 492.435 301.086 492.091 300.446 491.886C299.806 491.68 299.13 491.617 298.463 491.701C297.864 491.781 297.065 492.207 296.647 491.523C296.337 491.025 296.536 490.128 296.647 489.595C296.916 488.315 297.538 487.137 298.443 486.195C299.348 485.252 300.499 484.583 301.766 484.263L301.61 485.48C301.11 485.197 300.551 485.036 299.977 485.009C299.4 485.009 298.867 485.205 298.299 485.205C297.056 485.205 296.523 483.983 296.723 482.903C296.983 481.806 297.46 480.773 298.126 479.864C298.741 478.947 299.562 478.186 300.523 477.642C301.273 477.234 301.948 478.38 301.193 478.793V478.806Z" fill="#2B2B2B"/>
<path d="M266.502 267.071C261.277 268.962 256.535 271.985 252.611 275.922C251.395 277.135 249.504 275.251 250.729 274.038C254.989 269.795 260.132 266.547 265.791 264.525C266.132 264.431 266.495 264.476 266.802 264.65C267.11 264.824 267.335 265.113 267.429 265.453C267.517 265.794 267.47 266.155 267.297 266.461C267.124 266.767 266.839 266.994 266.502 267.093V267.071Z" fill="white"/>
<path d="M244.833 283.207C243.842 282.528 243.947 280.648 245.069 279.008C246.19 277.367 247.903 276.588 248.894 277.267C249.886 277.946 249.78 279.826 248.659 281.466C247.538 283.107 245.825 283.886 244.833 283.207Z" fill="white"/>
<path d="M383.644 118.81C380.033 119.662 376.25 119.421 372.776 118.117C372.441 118.015 372.158 117.788 371.986 117.483C371.813 117.178 371.764 116.818 371.849 116.478C371.895 116.309 371.974 116.151 372.081 116.012C372.189 115.874 372.322 115.758 372.474 115.671C372.627 115.585 372.794 115.529 372.968 115.507C373.142 115.485 373.318 115.498 373.487 115.545C376.49 116.713 379.774 116.954 382.916 116.238C383.256 116.152 383.617 116.201 383.922 116.375C384.227 116.549 384.453 116.834 384.554 117.171C384.6 117.34 384.613 117.516 384.591 117.69C384.57 117.864 384.514 118.032 384.427 118.184C384.341 118.336 384.225 118.47 384.087 118.578C383.948 118.685 383.79 118.764 383.622 118.81H383.644Z" fill="white"/>
<path d="M366.379 116.624L364.16 115.776C363.832 115.669 363.552 115.452 363.365 115.163C363.187 114.851 363.139 114.483 363.232 114.136C363.324 113.8 363.544 113.513 363.845 113.336C363.998 113.247 364.168 113.189 364.344 113.166C364.52 113.143 364.699 113.156 364.87 113.203L367.09 114.052C367.256 114.092 367.409 114.174 367.534 114.292C367.678 114.384 367.796 114.513 367.875 114.665C367.965 114.819 368.023 114.988 368.046 115.165C368.068 115.341 368.056 115.52 368.009 115.691C367.962 115.86 367.883 116.019 367.776 116.157C367.668 116.295 367.535 116.411 367.383 116.498C367.231 116.584 367.063 116.64 366.889 116.662C366.716 116.684 366.539 116.671 366.37 116.624H366.379Z" fill="white"/>
<path d="M372.918 11.1965C372.218 11.575 371.538 11.9903 370.881 12.4406C370.534 12.6761 370.197 12.9205 369.864 13.1737C369.975 13.0893 369.904 13.1426 369.837 13.1959L369.593 13.3914L369.109 13.7913C368.506 14.3094 367.93 14.8581 367.383 15.4353C367.107 15.7241 366.841 16.0174 366.583 16.3239C366.45 16.4839 366.313 16.6438 366.184 16.8082C366.131 16.8704 366.077 16.9371 366.029 17.0037C365.771 17.3237 366.175 16.8038 365.926 17.1326C365.741 17.4299 365.45 17.6449 365.111 17.7334C364.772 17.8218 364.413 17.7769 364.106 17.608C363.56 17.257 363.174 16.3773 363.627 15.7863C365.754 12.946 368.464 10.5934 371.573 8.88604C371.876 8.7371 372.224 8.7088 372.547 8.80687C372.87 8.90495 373.144 9.12208 373.313 9.41437C373.482 9.70667 373.534 10.0523 373.458 10.3815C373.383 10.7107 373.185 10.9988 372.905 11.1876L372.918 11.1965Z" fill="white"/>
<path d="M362.767 22.4866L361.879 23.9129C361.698 24.2081 361.415 24.4263 361.084 24.5261C360.91 24.5726 360.726 24.5726 360.551 24.5261C360.375 24.5187 360.204 24.4651 360.054 24.3705C359.756 24.1917 359.537 23.9057 359.442 23.5708L359.397 23.2198C359.397 22.9824 359.46 22.7493 359.579 22.5444L360.467 21.1226C360.648 20.8257 360.933 20.607 361.266 20.5094C361.437 20.4521 361.619 20.4428 361.794 20.4828C361.971 20.491 362.143 20.5462 362.292 20.6427C362.59 20.8195 362.809 21.1042 362.904 21.438L362.953 21.7935C362.952 22.0292 362.889 22.2604 362.771 22.4644L362.767 22.4866Z" fill="white"/>
<path d="M347.699 192.741C338.595 192.741 331.216 191.513 331.216 189.999C331.216 188.485 338.595 187.258 347.699 187.258C356.802 187.258 364.182 188.485 364.182 189.999C364.182 191.513 356.802 192.741 347.699 192.741Z" fill="#EA754B"/>
<path d="M364.182 185.321V189.999H350.931H331.216V185.321H349.488" fill="#EA754B"/>
<path d="M347.699 188.062C338.595 188.062 331.216 186.835 331.216 185.321C331.216 183.806 338.595 182.579 347.699 182.579C356.802 182.579 364.182 183.806 364.182 185.321C364.182 186.835 356.802 188.062 347.699 188.062Z" fill="#FF9271"/>
<path opacity="0.49" d="M347.619 187.427C354.677 187.427 362.18 186.689 362.18 185.321C362.18 183.952 354.677 183.214 347.619 183.214C340.561 183.214 333.058 183.952 333.058 185.321C333.058 186.689 340.561 187.427 347.619 187.427ZM347.619 183.548C356.435 183.548 361.847 184.579 361.847 185.325C361.847 186.071 356.435 187.102 347.619 187.102C338.803 187.102 333.391 186.071 333.391 185.325C333.391 184.579 338.803 183.548 347.619 183.548Z" fill="#C9522D"/>
<path opacity="0.55" d="M332.704 191.137L332.997 193.358C335.736 194.247 341.285 194.847 347.687 194.847C354.155 194.847 359.753 194.229 362.461 193.332L362.74 191.11C360.152 192.061 354.386 192.723 347.687 192.723C340.988 192.723 335.323 192.079 332.704 191.137Z" fill="#C6221E"/>
<path d="M344.357 170.507C343.906 169.074 343.337 167.682 342.656 166.344C341.947 164.95 341.131 163.613 340.215 162.345C340.037 162.04 339.988 161.676 340.078 161.335C340.168 160.993 340.39 160.701 340.694 160.523C341.002 160.354 341.362 160.309 341.701 160.397C342.04 160.486 342.333 160.701 342.519 160.999C344.435 163.69 345.921 166.664 346.923 169.814C347.017 170.154 346.972 170.518 346.798 170.826C346.624 171.133 346.335 171.359 345.995 171.453C345.654 171.539 345.294 171.49 344.989 171.316C344.683 171.142 344.457 170.857 344.357 170.52V170.507Z" fill="white"/>
<path d="M336.406 158.34C335.56 157.242 335.551 155.83 336.386 155.186C337.221 154.541 338.583 154.909 339.429 156.007C340.275 157.105 340.284 158.517 339.449 159.161C338.615 159.806 337.252 159.438 336.406 158.34Z" fill="white"/>
<path d="M336.748 217.676C337.001 218.28 337.309 218.86 337.667 219.409C342.445 221.02 347.452 221.848 352.494 221.861C352.671 221.861 352.84 221.791 352.965 221.666C353.09 221.541 353.16 221.372 353.16 221.195C353.16 221.018 353.09 220.849 352.965 220.724C352.84 220.599 352.671 220.528 352.494 220.528C347.118 220.519 341.786 219.553 336.748 217.676Z" fill="#F9895D"/>
<path d="M335.736 213.739C335.798 214.255 335.883 214.757 335.985 215.241C339.093 216.317 342.341 216.933 345.627 217.072C346.483 217.107 346.479 215.774 345.627 215.739C342.246 215.591 338.909 214.917 335.736 213.739Z" fill="#F9895D"/>
<path d="M335.581 211.633C338.263 212.584 341.095 213.035 343.94 212.966C344.797 212.944 344.801 211.611 343.94 211.633C341.125 211.708 338.323 211.244 335.683 210.265C335.601 210.716 335.567 211.175 335.581 211.633Z" fill="#F9895D"/>
<path d="M336.433 208.15C338.676 208.967 341.093 209.188 343.447 208.789C344.29 208.647 343.931 207.363 343.092 207.501C341.114 207.826 339.086 207.654 337.192 206.999C336.904 207.358 336.65 207.744 336.433 208.15Z" fill="#F9895D"/>
<path d="M371.059 81.4211C370.087 81.2967 368.769 81.0745 368.089 80.288C367.268 79.3417 368.192 78.3508 368.711 77.5288C369.97 75.5229 370.822 73.2884 371.219 70.9529C371.321 70.3797 372.196 70.6197 372.107 71.1928C371.776 73.0948 371.156 74.9348 370.269 76.6491C369.825 77.4888 369.235 78.2353 368.795 79.0617C368.249 80.0926 370.416 80.4302 371.068 80.5102C371.641 80.5813 371.645 81.4922 371.068 81.4211H371.059Z" fill="#EA754B"/>
<path d="M379.071 72.4607C377.575 72.3395 376.503 70.5162 376.675 68.3882C376.847 66.2603 378.199 64.6335 379.694 64.7548C381.19 64.876 382.263 66.6993 382.091 68.8272C381.918 70.9552 380.566 72.5819 379.071 72.4607Z" fill="#021B28"/>
<path d="M365.536 71.3663C364.04 71.2451 362.967 69.4218 363.14 67.2938C363.312 65.1659 364.664 63.5391 366.159 63.6604C367.655 63.7816 368.728 65.6049 368.555 67.7328C368.383 69.8608 367.031 71.4875 365.536 71.3663Z" fill="#021B28"/>
<path d="M357.032 61.8622C358.711 60.3752 360.76 59.3676 362.962 58.9447C365.164 58.5218 367.44 58.6992 369.55 59.4584L369.994 58.201C367.659 57.3643 365.142 57.1703 362.707 57.6392C360.271 58.1081 358.006 59.2228 356.148 60.8669L357.032 61.8622Z" fill="#021B28"/>
<path d="M390.339 64.2304L391.352 63.3684C389.748 61.4757 387.666 60.0487 385.324 59.2366C382.981 58.4245 380.463 58.2571 378.034 58.7519L378.3 60.0582C380.496 59.61 382.772 59.7607 384.89 60.4947C387.008 61.2287 388.89 62.5189 390.339 64.2304Z" fill="#021B28"/>
<path d="M364.938 65.0035C364.522 65.1395 364.084 65.1896 363.649 65.1507C363.214 65.1117 362.791 64.9845 362.407 64.7769C361.888 64.519 361.422 64.1647 361.035 63.7327C360.992 63.9846 361.046 64.2434 361.186 64.457C361.882 65.7912 363.013 66.8466 364.391 67.4472" fill="#021B28"/>
<path d="M366.402 64.6747C365.966 64.6855 365.532 64.6071 365.126 64.4444C364.721 64.2817 364.353 64.038 364.045 63.7283C363.621 63.3322 363.276 62.8586 363.029 62.3331C362.914 62.562 362.892 62.8259 362.966 63.0707C363.251 64.5498 364.035 65.8861 365.186 66.8563" fill="#021B28"/>
<path d="M381.452 66.1098C381.853 66.2824 382.285 66.3715 382.721 66.3715C383.158 66.3715 383.59 66.2824 383.991 66.1098C384.531 65.9099 385.029 65.6083 385.456 65.2212C385.476 65.4759 385.398 65.7286 385.238 65.9277C384.421 67.1849 383.199 68.1253 381.776 68.5936" fill="#021B28"/>
<path d="M380.025 65.6478C380.459 65.6975 380.898 65.6586 381.316 65.5333C381.734 65.4081 382.123 65.1991 382.458 64.9191C382.915 64.5621 383.301 64.1219 383.594 63.6217C383.69 63.8597 383.69 64.1256 383.594 64.3637C383.174 65.8031 382.277 67.0566 381.051 67.9182" fill="#021B28"/>
<path d="M364.129 82.1231C363.734 85.8243 366.601 89.9209 370.535 90.343C374.468 90.7651 377.979 87.3483 378.374 83.6427C378.374 83.5538 378.374 83.4605 378.396 83.3672C376.07 84.2418 373.572 84.5598 371.1 84.296C368.629 84.0321 366.254 83.1937 364.164 81.8476C364.151 81.9365 364.138 82.0298 364.129 82.1231Z" fill="white"/>
<path d="M358.039 185.321V180.842L353.151 181.73V185.765L358.039 185.321Z" fill="#FF9271"/>
<path d="M302.078 169.094C301.368 168.992 300.658 168.881 299.952 168.761C299.782 168.714 299.637 168.602 299.55 168.448C299.463 168.295 299.439 168.114 299.486 167.943C299.508 167.86 299.546 167.781 299.599 167.712C299.651 167.644 299.717 167.586 299.792 167.543C299.949 167.462 300.13 167.438 300.303 167.477C301.013 167.597 301.719 167.708 302.433 167.81C302.599 167.861 302.739 167.976 302.822 168.128C302.904 168.281 302.924 168.46 302.877 168.627C302.856 168.711 302.817 168.79 302.765 168.858C302.712 168.927 302.646 168.985 302.571 169.027C302.413 169.107 302.233 169.131 302.061 169.094H302.078Z" fill="#CCB0B4"/>
<path d="M313.026 170.218C310.72 170.061 308.421 169.858 306.127 169.609C305.952 169.605 305.785 169.533 305.661 169.409C305.537 169.285 305.466 169.118 305.461 168.943C305.462 168.767 305.533 168.598 305.657 168.473C305.782 168.348 305.951 168.278 306.127 168.276C308.421 168.531 310.72 168.734 313.026 168.885C313.201 168.89 313.367 168.961 313.491 169.085C313.615 169.209 313.687 169.376 313.691 169.552C313.691 169.728 313.621 169.898 313.496 170.023C313.371 170.148 313.202 170.218 313.026 170.218Z" fill="#CCB0B4"/>
<path d="M334.972 169.929C332.406 170.353 329.809 170.572 327.208 170.583C323.71 170.671 320.207 170.582 316.713 170.431C315.857 170.391 315.852 169.058 316.713 169.098C320.145 169.258 323.585 169.334 327.021 169.254C329.565 169.254 332.105 169.05 334.617 168.645C335.456 168.49 335.816 169.774 334.972 169.929Z" fill="#CCB0B4"/>
<path d="M388.069 267.315C388.673 267.315 389.262 267.136 389.764 266.801C390.265 266.465 390.656 265.989 390.887 265.431C391.118 264.873 391.178 264.259 391.061 263.667C390.943 263.075 390.652 262.531 390.226 262.104C389.799 261.677 389.256 261.387 388.664 261.269C388.073 261.151 387.46 261.211 386.902 261.443C386.345 261.674 385.869 262.065 385.534 262.567C385.198 263.069 385.02 263.659 385.02 264.263C385.021 265.072 385.342 265.848 385.914 266.42C386.486 266.992 387.261 267.314 388.069 267.315ZM388.069 262.099C388.497 262.099 388.915 262.226 389.27 262.463C389.626 262.701 389.903 263.039 390.067 263.435C390.23 263.83 390.273 264.265 390.19 264.685C390.106 265.105 389.9 265.49 389.598 265.793C389.296 266.095 388.911 266.301 388.491 266.385C388.072 266.468 387.637 266.426 387.242 266.262C386.847 266.098 386.509 265.821 386.272 265.465C386.034 265.109 385.907 264.691 385.907 264.263C385.907 263.689 386.135 263.138 386.541 262.733C386.946 262.327 387.496 262.099 388.069 262.099Z" fill="#1E6882"/>
<defs>
<linearGradient id="paint0_linear_136_562" x1="156.839" y1="24.6105" x2="156.839" y2="216.125" gradientUnits="userSpaceOnUse">
<stop stop-color="#F7FAFC" stop-opacity="0.5"/>
<stop offset="0.16" stop-color="#ECF3FD" stop-opacity="0.61"/>
<stop offset="0.42" stop-color="#DCE9FE" stop-opacity="0.78"/>
<stop offset="0.66" stop-color="#D1E1FE" stop-opacity="0.9"/>
<stop offset="0.86" stop-color="#CADDFF" stop-opacity="0.97"/>
<stop offset="0.99" stop-color="#C7DBFF"/>
</linearGradient>
</defs>
</svg>
