<svg width="521" height="442" viewBox="0 0 521 442" fill="none" xmlns="http://www.w3.org/2000/svg">
<path d="M512.343 382.824L483.393 239.114L474.268 240.566L499.761 382.548L512.343 382.824Z" fill="#E0F3FC"/>
<path d="M485.899 248.844L482.909 235.692L473.784 237.144L476.152 248.844H485.899Z" fill="#86C0D1"/>
<path d="M496.701 331.061L494.731 322.851" stroke="#232144" stroke-width="0.5" stroke-linecap="round" stroke-linejoin="round"/>
<path d="M499.363 333.498L497.393 325.288" stroke="#232144" stroke-width="0.5" stroke-linecap="round" stroke-linejoin="round"/>
<path d="M509.008 371.901L503.391 343.851" stroke="white" stroke-linecap="round" stroke-linejoin="round"/>
<path d="M490.41 273.508L483.393 239.114L474.268 240.566L499.761 382.548L512.343 382.824L492.156 282.08" stroke="#232144" stroke-width="1.21" stroke-linecap="round" stroke-linejoin="round"/>
<path d="M186.277 87.9373L195.541 91.6013L241.67 129.279C242.271 129.772 242.966 130.14 243.712 130.361C244.458 130.582 245.241 130.65 246.015 130.563C246.788 130.476 247.536 130.235 248.215 129.854C248.893 129.473 249.489 128.96 249.966 128.346L267.767 105.48C274.352 105.238 285.344 110.976 285.344 110.976L277.895 115.245L286.07 117.682L284.601 120.499L272.503 120.119L272.14 135.259L257.207 153.614C254.913 156.393 251.645 158.19 248.069 158.64C244.494 159.09 240.882 158.157 237.971 156.033L197.131 125.96" fill="#8F46B7"/>
<path d="M306.844 120.205H352.68V214.209H272.399V120.205H290.788" fill="#F0E0C9"/>
<path d="M307.917 127.775H345.11V193.659H279.97V127.775H294.885" fill="#E0F3FC"/>
<path d="M310.353 192.916H325.113L302.42 128.138H287.66L310.353 192.916Z" fill="#ACD9EA"/>
<path d="M329.503 192.916L334.619 192.795L311.926 128.017L306.81 128.138L329.503 192.916Z" fill="#ACD9EA"/>
<path d="M338.525 192.916L343.658 192.795L320.965 128.017L315.832 128.138L338.525 192.916Z" fill="#ACD9EA"/>
<path d="M314.397 120.879H343.71C345.476 120.879 346.907 122.311 346.907 124.077C346.907 125.842 345.476 127.274 343.71 127.274H314.397C312.632 127.274 311.2 125.842 311.2 124.077C311.2 122.311 312.632 120.879 314.397 120.879Z" fill="white"/>
<path d="M284.152 200.002C282.386 200.002 280.954 198.57 280.954 196.805C280.954 195.039 282.386 193.607 284.152 193.607H313.464C315.23 193.607 316.661 195.039 316.661 196.805C316.661 198.57 315.23 200.002 313.464 200.002H284.152Z" fill="#DBBA8F"/>
<path d="M315.123 213.656C313.357 213.656 311.926 212.224 311.926 210.458C311.926 208.692 313.357 207.261 315.123 207.261H344.436C346.201 207.261 347.633 208.692 347.633 210.458C347.633 212.224 346.201 213.656 344.436 213.656H315.123Z" fill="#DBBA8F"/>
<path d="M272.4 171.606V120.205H280.42" stroke="#232144" stroke-linecap="round" stroke-linejoin="round"/>
<path d="M272.399 191.032V177.24" stroke="#232144" stroke-linecap="round" stroke-linejoin="round"/>
<path d="M285.984 214.209H274.284C274.036 214.216 273.79 214.174 273.559 214.085C273.327 213.997 273.116 213.864 272.936 213.694C272.756 213.524 272.612 213.32 272.511 213.094C272.41 212.868 272.355 212.624 272.348 212.377V197.513" stroke="#232144" stroke-linecap="round" stroke-linejoin="round"/>
<path d="M305.185 120.205H352.68V212.377C352.68 212.872 352.483 213.347 352.133 213.697C351.783 214.047 351.308 214.243 350.813 214.243H290.702" stroke="#232144" stroke-linecap="round" stroke-linejoin="round"/>
<path d="M344.142 171.778V191.775H327.221" stroke="#79B9CC" stroke-width="3" stroke-linecap="round" stroke-linejoin="round"/>
<path d="M307.831 127.775H346.096V193.659H280.212V127.775" stroke="#232144" stroke-linecap="round" stroke-linejoin="round"/>
<path d="M341.723 199.466L346.7 206.293" stroke="#4C4047" stroke-width="0.5" stroke-linecap="round" stroke-linejoin="round"/>
<path d="M338.335 198.239L343.312 205.066" stroke="#4C4047" stroke-width="0.5" stroke-linecap="round" stroke-linejoin="round"/>
<path d="M377.723 382.064L409.317 239.097L418.218 240.497L391.118 382.513L377.723 382.064Z" fill="#E0F3FC"/>
<path d="M407.415 248.274L410.042 235.433L418.943 236.833L416.524 248.274H407.415Z" fill="#86C0D1"/>
<path d="M377.239 382.392L409.317 239.097L418.218 240.497L391.118 382.513L377.239 382.392Z" stroke="#232144" stroke-width="1.19" stroke-linecap="round" stroke-linejoin="round"/>
<path d="M406.016 278.261L407.779 269.999" stroke="#232144" stroke-width="0.5" stroke-linecap="round" stroke-linejoin="round"/>
<path d="M407.382 281.596L409.145 273.335" stroke="#232144" stroke-width="0.5" stroke-linecap="round" stroke-linejoin="round"/>
<path d="M438.129 367.719L439.339 238.578L448.344 238.163L448.862 367.719H438.129Z" fill="#E0F3FC"/>
<path d="M439.045 248.274L439.01 235.156L448.015 234.741L447.963 248.274H439.045Z" fill="#86C0D1"/>
<path d="M437.8 368.704L439.01 239.546L448.015 239.131L448.533 368.704H437.8Z" stroke="#232144" stroke-width="1.19" stroke-linecap="round" stroke-linejoin="round"/>
<path d="M442.501 364.832L442.553 356.381" stroke="#232144" stroke-width="0.5" stroke-linecap="round" stroke-linejoin="round"/>
<path d="M444.507 367.822L444.559 359.371" stroke="#232144" stroke-width="0.5" stroke-linecap="round" stroke-linejoin="round"/>
<path d="M283.634 111.909C286.963 110.631 290.633 110.549 294.015 111.678C297.398 112.806 300.284 115.075 302.179 118.097L304.287 125.494C304.287 133.531 299.551 140.046 293.71 140.046C287.868 140.046 283.15 133.531 283.15 125.494L286.606 117.44C286.606 117.44 271.483 115.245 268.061 105.48" fill="#FFB999"/>
<path d="M69.3902 119.756L78.0664 110.734L73.5555 108.66L60.9733 111.702L69.3902 119.756Z" fill="#52197F"/>
<path d="M273.989 112.808L268.476 106.517L273.384 105.791L285.206 111.581L277.895 115.124L273.989 112.808Z" fill="#52197F"/>
<path d="M58.4154 121.104C72.8124 118.425 76.4765 109.144 76.4765 109.144L94.7794 137.696L144.313 98.4109L151.227 126.462L90.2339 168.443L82.1799 167.216" fill="#8F46B7"/>
<path d="M46.904 124.768H1.0861V218.754H81.3496V124.768H62.9775" fill="#F0E0C9"/>
<path d="M45.3479 132.2H8.15435V198.084H73.2949V132.2H58.3795" fill="#84ECFF"/>
<path d="M134.564 414.055V431.2C134.564 431.2 115.553 441.121 95.6253 441.38C95.0121 441.377 94.3999 441.331 93.7932 441.242L86.0158 439.98C85.3213 439.862 84.6908 439.502 84.2355 438.965C83.7801 438.427 83.5292 437.746 83.527 437.042C83.5236 434.912 83.9402 432.802 84.7527 430.833C85.5653 428.863 86.758 427.074 88.2626 425.566C93.1538 420.657 104.855 412.033 114.326 409.682" fill="#2E4C64"/>
<path d="M84.0807 435.417C84.0548 435.884 84.0548 436.351 84.0807 436.817C84.0836 437.52 84.3351 438.198 84.7907 438.733C85.2462 439.268 85.8764 439.624 86.5695 439.738L94.3469 441C94.9536 441.089 95.5658 441.135 96.179 441.138C116.124 440.896 135.118 430.958 135.118 430.958L134.185 425.773C122.847 432.98 93.7247 440.084 84.0634 435.365" fill="#1C3244"/>
<path d="M134.514 413.934V430.025C134.525 430.384 134.431 430.739 134.244 431.046C134.057 431.353 133.784 431.599 133.459 431.753C127.949 434.375 122.225 436.52 116.349 438.165C106.481 440.91 96.1451 441.54 86.0169 440.015C85.3114 439.911 84.6667 439.557 84.2003 439.018C83.7339 438.479 83.477 437.789 83.4763 437.076C83.4729 434.946 83.8894 432.836 84.702 430.867C85.5146 428.898 86.7073 427.108 88.2119 425.6C95.6963 418.546 104.574 413.135 114.275 409.717" stroke="#232144" stroke-linecap="round" stroke-linejoin="round"/>
<path d="M188.04 415.87V434.311L192.291 435.763C198.63 437.924 205.28 439.027 211.977 439.03C218.113 439.03 229.381 438.113 235.24 436.299L236.969 435.728C237.37 435.604 237.735 435.382 238.031 435.083C238.327 434.783 238.544 434.416 238.664 434.012C238.784 433.609 238.802 433.182 238.717 432.77C238.632 432.358 238.447 431.973 238.178 431.65C233.737 426.344 218.32 415.593 206.533 413.658" fill="#2E4C64"/>
<path d="M191.963 427.363L188.039 426.015L187.884 434.156L192.135 435.607C198.485 437.772 205.147 438.875 211.856 438.874C217.991 438.874 229.26 437.958 235.119 436.143L236.847 435.59C237.246 435.465 237.609 435.245 237.904 434.948C238.199 434.651 238.417 434.287 238.539 433.887C238.662 433.487 238.685 433.063 238.607 432.652C238.529 432.242 238.352 431.856 238.092 431.529L237.037 430.301C236.879 430.41 236.704 430.492 236.519 430.543L234.791 431.096L231.196 431.321C220.186 432.012 203.974 430.803 193.38 427.761L191.963 427.363Z" fill="#1C3244"/>
<path d="M188.523 415.87V434.311L192.792 435.763C199.13 437.926 205.781 439.03 212.478 439.03C218.596 439.03 229.882 438.113 235.724 436.299L237.452 435.728C237.855 435.605 238.222 435.384 238.518 435.084C238.814 434.785 239.032 434.416 239.15 434.011C239.268 433.606 239.284 433.179 239.196 432.766C239.107 432.354 238.918 431.97 238.644 431.65C234.203 426.344 218.786 415.593 206.999 413.658" stroke="#232144" stroke-linecap="round" stroke-linejoin="round"/>
<path d="M203.214 409.285C207.69 410.097 210.888 412.189 210.888 414.643C210.888 417.771 205.703 420.329 199.17 420.329C192.637 420.329 187.469 417.771 187.469 414.643C187.469 412.673 189.508 410.944 192.654 409.924" fill="#2E4C64"/>
<path d="M203.63 409.285C208.106 410.097 211.304 412.189 211.304 414.643C211.304 417.771 206.119 420.329 199.586 420.329C193.053 420.329 187.885 417.771 187.885 414.643C187.885 412.673 189.924 410.944 193.07 409.924" stroke="#232144" stroke-linecap="round" stroke-linejoin="round"/>
<path d="M119.148 405.707C114.412 406.52 111.042 408.611 111.042 411.048C111.042 414.193 116.59 416.751 123.416 416.751C130.243 416.751 135.809 414.193 135.809 411.134C135.809 409.181 133.648 407.453 130.347 406.416" fill="#2E4C64"/>
<path d="M128.724 404.307V411.566C125.714 412.69 122.4 412.69 119.391 411.566V402.493" fill="#FFB999"/>
<path d="M128.724 398.829V406.088C125.714 407.211 122.4 407.211 119.391 406.088V396.945" fill="#F57A59"/>
<path d="M195.351 404.083V413.848C198.36 414.971 201.674 414.971 204.684 413.848V404.083" fill="#FFB999"/>
<path d="M195.351 397.74V407.505C198.36 408.628 201.674 408.628 204.684 407.505V397.74" fill="#F57A59"/>
<path d="M132.352 226.739V272.142L112.822 398.742L113.081 398.915C116.328 401.143 119.996 402.684 123.859 403.445C127.723 404.206 131.701 404.17 135.55 403.34L176.425 275.253L180.175 257.313L172.83 286.695L186.553 402.907L188.108 403.219C195.039 404.611 202.187 404.505 209.073 402.907L218.561 250.815C219.054 242.578 219.054 234.319 218.561 226.082" fill="#398AE2"/>
<path d="M114.205 398.742L114.464 398.915C117.706 401.154 121.373 402.702 125.239 403.463C129.104 404.224 133.084 404.182 136.933 403.34V403.253C128.498 375.6 127.98 330.663 128.654 302.44L114.205 398.742Z" fill="#0268C4"/>
<path d="M132.906 239.874C161.731 243.823 191.04 242.346 219.322 235.519C219.322 234.378 219.322 233.238 219.322 232.062C219.322 228.744 219.201 225.443 219.011 222.142H217.49C217.224 222.301 216.947 222.439 216.661 222.557C209.834 225.339 194.192 229.608 161.994 229.608L163.515 222.557L133.113 222.781L133.01 232.045L132.906 239.874Z" fill="#066DC9"/>
<path d="M190.546 100.744L220.048 219.688C220.409 221.063 220.258 222.523 219.622 223.795C218.986 225.067 217.909 226.064 216.592 226.601C209.765 229.383 194.123 233.652 161.925 233.652L151.555 200.607L161.735 158.246L155.858 94.1592L160.404 87.6434L175.371 77.8784L183.183 82.1128L191.635 96.4233L190.546 100.744Z" fill="white"/>
<path d="M196.923 125.822L220.066 219.653L231.248 220.586L208.486 145.11L207.881 133.686L196.923 125.822Z" fill="#702D9B"/>
<path d="M213.705 188.992L219.823 214.191" stroke="#52197F" stroke-width="2" stroke-linecap="round" stroke-linejoin="round"/>
<path d="M205.789 156.362L212.34 183.341" stroke="#52197F" stroke-width="2" stroke-linecap="round" stroke-linejoin="round"/>
<path d="M196.923 27.6533C192.341 27.6533 188.627 23.939 188.627 19.3573C188.627 14.7756 192.341 11.0613 196.923 11.0613C201.505 11.0613 205.219 14.7756 205.219 19.3573C205.219 23.939 201.505 27.6533 196.923 27.6533Z" fill="#FC7F1A"/>
<path d="M196.923 27.6533C192.341 27.6533 188.627 23.939 188.627 19.3573C188.627 14.7756 192.341 11.0613 196.923 11.0613C201.505 11.0613 205.219 14.7756 205.219 19.3573C205.219 23.939 201.505 27.6533 196.923 27.6533Z" stroke="#232144" stroke-width="0.8" stroke-linecap="round" stroke-linejoin="round"/>
<path d="M160.835 231.043C159.107 215.298 154.786 199.293 159.107 183.652C161.187 177.208 162.856 170.639 164.102 163.984C164.654 160.467 164.724 156.89 164.309 153.354C164.097 151.693 163.726 150.055 163.203 148.463C162.797 147.494 162.49 146.487 162.287 145.456C162.149 143.935 162.287 142.31 162.287 140.789V130.42V103.976V87.1595C162.287 86.4719 162.56 85.8125 163.046 85.3263C163.532 84.8402 164.192 84.567 164.879 84.567C165.567 84.567 166.226 84.8402 166.713 85.3263C167.199 85.8125 167.472 86.4719 167.472 87.1595V127.239V138.543C167.342 140.655 167.342 142.773 167.472 144.886C167.745 145.934 168.091 146.962 168.509 147.962C169.434 151.426 169.848 155.007 169.736 158.591C169.323 165.646 167.998 172.617 165.795 179.331C164.828 182.632 163.791 185.933 163.065 189.304C162.348 193.061 162.086 196.891 162.287 200.711C162.604 205.703 163.181 210.676 164.015 215.609C164.724 220.794 165.45 225.979 166.037 231.164C166.4 234.482 161.215 234.447 160.852 231.164L160.835 231.043Z" fill="#DCE9FF"/>
<path d="M69.5283 116.593C68.9061 116.092 63.5483 110.492 63.5483 110.492H57.7066C56.4203 110.491 55.1523 110.796 54.0072 111.382C52.8622 111.968 51.8731 112.818 51.1217 113.862C50.1538 115.226 49.6344 116.857 49.6353 118.529V130.852L53.6968 138.059C54.2433 139.005 55.0294 139.791 55.976 140.337C56.9226 140.883 57.9964 141.17 59.0892 141.17C60.2419 141.173 61.3728 140.856 62.3558 140.254L63.0471 139.822C63.9337 139.275 64.6679 138.513 65.1816 137.606C65.6952 136.7 65.9716 135.678 65.9853 134.637V124.612H63.3582C62.501 124.612 61.679 124.272 61.0729 123.666C60.4668 123.06 60.1262 122.238 60.1262 121.38" fill="#FFB999"/>
<path d="M136.899 135.985L135.931 139.977C128.792 168.902 118.649 197.002 105.668 223.818C105.668 223.818 109.574 230.732 130.072 240.099C150.57 249.467 166.505 243.677 166.505 243.677C160.369 236.037 157.673 216.023 156.532 202.94C155.892 195.459 156.81 187.926 159.229 180.817L162.046 172.625C164.964 164.035 165.384 154.793 163.256 145.974V73.5229L144.555 88.4038L139.923 95.9739" fill="#8F46B7"/>
<path opacity="0.69" d="M105.996 224.147C107.238 225.915 108.762 227.468 110.507 228.744C116.631 233.438 123.313 237.357 130.4 240.41C150.898 249.847 166.833 243.988 166.833 243.988C140.528 236.712 125.854 214.036 118.215 196.459C114.47 205.815 110.397 215.044 105.996 224.147Z" fill="#52197F"/>
<path d="M194.954 117.803L197.131 125.425L237.989 155.446C240.898 157.574 244.512 158.509 248.088 158.059C251.665 157.609 254.934 155.808 257.225 153.026L260.475 149.068C257.758 151.557 254.27 153.039 250.593 153.265C246.915 153.492 243.272 152.449 240.27 150.312L194.954 117.803Z" fill="#52197F"/>
<path d="M184.687 79.3474L195.541 72.7798V91.584L187.124 88.8878L183.097 82.7868" fill="#702D9B"/>
<path d="M169.996 73.6958V81.1276C169.987 82.2206 170.295 83.2928 170.885 84.2134C171.474 85.134 172.318 85.8634 173.315 86.3126C174.443 86.8164 175.665 87.0768 176.901 87.0768C178.137 87.0768 179.359 86.8164 180.487 86.3126C181.484 85.8634 182.328 85.134 182.917 84.2134C183.506 83.2928 183.815 82.2206 183.805 81.1276V72.9181" fill="#FFB999"/>
<path d="M169.996 64.553V71.9848C169.982 73.0787 170.289 74.1527 170.879 75.0742C171.468 75.9956 172.315 76.7241 173.314 77.1698C174.44 77.6833 175.663 77.949 176.901 77.949C178.138 77.949 179.361 77.6833 180.487 77.1698C181.486 76.7241 182.333 75.9956 182.922 75.0742C183.512 74.1527 183.819 73.0787 183.805 71.9848V63.7407" fill="#F57A59"/>
<path d="M157.501 24.2311V53.6126C157.505 58.9605 159.632 64.0881 163.413 67.8696C167.195 71.6512 172.322 73.7776 177.67 73.7822C183.02 73.7822 188.15 71.6572 191.932 67.8747C195.715 64.0922 197.84 58.9619 197.84 53.6126V28.8976C197.84 27.7396 197.045 23.8682 196.872 22.762" fill="#FFB999"/>
<path d="M177.116 72.9872H178.222C183.564 72.9827 188.686 70.861 192.467 67.0869C196.247 63.3128 198.378 58.1941 198.392 52.8522V28.189C198.392 27.0483 197.597 23.1596 197.406 22.0707H195.229C195.436 23.246 196.197 26.9792 196.197 28.1026V52.8522C196.196 58.0009 194.227 62.9544 190.692 66.698C187.158 70.4415 182.325 72.6916 177.185 72.9872H177.116Z" fill="white"/>
<path d="M157.621 23.8682V53.2498C157.621 64.3975 164.085 71.6392 175.078 73.3502C176.153 73.6064 177.256 73.7283 178.361 73.7132C168.579 72.3305 166.816 63.4296 166.816 53.2498V23.8682L197.027 22.6066C197.027 22.6066 197.027 22.451 197.027 22.3992L157.621 23.8682Z" fill="#F57A59"/>
<path d="M157.501 39.0084V53.5609C157.505 58.9088 159.632 64.0363 163.413 67.8178C167.195 71.5994 172.322 73.7259 177.67 73.7304C183.019 73.7304 188.15 71.6054 191.932 67.8229C195.715 64.0404 197.84 58.9102 197.84 53.5609V28.8976C197.844 27.7684 197.752 26.6408 197.563 25.5274" stroke="#232144" stroke-width="0.8" stroke-linecap="round" stroke-linejoin="round"/>
<path d="M189.129 54.5287V56.9656H185.551" stroke="#F57A59" stroke-width="0.77" stroke-linecap="round" stroke-linejoin="round"/>
<path d="M189.129 62.1678H188.818C185.821 62.165 182.874 61.3913 180.263 59.921" stroke="#F57A59" stroke-width="0.77" stroke-linecap="round" stroke-linejoin="round"/>
<path d="M196.336 34.6875H189.786" stroke="#232144" stroke-width="2" stroke-linecap="round" stroke-linejoin="round"/>
<path d="M183.528 34.6875H176.978" stroke="#232144" stroke-width="2" stroke-linecap="round" stroke-linejoin="round"/>
<path d="M169.996 72.486V81.1277C169.987 82.2206 170.295 83.2928 170.885 84.2134C171.474 85.134 172.318 85.8634 173.315 86.3126C174.443 86.8164 175.665 87.0768 176.901 87.0768C178.137 87.0768 179.359 86.8164 180.487 86.3126C181.484 85.8634 182.328 85.134 182.917 84.2134C183.506 83.2928 183.815 82.2206 183.805 81.1277V72.9181" stroke="#232144" stroke-width="0.8" stroke-linecap="round" stroke-linejoin="round"/>
<path d="M168.994 39.1984C170.032 38.1568 170.617 36.7462 170.618 35.2751C170.617 33.804 170.032 32.3935 168.994 31.3518L168.371 30.7469V29.6581C168.371 29.0713 168.604 28.5086 169.019 28.0938C169.434 27.6789 169.997 27.4458 170.584 27.4458C172.458 27.4774 174.288 26.8676 175.769 25.7175C176.84 24.8757 178.101 24.3094 179.442 24.0684C180.783 23.8273 182.162 23.9188 183.46 24.3348L188.766 26.0631C189.877 26.4376 191.057 26.5615 192.222 26.4261C200.639 25.4755 200.674 18.1993 200.674 14.3278C200.674 10.1798 198.945 4.26894 190.753 4.07883C184.41 3.92328 182.112 6.9997 182.112 6.9997L185.015 4.97756C183.527 3.47668 181.743 2.30204 179.776 1.52839C177.809 0.754742 175.703 0.399035 173.591 0.483909C171.471 0.391738 169.354 0.743882 167.378 1.51774C165.402 2.2916 163.609 3.47008 162.115 4.97756C161.238 5.83971 160.498 6.83047 159.92 7.91571L166.142 7.79473L160.663 8.55519C160.663 8.55519 150.293 10.4736 149.308 24.1101C148.323 37.7466 159.678 41.186 159.678 41.186" fill="#FFA350"/>
<path d="M156.394 39.2676C157.55 40.1185 158.826 40.794 160.179 41.2724L165.589 40.0799V35.5862C163.311 32.2379 162.3 28.1879 162.737 24.162V23.6435C163.774 11.9427 171.725 8.5552 173.539 7.933H173.297C173.898 6.83858 174.661 5.842 175.561 4.97756C176.948 3.5124 178.65 2.38331 180.539 1.67646C178.489 0.860379 176.299 0.449524 174.092 0.466631C171.97 0.373465 169.852 0.726838 167.876 1.50389C165.899 2.28094 164.107 3.46435 162.616 4.97756C161.862 5.87059 161.218 6.85129 160.698 7.89843L160.162 8.83173C160.387 8.83173 160.369 8.83173 160.369 8.83173L166.643 7.74289L160.214 8.71075C158.382 9.33295 150.674 11.96 149.844 24.0929C149.204 32.4925 153.093 37.0035 156.394 39.2676Z" fill="#FC7F1A"/>
<path d="M169.442 81.577L163.583 86.0015" stroke="#232144" stroke-width="0.8" stroke-linecap="round" stroke-linejoin="round"/>
<path d="M76.4766 109.144C76.4766 109.144 69.4077 108.176 65.0005 110.872" stroke="#232144" stroke-linecap="round" stroke-linejoin="round"/>
<path d="M150.241 216.991C141.624 207.788 136.252 196.019 134.946 183.479" stroke="#232144" stroke-linecap="round" stroke-linejoin="round"/>
<path d="M190.546 100.744L220.048 219.688C220.409 221.063 220.258 222.523 219.622 223.795C218.986 225.067 217.909 226.064 216.592 226.601C209.765 229.383 194.123 233.652 161.925 233.652" stroke="#232144" stroke-width="0.8" stroke-linecap="round" stroke-linejoin="round"/>
<path d="M183.753 82.9597L188.627 92.3963" stroke="#232144" stroke-linecap="round" stroke-linejoin="round"/>
<path d="M220.429 219.67L231.248 221.226L208.486 145.75L207.743 133.842" stroke="#232144" stroke-width="0.75" stroke-linecap="round" stroke-linejoin="round"/>
<path d="M184.789 88.4039L192.48 96.3542L187.935 107.709L185.152 108.297L176.77 99.3788L181.039 89.1817" fill="#FFA350"/>
<path d="M184.099 107.675L177.03 185.761L191.392 209.923L202.125 185.761L187.002 104.028" fill="#FFA350"/>
<path d="M177.012 186.003L191.306 209.041L185.602 107.519H184.323L177.012 186.003Z" fill="#FF8724"/>
<path d="M195.541 91.584V72.7798L184.687 79.3474" stroke="#232144" stroke-width="0.8" stroke-linecap="round" stroke-linejoin="round"/>
<path d="M271.673 135.985L257.207 153.614C254.913 156.393 251.644 158.19 248.069 158.64C244.493 159.09 240.881 158.157 237.97 156.033L208.122 134.084L197.32 126.306" stroke="#232144" stroke-width="0.75" stroke-linecap="round" stroke-linejoin="round"/>
<path d="M211.405 235.536C211.405 235.536 210.109 246.269 224.748 253.096" stroke="#232144" stroke-linecap="round" stroke-linejoin="round"/>
<path d="M195.351 404.083V413.848C198.36 414.971 201.674 414.971 204.684 413.848V404.083" stroke="#232144" stroke-linecap="round" stroke-linejoin="round"/>
<path d="M128.724 404.307V411.566C125.714 412.69 122.4 412.69 119.391 411.566V402.493" stroke="#232144" stroke-linecap="round" stroke-linejoin="round"/>
<path d="M69.5283 116.593C68.9061 116.092 63.5483 110.492 63.5483 110.492H57.7066C56.4203 110.491 55.1523 110.796 54.0072 111.382C52.8622 111.968 51.8731 112.818 51.1217 113.862C50.1538 115.226 49.6344 116.857 49.6353 118.529V130.852L53.6968 138.059C54.2433 139.005 55.0294 139.791 55.976 140.337C56.9226 140.883 57.9964 141.17 59.0892 141.17C60.2419 141.173 61.3728 140.856 62.3558 140.254L63.0471 139.822C63.9337 139.275 64.6679 138.513 65.1816 137.606C65.6952 136.7 65.9716 135.678 65.9853 134.637V128.916" stroke="black" stroke-linecap="round" stroke-linejoin="round"/>
<path d="M192.758 41.8773H193.208C193.895 41.8773 194.452 42.4345 194.452 43.1217V46.6821C194.452 47.3693 193.895 47.9265 193.208 47.9265H192.758C192.071 47.9265 191.514 47.3693 191.514 46.6821V43.1217C191.514 42.4345 192.071 41.8773 192.758 41.8773Z" fill="black"/>
<path d="M181.541 41.8773H181.99C182.677 41.8773 183.234 42.4345 183.234 43.1217V46.6821C183.234 47.3693 182.677 47.9265 181.99 47.9265H181.541C180.853 47.9265 180.296 47.3693 180.296 46.6821V43.1217C180.296 42.4345 180.853 41.8773 181.541 41.8773Z" fill="black"/>
<path d="M190.701 16.0375C189.36 14.9493 189.456 12.6067 190.917 10.8051C192.378 9.00352 194.65 8.42522 195.992 9.51343C197.334 10.6016 197.238 12.9443 195.777 14.7459C194.316 16.5474 192.043 17.1257 190.701 16.0375Z" fill="#FFD4B0"/>
<path d="M191.762 19.3222C191.567 18.6532 192.137 17.8987 193.035 17.637C193.933 17.3752 194.819 17.7053 195.014 18.3743C195.209 19.0432 194.639 19.7978 193.741 20.0595C192.843 20.3213 191.957 19.9912 191.762 19.3222Z" fill="#FFD4B0"/>
<path d="M153.854 38.2997L153.82 42.0329L156.066 39.1466" fill="#232144"/>
<path d="M153.526 37.0899L151.815 40.4083L155.116 38.8528" fill="#232144"/>
<path d="M185.257 3.75047L185.292 0L183.045 2.88631" fill="#232144"/>
<path d="M185.568 4.94302L187.296 1.62463L183.978 3.18013" fill="#232144"/>
<path opacity="0.25" d="M194.399 50.4845C191.211 50.4845 188.627 47.9 188.627 44.7119C188.627 41.5238 191.211 38.9393 194.399 38.9393C197.587 38.9393 200.172 41.5238 200.172 44.7119C200.172 47.9 197.587 50.4845 194.399 50.4845Z" fill="white"/>
<path opacity="0.5" d="M193.76 39.1984L198.029 48.9462C198.53 48.9462 198.357 48.5833 198.807 48.445L194.469 38.7664C194.123 39.0083 194.106 38.8701 193.76 39.1984Z" fill="white"/>
<path opacity="0.5" d="M195.557 38.9564L199.411 47.408C199.895 47.408 199.723 47.045 200.172 46.9067L196.577 38.9564C196.162 39.1811 195.903 38.6108 195.557 38.9564Z" fill="white"/>
<path opacity="0.25" d="M181.628 50.4845C178.44 50.4845 175.855 47.9 175.855 44.7119C175.855 41.5238 178.44 38.9393 181.628 38.9393C184.816 38.9393 187.4 41.5238 187.4 44.7119C187.4 47.9 184.816 50.4845 181.628 50.4845Z" fill="white"/>
<path opacity="0.5" d="M180.988 39.1984L185.361 48.9462C185.845 48.9462 185.672 48.5833 186.121 48.445L181.783 38.7664C181.368 39.0083 181.334 38.8701 180.988 39.1984Z" fill="white"/>
<path opacity="0.5" d="M182.785 38.9564L186.639 47.408C187.14 47.408 186.968 47.045 187.417 46.9067L183.822 38.9564C183.39 39.1811 183.131 38.6108 182.785 38.9564Z" fill="white"/>
<path d="M192.673 28.8977C190.399 28.8506 188.147 28.4423 186.001 27.6878C184.066 26.8694 181.954 26.56 179.866 26.7891C178.259 27.3864 176.751 28.2194 175.389 29.2606C173.584 30.2379 171.547 30.7096 169.496 30.626L170.93 29.2088V30.4531L170.515 29.4507C173.073 32.1988 174.387 37.5047 171.172 40.3219C169.807 41.5317 167.716 39.5269 169.167 38.317C169.764 37.6027 170.127 36.7225 170.208 35.7952C170.288 34.8679 170.082 33.9383 169.617 33.1321C169.293 32.5248 168.917 31.9465 168.493 31.4037C168.1 30.7186 167.954 29.9195 168.079 29.1396C168.087 28.7648 168.239 28.4075 168.502 28.1408C168.766 27.8741 169.121 27.7182 169.496 27.7051C171.332 27.7836 173.146 27.2817 174.681 26.2706C176.168 25.1076 177.89 24.2819 179.727 23.8509C184.204 23.1769 188.231 26.0978 192.655 25.9768C193.006 26.0155 193.331 26.1824 193.567 26.4455C193.802 26.7086 193.933 27.0494 193.933 27.4026C193.933 27.7559 193.802 28.0967 193.567 28.3598C193.331 28.6229 193.006 28.7898 192.655 28.8285L192.673 28.8977Z" fill="#F57A59"/>
<path d="M194.036 44.5736C193.426 44.5736 192.93 44.0784 192.93 43.4675C192.93 42.8566 193.426 42.3613 194.036 42.3613C194.647 42.3613 195.143 42.8566 195.143 43.4675C195.143 44.0784 194.647 44.5736 194.036 44.5736Z" fill="white"/>
<path d="M182.976 44.5736C182.365 44.5736 181.87 44.0784 181.87 43.4675C181.87 42.8566 182.365 42.3613 182.976 42.3613C183.587 42.3613 184.082 42.8566 184.082 43.4675C184.082 44.0784 183.587 44.5736 182.976 44.5736Z" fill="white"/>
<path d="M194.452 51.1584C190.929 51.1584 188.074 48.3031 188.074 44.7809C188.074 41.2587 190.929 38.4034 194.452 38.4034C197.974 38.4034 200.829 41.2587 200.829 44.7809C200.829 48.3031 197.974 51.1584 194.452 51.1584Z" stroke="#232144" stroke-width="0.8" stroke-linecap="round" stroke-linejoin="round"/>
<path d="M181.679 51.1584C178.157 51.1584 175.302 48.3031 175.302 44.7809C175.302 41.2587 178.157 38.4034 181.679 38.4034C185.201 38.4034 188.057 41.2587 188.057 44.7809C188.057 48.3031 185.201 51.1584 181.679 51.1584Z" stroke="#232144" stroke-width="0.8" stroke-linecap="round" stroke-linejoin="round"/>
<path d="M160.006 41.2725C160.006 41.2725 148.651 37.8158 149.636 24.1966C149.71 23.1874 149.843 22.1833 150.033 21.1893C150.803 17.4069 152.863 14.0094 155.861 11.5786C158.86 9.1477 162.61 7.83457 166.47 7.86395" stroke="#232144" stroke-width="0.8" stroke-linecap="round" stroke-linejoin="round"/>
<path d="M187.002 25.3718L183.649 24.2829C182.355 23.8654 180.978 23.7731 179.639 24.0143C178.301 24.2554 177.042 24.8226 175.975 25.6656C174.491 26.8096 172.664 27.4186 170.79 27.3939C170.207 27.412 169.654 27.6602 169.252 28.0843C168.851 28.5085 168.633 29.0742 168.647 29.658V30.7469L169.269 31.3518C170.308 32.3934 170.892 33.804 170.894 35.2751C170.892 36.7462 170.308 38.1567 169.269 39.1984" stroke="#232144" stroke-width="0.8" stroke-linecap="round" stroke-linejoin="round"/>
<path d="M198.668 23.4015C197.049 25.1769 194.794 26.2395 192.394 26.3569C191.82 26.4246 191.24 26.4246 190.666 26.3569" stroke="#232144" stroke-width="0.8" stroke-linecap="round" stroke-linejoin="round"/>
<path d="M200.829 15.3475C200.893 17.4169 200.571 19.4801 199.878 21.4312" stroke="#232144" stroke-width="0.8" stroke-linecap="round" stroke-linejoin="round"/>
<path d="M182.249 6.94791C182.249 6.94791 184.565 4.02704 190.891 4.02704C197.217 4.02704 200.31 6.94791 200.76 12.8761" stroke="#232144" stroke-width="0.8" stroke-linecap="round" stroke-linejoin="round"/>
<path d="M185.257 4.97765C183.771 3.47418 181.987 2.29782 180.019 1.52399C178.052 0.750159 175.945 0.395927 173.833 0.484001" stroke="#232144" stroke-width="0.8" stroke-linecap="round" stroke-linejoin="round"/>
<path d="M173.832 0.4839C171.712 0.392801 169.596 0.745438 167.62 1.51924C165.643 2.29303 163.851 3.47094 162.356 4.97755C161.485 5.8448 160.746 6.83464 160.161 7.9157" stroke="#232144" stroke-width="0.8" stroke-linecap="round" stroke-linejoin="round"/>
<path d="M169.511 47.8227C168.642 48.6789 167.539 49.2592 166.341 49.4906C165.144 49.722 163.904 49.5941 162.779 49.1232C161.654 48.6522 160.693 47.8591 160.017 46.8436C159.341 45.828 158.98 44.6354 158.98 43.4155C158.98 42.1956 159.341 41.003 160.017 39.9874C160.693 38.9719 161.654 38.1788 162.779 37.7078C163.904 37.2369 165.144 37.109 166.341 37.3404C167.539 37.5718 168.642 38.1521 169.511 39.0083" fill="#FFB999"/>
<path d="M169.511 47.8227C168.642 48.6789 167.539 49.2592 166.341 49.4906C165.144 49.722 163.904 49.5941 162.779 49.1232C161.654 48.6522 160.693 47.8591 160.017 46.8436C159.341 45.828 158.98 44.6354 158.98 43.4155C158.98 42.1956 159.341 41.003 160.017 39.9874C160.693 38.9719 161.654 38.1788 162.779 37.7078C163.904 37.2369 165.144 37.109 166.341 37.3404C167.539 37.5718 168.642 38.1521 169.511 39.0083" stroke="#232144" stroke-width="0.8" stroke-linecap="round" stroke-linejoin="round"/>
<path d="M164.794 46.9587C162.846 46.9587 161.268 45.3801 161.268 43.4329C161.268 41.4857 162.846 39.9071 164.794 39.9071C166.741 39.9071 168.319 41.4857 168.319 43.4329C168.319 45.3801 166.741 46.9587 164.794 46.9587Z" fill="#F57A59"/>
<path d="M162.565 44.2625C162.565 43.4237 162.898 42.6192 163.491 42.026C164.084 41.4329 164.889 41.0997 165.728 41.0997" stroke="#232144" stroke-width="0.8" stroke-linecap="round" stroke-linejoin="round"/>
<path d="M163.601 42.3094C164.248 42.7797 164.693 43.4775 164.846 44.2624" stroke="#232144" stroke-width="0.8" stroke-linecap="round" stroke-linejoin="round"/>
<path d="M175.302 44.781L166.021 36.9689" stroke="#232144" stroke-width="0.8" stroke-linecap="round" stroke-linejoin="round"/>
<path d="M197.701 167.216L193.64 144.937" stroke="white" stroke-linecap="round" stroke-linejoin="round"/>
<path d="M190.84 124.561L187.988 109.144" stroke="#232144" stroke-width="0.75" stroke-linecap="round" stroke-linejoin="round"/>
<path d="M199.879 173.161L191.773 129.573" stroke="#232144" stroke-width="0.75" stroke-linecap="round" stroke-linejoin="round"/>
<path d="M200.053 187.351L193.848 201.246" stroke="white" stroke-linecap="round" stroke-linejoin="round"/>
<path d="M179.069 162.687L177.03 185.277L191.392 209.421L202.125 185.277L200.552 176.756" stroke="#232144" stroke-width="0.75" stroke-linecap="round" stroke-linejoin="round"/>
<path d="M181.058 140.72L179.312 160.06" stroke="#232144" stroke-width="0.75" stroke-linecap="round" stroke-linejoin="round"/>
<path d="M184.099 107.191L181.351 137.523" stroke="#232144" stroke-width="0.75" stroke-linecap="round" stroke-linejoin="round"/>
<path d="M161.993 124.526V76.0809L149.549 85.846" stroke="white" stroke-linecap="round" stroke-linejoin="round"/>
<path d="M163.256 132.165V73.5229L144.555 88.4038L139.906 95.9739" stroke="#232144" stroke-width="0.8" stroke-linecap="round" stroke-linejoin="round"/>
<path d="M164.552 159.248C164.741 154.762 164.305 150.271 163.256 145.905V135.743" stroke="#232144" stroke-width="0.8" stroke-linecap="round" stroke-linejoin="round"/>
<path d="M194.263 189.304C192.812 189.304 191.636 187.361 191.636 184.966C191.636 182.57 192.812 180.627 194.263 180.627C195.713 180.627 196.89 182.57 196.89 184.966C196.89 187.361 195.713 189.304 194.263 189.304Z" fill="#FFBE88"/>
<path d="M196.043 179.176C195.098 179.176 194.332 178.41 194.332 177.465C194.332 176.52 195.098 175.754 196.043 175.754C196.988 175.754 197.754 176.52 197.754 177.465C197.754 178.41 196.988 179.176 196.043 179.176Z" fill="#FFBE88"/>
<path d="M151.02 128.536L138.213 137.177C138.213 137.177 131.006 169.255 125.527 178.899" stroke="#722AA0" stroke-linecap="round" stroke-linejoin="round"/>
<path d="M149.187 125.978L91.8406 165.505" stroke="#722AA0" stroke-linecap="round" stroke-linejoin="round"/>
<path d="M151.14 126.462L90.1298 168.443L82.093 167.216" stroke="#232144" stroke-width="0.8" stroke-linecap="round" stroke-linejoin="round"/>
<path d="M132.682 108.988L100.31 134.516" stroke="white" stroke-width="2" stroke-linecap="round" stroke-linejoin="round"/>
<path d="M122.156 115.971L94.7795 137.696L76.4766 109.144C76.4766 109.144 72.8125 118.425 58.4156 121.104" stroke="#232144" stroke-linecap="round" stroke-linejoin="round"/>
<path d="M144.313 98.4109L126.823 112.272" stroke="#232144" stroke-linecap="round" stroke-linejoin="round"/>
<path d="M187.314 105.912L191.22 96.0258L185.551 90.3051" stroke="white" stroke-linecap="round" stroke-linejoin="round"/>
<path d="M180.798 88.9397L176.529 99.1368L184.911 108.055" stroke="#232144" stroke-width="0.8" stroke-linecap="round" stroke-linejoin="round"/>
<path d="M191.289 95.1099L192.239 96.095L187.676 107.467" stroke="#232144" stroke-width="0.8" stroke-linecap="round" stroke-linejoin="round"/>
<path d="M184.548 88.1619L189.664 93.4333" stroke="#232144" stroke-width="0.8" stroke-linecap="round" stroke-linejoin="round"/>
<path d="M238.126 128.415L208.727 104.512" stroke="white" stroke-linecap="round" stroke-linejoin="round"/>
<path d="M266.799 109.265L251.538 129.037" stroke="white" stroke-linecap="round" stroke-linejoin="round"/>
<path d="M283.633 109.87C283.633 109.87 274.352 105.238 267.767 105.48L249.879 128.346C249.402 128.96 248.806 129.473 248.128 129.854C247.449 130.235 246.701 130.476 245.928 130.563C245.154 130.65 244.371 130.582 243.625 130.361C242.879 130.14 242.184 129.772 241.583 129.279L195.454 91.584L186.276 87.9373" stroke="#232144" stroke-width="0.75" stroke-linecap="round" stroke-linejoin="round"/>
<path d="M123.815 185.519L117.628 200.97" stroke="#52197F" stroke-linecap="round" stroke-linejoin="round"/>
<path d="M155.652 189.304C155.652 189.304 153.457 203.822 156.637 213.327" stroke="white" stroke-linecap="round" stroke-linejoin="round"/>
<path d="M160.005 245.077C162.206 244.824 164.377 244.355 166.486 243.677C160.351 236.038 157.655 216.024 156.514 202.94C155.873 195.459 156.791 187.926 159.21 180.818L162.045 172.625C162.839 170.254 163.457 167.828 163.894 165.366" stroke="#232144" stroke-width="0.8" stroke-linecap="round" stroke-linejoin="round"/>
<path d="M136.742 136.953L135.93 139.977C128.791 168.902 118.648 197.002 105.667 223.818C105.667 223.818 109.573 230.732 130.071 240.099C137.85 243.759 146.363 245.592 154.959 245.457" stroke="#232144" stroke-linecap="round" stroke-linejoin="round"/>
<path d="M141.617 192.103C140.624 192.103 139.819 191.012 139.819 189.666C139.819 188.321 140.624 187.23 141.617 187.23C142.609 187.23 143.414 188.321 143.414 189.666C143.414 191.012 142.609 192.103 141.617 192.103Z" stroke="#232144" stroke-linecap="round" stroke-linejoin="round"/>
<path d="M177.255 252.526C176.263 252.526 175.458 251.435 175.458 250.089C175.458 248.743 176.263 247.652 177.255 247.652C178.248 247.652 179.053 248.743 179.053 250.089C179.053 251.435 178.248 252.526 177.255 252.526Z" stroke="#232144" stroke-width="0.75" stroke-linecap="round" stroke-linejoin="round"/>
<path d="M176.996 243.504C176.003 243.504 175.198 242.413 175.198 241.067C175.198 239.721 176.003 238.63 176.996 238.63C177.988 238.63 178.793 239.721 178.793 241.067C178.793 242.413 177.988 243.504 176.996 243.504Z" stroke="#232144" stroke-width="0.75" stroke-linecap="round" stroke-linejoin="round"/>
<path d="M216.608 257.331L213.843 296.615" stroke="white" stroke-width="3" stroke-linecap="round" stroke-linejoin="round"/>
<path d="M210.922 355.586L208.226 397.55" stroke="white" stroke-width="2" stroke-linecap="round" stroke-linejoin="round"/>
<path d="M181.887 347.29L186.761 386.817" stroke="#0268C4" stroke-width="2" stroke-linecap="round" stroke-linejoin="round"/>
<path d="M176.841 287.11L180.263 312.481" stroke="#0268C4" stroke-width="5" stroke-linecap="round" stroke-linejoin="round"/>
<path d="M120.393 364.124L117.472 382.911" stroke="#0268C4" stroke-width="2" stroke-linecap="round" stroke-linejoin="round"/>
<path d="M167.489 296.702L145.695 365.662" stroke="white" stroke-width="2" stroke-linecap="round" stroke-linejoin="round"/>
<path d="M177.271 319.447L173.348 285.796" stroke="#232144" stroke-linecap="round" stroke-linejoin="round"/>
<path d="M213.151 337.006L209.453 402.925C202.591 404.531 195.464 404.637 188.557 403.236L187.002 402.925L178.239 327.708" stroke="#232144" stroke-linecap="round" stroke-linejoin="round"/>
<path d="M214.016 326.032L213.584 332.737" stroke="#232144" stroke-linecap="round" stroke-linejoin="round"/>
<path d="M218.976 225.374C219.469 233.484 219.469 241.616 218.976 249.726L214.5 322.316" stroke="#232144" stroke-linecap="round" stroke-linejoin="round"/>
<path d="M181.887 259.698L179.934 270.915" stroke="#0268C4" stroke-width="2" stroke-linecap="round" stroke-linejoin="round"/>
<path d="M131.697 276.895L132.596 270.915L133.08 241.879" stroke="#232144" stroke-linecap="round" stroke-linejoin="round"/>
<path d="M180.659 256.276L176.978 274.337L136.258 403.409C132.408 404.256 128.425 404.297 124.558 403.53C120.691 402.762 117.025 401.203 113.79 398.95L113.548 398.777L130.382 282.875" stroke="#232144" stroke-linecap="round" stroke-linejoin="round"/>
<path d="M146.508 250.175C146.508 250.175 144.883 256.518 135.93 256.691" stroke="#0268C4" stroke-width="2" stroke-linecap="round" stroke-linejoin="round"/>
<path d="M147.804 245.301C147.804 245.301 144.554 260.753 127.306 254.237" stroke="#232144" stroke-linecap="round" stroke-linejoin="round"/>
<path d="M119.357 405.707C114.569 406.52 111.164 408.611 111.164 411.048C111.164 414.193 116.764 416.751 123.677 416.751C130.591 416.751 136.19 414.193 136.19 411.048C136.19 409.095 134.013 407.367 130.677 406.33" stroke="#232144" stroke-width="1.03" stroke-linecap="round" stroke-linejoin="round"/>
<path d="M32.8016 197.479H47.5615L24.8686 132.684H10.1087L32.8016 197.479Z" fill="#B3F4F6"/>
<path d="M51.9509 197.479L57.084 197.358L34.3911 132.563L29.2579 132.684L51.9509 197.479Z" fill="#B3F4F6"/>
<path d="M60.9743 197.479L66.1074 197.358L43.4145 132.563L38.2814 132.684L60.9743 197.479Z" fill="#B3F4F6"/>
<path d="M70.8588 135.501H70.876C72.4892 135.501 73.7969 136.809 73.7969 138.422V165.28C73.7969 166.893 72.4892 168.201 70.876 168.201H70.8588C69.2456 168.201 67.9379 166.893 67.9379 165.28V138.422C67.9379 136.809 69.2456 135.501 70.8588 135.501Z" fill="white"/>
<path d="M10.0568 131.837C8.2909 131.837 6.85938 130.405 6.85938 128.639C6.85938 126.873 8.2909 125.442 10.0568 125.442H39.3692C41.1351 125.442 42.5666 126.873 42.5666 128.639C42.5666 130.405 41.1351 131.837 39.3692 131.837H10.0568Z" fill="white"/>
<path d="M40.3029 204.547C38.537 204.547 37.1055 203.116 37.1055 201.35C37.1055 199.584 38.537 198.153 40.3029 198.153H69.6153C71.3812 198.153 72.8127 199.584 72.8127 201.35C72.8127 203.116 71.3812 204.547 69.6153 204.547H40.3029Z" fill="#DBBA8F"/>
<path d="M9.3312 218.218C7.56533 218.218 6.13379 216.787 6.13379 215.021C6.13379 213.255 7.56533 211.824 9.3312 211.824H38.6436C40.4095 211.824 41.841 213.255 41.841 215.021C41.841 216.787 40.4095 218.218 38.6436 218.218H9.3312Z" fill="#DBBA8F"/>
<path d="M81.3496 176.168V124.768H62.9775" stroke="#232144" stroke-linecap="round" stroke-linejoin="round"/>
<path d="M81.3496 197.306V180.074" stroke="#232144" stroke-linecap="round" stroke-linejoin="round"/>
<path d="M67.765 218.754H79.483C79.9781 218.754 80.4528 218.558 80.8029 218.208C81.1529 217.858 81.3496 217.383 81.3496 216.888V202.007" stroke="#232144" stroke-linecap="round" stroke-linejoin="round"/>
<path d="M46.9043 124.768H0.999971V216.888C0.999971 217.383 1.19661 217.858 1.54667 218.208C1.89672 218.558 2.37149 218.754 2.86654 218.754H63.0469" stroke="#232144" stroke-linecap="round" stroke-linejoin="round"/>
<path d="M9.50322 176.566V196.58H26.4062" stroke="#30CAD6" stroke-width="2" stroke-linecap="round" stroke-linejoin="round"/>
<path d="M49.3936 132.321H7.67182V198.204H73.5557V132.321H67.6966" stroke="#232144" stroke-linecap="round" stroke-linejoin="round"/>
<path d="M68.7165 206.967L73.6768 213.794" stroke="#232144" stroke-width="0.5" stroke-linecap="round" stroke-linejoin="round"/>
<path d="M65.3288 205.74L70.2891 212.567" stroke="#232144" stroke-width="0.5" stroke-linecap="round" stroke-linejoin="round"/>
<path d="M154.665 170.327L152.971 178.605" stroke="#232144" stroke-width="0.5" stroke-linecap="round" stroke-linejoin="round"/>
<path d="M157.224 167.803L155.547 176.082" stroke="#232144" stroke-width="0.5" stroke-linecap="round" stroke-linejoin="round"/>
<path d="M168.597 281.06L166.142 289.149" stroke="#4C4047" stroke-width="0.5" stroke-linecap="round" stroke-linejoin="round"/>
<path d="M171.396 278.796L168.942 286.885" stroke="#4C4047" stroke-width="0.5" stroke-linecap="round" stroke-linejoin="round"/>
<path d="M263.17 138.076L257.829 144.609" stroke="#232144" stroke-width="0.5" stroke-linecap="round" stroke-linejoin="round"/>
<path d="M266.609 137.039L261.269 143.589" stroke="#232144" stroke-width="0.5" stroke-linecap="round" stroke-linejoin="round"/>
<path d="M189.768 391.708L190.649 400.108" stroke="#232144" stroke-width="0.5" stroke-linecap="round" stroke-linejoin="round"/>
<path d="M191.479 388.528L192.343 396.927" stroke="#232144" stroke-width="0.5" stroke-linecap="round" stroke-linejoin="round"/>
<path d="M139.802 373.18L136.933 381.131" stroke="#232144" stroke-width="0.5" stroke-linecap="round" stroke-linejoin="round"/>
<path d="M142.705 371.072L139.836 379.005" stroke="#232144" stroke-width="0.5" stroke-linecap="round" stroke-linejoin="round"/>
<path d="M219.081 218.357C219.081 218.357 196.475 225.84 176.789 225.84" stroke="#232144" stroke-width="0.75" stroke-linecap="round" stroke-linejoin="round"/>
<path d="M168.578 8.65889C168.148 8.65889 167.8 8.31068 167.8 7.88114C167.8 7.4516 168.148 7.10339 168.578 7.10339C169.007 7.10339 169.355 7.4516 169.355 7.88114C169.355 8.31068 169.007 8.65889 168.578 8.65889Z" fill="#232144"/>
<path d="M180.66 9.16017C180.23 9.16017 179.882 8.81196 179.882 8.38242C179.882 7.95288 180.23 7.60468 180.66 7.60468C181.089 7.60468 181.438 7.95288 181.438 8.38242C181.438 8.81196 181.089 9.16017 180.66 9.16017Z" fill="#232144"/>
<path d="M383.6 235.502H508.886C509.28 235.504 509.669 235.428 510.033 235.279C510.397 235.129 510.728 234.909 511.006 234.631C511.284 234.353 511.504 234.022 511.653 233.659C511.803 233.295 511.879 232.905 511.876 232.512L515.333 62.8419C515.335 62.4486 515.259 62.0588 515.11 61.695C514.961 61.3312 514.74 61.0007 514.462 60.7226C514.184 60.4445 513.854 60.2243 513.49 60.0748C513.126 59.9254 512.736 59.8496 512.343 59.8519H383.6C382.807 59.8519 382.046 60.1669 381.486 60.7277C380.925 61.2884 380.61 62.0489 380.61 62.8419V232.512C380.61 233.305 380.925 234.065 381.486 234.626C382.046 235.187 382.807 235.502 383.6 235.502Z" fill="#84ECFF"/>
<path d="M512.032 59.6445H383.427C382.744 59.6445 382.089 59.9158 381.607 60.3988C381.124 60.8817 380.852 61.5367 380.852 62.2197V62.6864H514.607V62.2197C514.607 61.5367 514.336 60.8817 513.853 60.3988C513.37 59.9158 512.715 59.6445 512.032 59.6445Z" fill="#C5F8FF"/>
<path d="M388.871 230.991H503.943C504.635 230.991 505.299 230.716 505.789 230.226C506.278 229.737 506.553 229.073 506.553 228.381L510.01 68.0269C509.992 67.3452 509.71 66.6972 509.222 66.2198C508.735 65.7425 508.082 65.4732 507.4 65.469H388.871C388.529 65.469 388.189 65.5365 387.873 65.6676C387.556 65.7988 387.268 65.991 387.026 66.2334C386.784 66.4757 386.591 66.7634 386.46 67.0801C386.329 67.3967 386.262 67.736 386.262 68.0788V228.433C386.271 229.117 386.55 229.771 387.039 230.25C387.528 230.729 388.187 230.995 388.871 230.991Z" fill="#E0F3FC"/>
<path d="M481.077 65.2098L510.459 82.8387L509.007 106.793L445.508 65.469C445.508 65.469 477.068 64.2419 481.077 65.2098Z" fill="#EFFDFD"/>
<path d="M422.573 65.2097L509.335 114.813L508.35 148.567L385.984 79.9178L385.811 65.3825C385.811 65.3825 421.38 64.7085 422.573 65.2097Z" fill="#EFFDFD"/>
<path d="M430.558 230.472L384.999 194.679L385.656 170.62L456.742 230.628C456.742 230.628 430.558 229.902 430.558 230.472Z" fill="#EFFDFD"/>
<path d="M514.607 124.076L509.336 119.445L507.003 219.083L511.877 223.956C511.877 223.956 514.607 124.733 514.607 124.076Z" fill="#30CAD6"/>
<path d="M385.984 122.504L380.799 117.319V219.048L385.673 223.922C385.673 223.922 385.984 123.212 385.984 122.504Z" fill="#30CAD6"/>
<path d="M380.61 235.502H511.876L515.333 62.8419C515.335 62.4486 515.259 62.0588 515.11 61.695C514.961 61.3312 514.74 61.0007 514.462 60.7226C514.184 60.4445 513.854 60.2243 513.49 60.0748C513.126 59.9254 512.736 59.8496 512.343 59.8519H383.6C382.807 59.8519 382.046 60.1669 381.486 60.7277C380.925 61.2884 380.61 62.0489 380.61 62.8419V235.502Z" stroke="#232144" stroke-width="1.07" stroke-linecap="round" stroke-linejoin="round"/>
<path d="M442.466 90.236L488.232 92.863L482.857 181.526L402.715 176.946L408.09 88.283L426.445 89.32" fill="#F0E0C9"/>
<path d="M443.105 97.8579L480.247 99.9837L476.479 160.562L411.442 156.846L415.21 96.2678L430.091 97.1147" fill="#84ECFF"/>
<path d="M441.809 157.848L456.552 158.695L437.592 97.9096L422.849 97.0627L441.809 157.848Z" fill="#B3F4F6"/>
<path d="M460.942 158.937L466.058 159.11L447.098 98.3244L441.982 98.1516L460.942 158.937Z" fill="#B3F4F6"/>
<path d="M469.948 159.455L475.081 159.628L456.121 98.8431L450.988 98.6702L469.948 159.455Z" fill="#B3F4F6"/>
<path d="M416.075 127.049C415.691 127.027 415.315 126.93 414.969 126.762C414.623 126.595 414.314 126.36 414.058 126.073C413.803 125.786 413.607 125.451 413.481 125.087C413.356 124.724 413.303 124.339 413.327 123.956L414.865 102.352C414.909 101.578 415.258 100.854 415.834 100.336C416.41 99.8178 417.167 99.5485 417.941 99.5862C418.718 99.6308 419.445 99.9815 419.963 100.561C420.482 101.141 420.749 101.903 420.707 102.68L419.168 124.232C419.158 124.623 419.068 125.007 418.905 125.362C418.742 125.717 418.51 126.036 418.221 126.299C417.932 126.562 417.593 126.764 417.224 126.893C416.855 127.022 416.464 127.075 416.075 127.049Z" fill="white"/>
<path d="M449.61 97.7449C447.847 97.6442 446.499 96.1334 446.6 94.3704C446.701 92.6074 448.211 91.2598 449.974 91.3605L479.239 93.0326C481.002 93.1333 482.35 94.6441 482.249 96.4071C482.148 98.1701 480.637 99.5177 478.874 99.417L449.61 97.7449Z" fill="white"/>
<path d="M415.258 163.43C413.495 163.33 412.148 161.819 412.248 160.056C412.349 158.293 413.86 156.945 415.623 157.046L444.888 158.718C446.651 158.819 447.998 160.33 447.897 162.093C447.797 163.856 446.286 165.203 444.523 165.102L415.258 163.43Z" fill="#DBBA8F"/>
<path d="M445.419 178.825C443.656 178.724 442.309 177.213 442.409 175.45C442.51 173.687 444.021 172.34 445.784 172.441L475.049 174.113C476.812 174.213 478.159 175.724 478.058 177.487C477.958 179.25 476.447 180.598 474.684 180.497L445.419 178.825Z" fill="#DBBA8F"/>
<path d="M405.152 134.412L408.09 88.283L431.612 89.6311" stroke="#232144" stroke-linecap="round" stroke-linejoin="round"/>
<path d="M403.942 155.515L404.927 138.301" stroke="#4C4047" stroke-linecap="round" stroke-linejoin="round"/>
<path d="M416.282 177.707L404.581 177.05C404.092 177.006 403.639 176.774 403.317 176.404C402.995 176.033 402.829 175.553 402.853 175.062L403.7 160.233" stroke="#232144" stroke-linecap="round" stroke-linejoin="round"/>
<path d="M440.755 90.1495L488.232 92.8629L483.047 179.659C483.003 180.148 482.772 180.601 482.401 180.924C482.031 181.246 481.55 181.412 481.06 181.388L421.052 177.931" stroke="#232144" stroke-linecap="round" stroke-linejoin="round"/>
<path d="M477.466 139.199L476.325 159.179L459.439 158.211" stroke="#30CAD6" stroke-width="2" stroke-linecap="round" stroke-linejoin="round"/>
<path d="M443.02 97.8579L481.216 100.036L477.465 160.631L411.685 156.863L415.453 96.2678" stroke="#232144" stroke-linecap="round" stroke-linejoin="round"/>
<path d="M472.764 166.179L477.344 173.282" stroke="#4C4047" stroke-width="0.5" stroke-linecap="round" stroke-linejoin="round"/>
<path d="M469.445 164.761L474.025 171.865" stroke="#4C4047" stroke-width="0.5" stroke-linecap="round" stroke-linejoin="round"/>
<path d="M448.499 106.845C447.057 106.845 445.889 105.677 445.889 104.235C445.889 102.794 447.057 101.626 448.499 101.626C449.94 101.626 451.108 102.794 451.108 104.235C451.108 105.677 449.94 106.845 448.499 106.845Z" fill="#EFFDFD"/>
<path d="M448.447 106.897C447.006 106.897 445.837 105.729 445.837 104.287C445.837 102.846 447.006 101.677 448.447 101.677C449.888 101.677 451.057 102.846 451.057 104.287C451.057 105.729 449.888 106.897 448.447 106.897Z" stroke="#232144" stroke-width="0.75" stroke-linecap="round" stroke-linejoin="round"/>
<path d="M407.018 189.632H480.541V219.238H407.018V189.632Z" fill="white"/>
<path d="M472.729 198.032H415.142" stroke="#232144" stroke-linecap="round" stroke-linejoin="round"/>
<path d="M472.729 204.357H444.42" stroke="#232144" stroke-linecap="round" stroke-linejoin="round"/>
<path d="M472.729 210.683H456.138" stroke="#232144" stroke-linecap="round" stroke-linejoin="round"/>
<path d="M283.824 139.994H342.587V190.116H283.824V139.994Z" fill="white"/>
<path d="M335.674 155.549H290.737" stroke="#232144" stroke-linecap="round" stroke-linejoin="round"/>
<path d="M335.674 165.919H313.206" stroke="#232144" stroke-linecap="round" stroke-linejoin="round"/>
<path d="M335.674 174.561H323.576" stroke="#232144" stroke-linecap="round" stroke-linejoin="round"/>
<path d="M470.448 219.238H480.541V189.632H407.018V219.238H463.292" stroke="#232144" stroke-width="0.94" stroke-linecap="round" stroke-linejoin="round"/>
<path d="M370.5 234.776H520.588V240.635H370.5V234.776Z" fill="#4AC8FF"/>
<path d="M370.5 234.776H520.588V237.144H370.5V234.776Z" fill="#80DEFF"/>
<path d="M507.901 240.635H509.854" stroke="#232144" stroke-width="0.74" stroke-linecap="round" stroke-linejoin="round"/>
<path d="M456.916 240.635H505.032" stroke="#232144" stroke-width="0.74" stroke-linecap="round" stroke-linejoin="round"/>
<path d="M508.437 237.334H500.296" stroke="white" stroke-width="0.75" stroke-linecap="round" stroke-linejoin="round"/>
<path d="M496.391 237.334H493.47" stroke="white" stroke-width="0.75" stroke-linecap="round" stroke-linejoin="round"/>
<path d="M503.632 222.678H503.614C502.001 222.678 500.693 221.37 500.693 219.757V192.898C500.693 191.285 502.001 189.978 503.614 189.978H503.632C505.245 189.978 506.552 191.285 506.552 192.898V219.757C506.552 221.37 505.245 222.678 503.632 222.678Z" fill="white"/>
<path d="M504.464 171.636L504.447 171.635C502.834 171.583 501.57 170.233 501.623 168.621L502.104 153.869C502.157 152.256 503.507 150.992 505.119 151.045L505.136 151.045C506.748 151.098 508.013 152.448 507.96 154.06L507.479 168.812C507.426 170.424 506.076 171.689 504.464 171.636Z" fill="white"/>
<path d="M388.802 149.224H388.785C387.172 149.224 385.864 147.916 385.864 146.303V131.543C385.864 129.93 387.172 128.622 388.785 128.622H388.802C390.416 128.622 391.723 129.93 391.723 131.543V146.303C391.723 147.916 390.416 149.224 388.802 149.224Z" fill="#ACD9EA"/>
<path d="M388.802 226.463H388.785C387.172 226.463 385.864 225.155 385.864 223.542V208.782C385.864 207.169 387.172 205.861 388.785 205.861H388.802C390.416 205.861 391.723 207.169 391.723 208.782V223.542C391.723 225.155 390.416 226.463 388.802 226.463Z" fill="#ACD9EA"/>
<path d="M388.802 103.008H388.785C387.172 103.008 385.864 101.7 385.864 100.087V85.3274C385.864 83.7142 387.172 82.4065 388.785 82.4065H388.802C390.416 82.4065 391.723 83.7142 391.723 85.3274V100.087C391.723 101.7 390.416 103.008 388.802 103.008Z" fill="#ACD9EA"/>
<path d="M505.361 81.7498C506.595 81.7498 507.777 81.26 508.649 80.3881C509.521 79.5162 510.011 78.3337 510.011 77.1006V67.543C510.011 66.7683 509.703 66.0254 509.155 65.4776C508.607 64.9298 507.864 64.6221 507.09 64.6221C506.315 64.6221 505.572 64.9298 505.024 65.4776C504.477 66.0254 504.169 66.7683 504.169 67.543V80.54C504.169 80.8563 504.295 81.1596 504.518 81.3833C504.742 81.6069 505.045 81.7325 505.361 81.7325V81.7498Z" fill="white"/>
<path d="M387.626 230.714H504.859C505.152 230.714 505.441 230.657 505.712 230.545C505.982 230.432 506.228 230.268 506.435 230.061C506.642 229.854 506.807 229.608 506.919 229.338C507.031 229.067 507.088 228.778 507.088 228.485L510.545 67.3528C510.545 67.0608 510.487 66.7718 510.375 66.5022C510.263 66.2327 510.098 65.988 509.891 65.7824C509.684 65.5767 509.438 65.4141 509.167 65.304C508.897 65.1938 508.607 65.1383 508.315 65.1406H387.626C387.04 65.1406 386.477 65.3736 386.062 65.7885C385.647 66.2034 385.414 66.7661 385.414 67.3528V228.485C385.412 228.777 385.467 229.066 385.578 229.337C385.688 229.607 385.85 229.853 386.056 230.06C386.262 230.267 386.506 230.432 386.776 230.544C387.045 230.656 387.334 230.714 387.626 230.714Z" stroke="#232144" stroke-linecap="round" stroke-linejoin="round"/>
<path d="M520.588 237.144C520.069 237.144 515.023 237.144 515.023 237.144" stroke="#232144" stroke-width="0.5" stroke-linecap="round" stroke-linejoin="round"/>
<path d="M371.709 237.956H395.318C396.034 237.956 396.614 238.536 396.614 239.252V239.269C396.614 239.985 396.034 240.566 395.318 240.566H371.709C370.993 240.566 370.413 239.985 370.413 239.269V239.252C370.413 238.536 370.993 237.956 371.709 237.956Z" fill="#1BA9DB"/>
<path d="M513.207 240.635H520.12C520.184 240.637 520.248 240.626 520.308 240.603C520.368 240.58 520.422 240.544 520.468 240.499C520.513 240.453 520.549 240.399 520.572 240.339C520.596 240.279 520.607 240.215 520.604 240.151V235.243C520.587 235.125 520.526 235.018 520.432 234.944C520.339 234.87 520.221 234.835 520.103 234.845H370.983C370.858 234.845 370.737 234.894 370.647 234.981C370.556 235.068 370.504 235.186 370.499 235.312V240.22C370.499 240.348 370.55 240.472 370.641 240.562C370.732 240.653 370.855 240.704 370.983 240.704H452.093" stroke="#232144" stroke-width="0.74" stroke-linecap="round" stroke-linejoin="round"/>
<path d="M296.354 138.318C296.354 138.318 288.629 141.239 284.809 130.99" stroke="#F57A59" stroke-linecap="round" stroke-linejoin="round"/>
<path d="M303.958 125.494C303.958 133.531 299.222 140.046 293.381 140.046C287.539 140.046 282.821 133.531 282.821 125.494L286.277 117.44C286.277 117.44 271.154 115.245 267.732 105.48" stroke="#232144" stroke-linecap="round" stroke-linejoin="round"/>
<path d="M300 117.44C298.38 115.163 296.033 113.505 293.346 112.739" stroke="white" stroke-linecap="round" stroke-linejoin="round"/>
<path d="M301.85 118.097C299.957 115.073 297.072 112.802 293.688 111.673C290.304 110.544 286.633 110.627 283.305 111.909" stroke="#232144" stroke-linecap="round" stroke-linejoin="round"/>
<path d="M50.8802 120.551V130.679L54.1641 136.4" stroke="#F57A59" stroke-linecap="round" stroke-linejoin="round"/>
<path d="M69.5283 116.593C68.9061 116.092 63.5483 110.492 63.5483 110.492H57.7066C56.4203 110.491 55.1523 110.796 54.0072 111.382C52.8622 111.968 51.8731 112.818 51.1217 113.862C50.1538 115.226 49.6344 116.857 49.6353 118.529V130.852L53.6968 138.059C54.2433 139.005 55.0294 139.791 55.976 140.337C56.9226 140.883 57.9964 141.17 59.0892 141.17C60.2419 141.173 61.3728 140.856 62.3558 140.254L63.0471 139.822C63.9337 139.275 64.6679 138.513 65.1816 137.606C65.6952 136.7 65.9716 135.678 65.9853 134.637V128.916" stroke="#232144" stroke-linecap="round" stroke-linejoin="round"/>
</svg>
