<svg width="656" height="624" viewBox="0 0 656 624" fill="none" xmlns="http://www.w3.org/2000/svg">
<path d="M0.740173 591.481L0.901062 581.5L23.4929 576.403C75.5 571 156.051 550.041 267.884 544.093C287.064 543.064 306.856 542.261 327.067 541.65C507.962 536.12 655.163 549.816 655.839 572.224C656.515 594.631 510.408 617.232 329.512 622.697C309.302 623.308 289.51 623.694 270.297 623.823C120.554 624.98 5.92145 612.474 0.901062 593.249L0.868896 592.927L0.740173 592.509C0.740173 592.381 0.708008 592.22 0.708008 592.092C0.708008 591.867 0.740173 591.674 0.740173 591.481Z" fill="#ECAC77"/>
<path d="M0.740051 591.48C0.707886 591.673 0.707886 591.898 0.707886 592.091C0.707886 592.22 0.740051 592.381 0.740051 592.509L0.836548 592.927L0.868774 593.249C5.88922 612.474 120.522 624.98 270.265 623.822C289.478 623.662 309.27 623.308 329.48 622.697C510.408 617.2 656.483 594.631 655.807 572.223C655.742 570.359 654.68 568.558 652.685 566.822C630.608 587.173 494.51 606.43 329.48 611.413C309.27 612.024 289.478 612.409 270.265 612.538C120.522 613.695 5.88922 601.189 0.868774 581.964H0.740051V581.225C0.740051 581.096 0.707886 580.936 0.707886 580.807C0.707886 580.614 0.707886 580.389 0.740051 580.196L0.675659 570.166L0.579163 570.134L0.740051 591.48Z" fill="#FDCC91"/>
<g opacity="0.34">
<path d="M431.723 140.335C455.216 137.603 478.194 131.494 499.949 122.236C502.202 121.271 504.873 119.181 503.779 116.995C503.296 116.031 502.202 115.549 501.204 115.131L486.336 109.119L493.288 103.043C488.074 103.782 484.244 97.288 485.467 92.1442C486.69 87.0004 491.003 83.3032 495.09 79.9919C498.952 76.8735 502.846 73.755 506.74 70.7009C508.252 69.5114 509.829 68.2254 510.569 66.4572C512.822 60.9598 505.871 55.3337 506.933 49.4826C507.802 44.6603 513.434 42.5706 518.164 41.3489L542.848 35.0156C549.638 33.2796 557.909 29.711 557.813 22.7347C557.748 15.244 548.287 12.1256 540.82 11.129L505.903 6.49952C500.528 5.79225 495.025 5.08497 489.747 6.27448C484.47 7.46399 479.353 10.9682 477.808 16.1442C476.521 20.42 477.808 25.0816 476.907 29.4538C475.523 36.1408 469.441 40.6738 463.841 44.5317L439.64 61.2169C435.553 64.046 431.466 66.8752 426.96 68.9648C420.299 72.0833 412.961 73.53 405.656 74.6552C397.996 75.8125 390.208 76.6484 382.549 75.7482C378.397 75.266 374.214 74.2694 370.094 74.9767C366.683 75.5554 363.626 77.2914 360.569 78.8988C318.732 101.049 269.461 108.829 222.829 100.696C224.631 103.461 227.914 104.747 231.068 105.775C257.715 114.423 286.26 114.52 314.258 114.52H355.773C361.083 114.52 366.49 114.52 371.639 115.838C376.82 117.156 381.616 119.728 386.282 122.428C396.419 128.312 406.138 134.838 415.407 142.007" fill="#C8E8EB"/>
</g>
<path d="M383.385 52.5686C376.788 59.1591 365.041 59.5771 357.994 53.4688C354.872 50.7361 352.265 46.7818 348.178 46.171C344.863 45.6887 341.709 47.6177 338.427 48.3571C333.342 49.5145 328.129 47.7463 323.076 46.4282C311.136 43.3419 298.425 42.8275 286.549 46.0745C280.049 47.8427 273.773 50.7683 267.047 51.154C259.291 51.6041 251.535 48.6786 243.876 49.7716C238.019 50.6075 232.805 53.6938 227.399 56.0728C218.774 59.8664 209.473 61.9561 200.044 62.2133C195.12 62.3419 190.132 61.9561 185.304 62.7919C173.172 64.9138 161.651 74.4942 149.936 70.7006C156.855 73.4975 164.515 73.5618 171.949 73.594C282.848 73.8512 393.748 73.2725 504.647 71.8579" fill="#C8E8EB"/>
<path d="M419.944 90.7615C498.179 93.3013 576.478 93.1727 654.777 90.3114L629.771 87.3859C615.515 85.7141 601.065 83.9781 587.902 78.3199C575.416 72.9188 563.541 63.9172 549.96 64.6566C544.457 64.9459 539.147 66.8749 533.676 67.55C528.205 68.2251 521.993 67.3249 518.453 63.0813C516.651 60.9273 515.686 58.1304 513.562 56.2979C508.992 52.4078 501.622 54.9155 496.377 52.0542C491.807 49.5787 488.942 43.2133 483.761 43.6633C481.412 43.8562 479.256 45.5923 476.939 45.2386C474.686 44.9172 473.173 42.8596 471.661 41.1557C465.997 34.7581 457.597 31.4789 449.069 32.3469" fill="#C8E8EB"/>
<path d="M498.34 266.616C511.18 261.987 524.118 257.293 535.864 250.284C547.611 243.276 558.199 233.76 564.249 221.511C576.06 197.689 566.791 163 548.93 143.293C544.425 159.335 537.634 174.96 527.111 187.851C516.587 200.743 502.073 210.838 485.692 214.053" fill="#70BF44"/>
<path d="M556.622 173.641C557.201 177.371 557.297 181.164 556.976 184.926C556.654 188.43 555.914 191.87 554.787 195.213C553.661 198.493 552.18 201.643 550.378 204.601C548.576 207.591 546.484 210.42 544.199 213.056C541.882 215.724 539.404 218.232 536.765 220.579C534.03 223.022 531.133 225.337 528.14 227.523C525.147 229.709 522.155 231.735 519.065 233.696C515.976 235.657 512.886 237.457 509.732 239.257C506.675 240.993 503.585 242.665 500.464 244.337C497.567 245.88 494.639 247.423 491.71 248.934L489.683 249.995C489.007 250.413 488.106 250.188 487.687 249.513C487.269 248.838 487.494 247.938 488.17 247.52C488.17 247.52 488.202 247.52 488.202 247.488C491.034 245.977 493.899 244.498 496.731 242.987C499.756 241.379 502.781 239.772 505.774 238.1C508.896 236.364 512.017 234.564 515.074 232.699C518.132 230.834 521.189 228.841 524.15 226.784C525.63 225.755 527.078 224.694 528.527 223.601L529.041 223.215C528.848 223.376 528.945 223.279 529.074 223.183L529.395 222.926L530.425 222.122C531.133 221.543 531.841 220.997 532.517 220.418C535.22 218.168 537.763 215.757 540.177 213.185C541.335 211.931 542.461 210.645 543.523 209.327L543.91 208.845L544.103 208.587L544.199 208.491C544.328 208.33 544.038 208.716 544.135 208.555C544.392 208.202 544.65 207.88 544.907 207.526C545.39 206.851 545.873 206.176 546.355 205.469C547.289 204.086 548.158 202.64 548.962 201.161C549.348 200.454 549.735 199.714 550.089 198.943C550.282 198.557 550.443 198.171 550.604 197.785L550.861 197.239C550.893 197.174 551.022 196.949 550.925 197.11C550.893 197.174 550.829 197.271 550.925 197.11C550.958 197.046 550.99 196.982 551.022 196.885C552.309 193.799 553.21 190.552 553.757 187.24C553.79 187.048 553.822 186.823 553.854 186.63C553.854 186.533 553.886 186.437 553.886 186.34C553.918 186.147 553.854 186.63 553.886 186.437C553.886 186.372 553.886 186.308 553.918 186.244C553.983 185.826 554.015 185.376 554.079 184.926C554.176 184.058 554.208 183.19 554.24 182.322C554.304 180.489 554.24 178.689 554.111 176.856C554.079 176.406 554.015 175.988 553.983 175.538C553.95 175.313 553.918 175.088 553.886 174.863L553.854 174.702C553.822 174.509 553.886 174.96 553.854 174.767C553.822 174.638 553.822 174.509 553.79 174.381C553.693 173.641 553.983 172.773 554.787 172.613C555.495 172.484 556.493 172.838 556.622 173.641Z" fill="#539627"/>
<path d="M329.126 571.87C268.838 571.87 219.965 565.81 219.965 558.335C219.965 550.86 268.838 544.8 329.126 544.8C389.415 544.8 438.288 550.86 438.288 558.335C438.288 565.81 389.415 571.87 329.126 571.87Z" fill="#6F6575"/>
<g opacity="0.14">
<path d="M452.255 427.457C465.192 404.889 492 394.762 511.245 377.241C527.368 362.484 537.956 342.648 541.271 321.044C544.392 300.308 540.595 278.865 544.714 258.29C547.128 246.234 552.213 234.564 552.148 222.283C552.084 206.884 543.942 192.77 535.285 180.039C526.918 167.726 516.877 155.252 502.684 150.848C490.133 146.958 476.488 150.076 464.098 154.481C438.481 163.611 415.117 178.046 389.951 188.366C367.584 197.528 344.027 203.379 319.987 205.758C306.052 207.109 291.312 207.527 279.405 214.889C255.397 229.741 254.721 263.819 241.559 288.767C237.086 297.254 230.81 305.259 229.748 314.807C227.624 333.647 246.097 348.242 263.636 355.411C281.175 362.581 301.45 367.628 312.263 383.252C319.311 393.444 321.113 406.721 328.901 416.366C342.45 433.148 373.248 430.254 383.418 411.222C388.792 401.192 388.567 389.264 389.21 377.916C389.822 367.146 391.334 356.44 393.716 345.895C395.389 338.501 397.546 331.043 402.148 325.031C406.75 319.019 414.312 314.775 421.779 315.933C429.985 317.219 436.067 324.709 438.288 332.714C440.509 340.687 439.575 349.175 438.642 357.405" fill="#B1C8E5"/>
</g>
<path d="M321.918 303.748C326.777 290.021 324.396 274.814 320.791 260.701C317.187 246.587 312.424 232.474 312.617 217.911C312.714 209.841 314.355 201.868 314.419 193.799C314.484 185.73 312.681 177.178 307.017 171.423C303.22 182 299.809 192.674 296.751 203.476C295.207 208.941 293.726 214.503 293.34 220.193C292.793 227.78 294.177 235.368 295.303 242.922C298.36 263.208 299.422 285.23 289.028 302.944" fill="#70BF44"/>
<g opacity="0.45">
<path d="M289.06 302.976L321.918 303.78L322.014 303.555L299.133 303.008C309.528 285.326 308.498 263.272 305.408 242.986C304.282 235.464 302.898 227.876 303.445 220.257C303.831 214.567 305.312 209.037 306.856 203.54C308.82 196.628 310.944 189.748 313.196 182.9C312.102 178.624 310.139 174.606 307.049 171.455C303.252 182.032 299.841 192.705 296.783 203.508C295.239 208.973 293.758 214.535 293.372 220.225C292.825 227.812 294.209 235.399 295.335 242.954C298.425 263.24 299.455 285.262 289.06 302.976Z" fill="#539627"/>
</g>
<path d="M308.916 237.585C313.357 253.499 309.302 303.394 297.653 305.645" stroke="#539627" stroke-width="3" stroke-miterlimit="10"/>
<path d="M305.054 302.816C309.109 288.831 305.891 273.785 301.514 259.897C297.137 246.009 291.57 232.185 290.958 217.621C290.604 209.584 291.795 201.514 291.409 193.445C291.023 185.376 288.738 176.953 282.784 171.52C279.598 182.289 276.798 193.156 274.352 204.119C273.097 209.68 271.971 215.306 271.874 220.997C271.778 228.616 273.548 236.107 275.125 243.565C279.341 263.658 281.626 285.584 272.228 303.844" fill="#70BF44"/>
<g opacity="0.45">
<path d="M272.196 303.877L305.054 302.816C305.086 302.719 305.086 302.655 305.119 302.559L282.237 303.298C291.634 285.037 289.349 263.112 285.134 243.019C283.589 235.56 281.787 228.07 281.883 220.45C281.948 214.76 283.106 209.134 284.361 203.572C285.938 196.564 287.644 189.555 289.51 182.611C288.159 178.399 286.002 174.509 282.752 171.552C279.566 182.322 276.766 193.188 274.32 204.151C273.097 209.712 271.939 215.339 271.842 221.029C271.746 228.648 273.516 236.139 275.093 243.597C279.309 263.658 281.594 285.616 272.196 303.877Z" fill="#539627"/>
</g>
<path d="M288.352 237.489C293.694 253.114 292.439 303.169 280.917 306.095" stroke="#539627" stroke-width="3" stroke-miterlimit="10"/>
<path d="M335.788 304.809C341.806 291.531 340.712 276.196 338.33 261.826C335.949 247.455 332.409 232.988 333.857 218.489C334.662 210.484 336.979 202.672 337.719 194.635C338.459 186.597 337.397 177.949 332.28 171.712C327.614 181.936 323.301 192.288 319.311 202.768C317.283 208.105 315.352 213.506 314.483 219.132C313.293 226.655 314.033 234.338 314.516 241.926C315.835 262.404 314.998 284.459 303.123 301.208" fill="#70BF44"/>
<g opacity="0.45">
<path d="M303.123 301.208L335.788 304.809L335.884 304.584L313.132 302.076C325.007 285.327 325.844 263.305 324.524 242.794C324.041 235.174 323.301 227.523 324.492 220C325.393 214.374 327.324 208.973 329.319 203.636C331.862 196.917 334.565 190.23 337.397 183.64C336.657 179.267 335.08 175.12 332.248 171.712C327.581 181.904 323.269 192.288 319.278 202.768C317.251 208.105 315.32 213.506 314.451 219.132C313.26 226.655 314.001 234.338 314.483 241.926C315.835 262.437 314.998 284.459 303.123 301.208Z" fill="#539627"/>
</g>
<path d="M328.483 237.778C331.54 254.014 323.237 303.362 311.426 304.648" stroke="#539627" stroke-width="3" stroke-miterlimit="10"/>
<path d="M284.554 371.807H391.27V293.653H271.038C265.695 293.653 261.383 297.993 261.383 303.298C261.383 303.812 261.415 304.327 261.512 304.841L270.587 359.944C271.714 366.792 277.603 371.807 284.554 371.807Z" fill="#F5BE67"/>
<path opacity="0.32" d="M261.512 304.873L270.587 359.977C271.713 366.792 277.635 371.807 284.554 371.807H293.694C286.775 371.807 280.853 366.792 279.727 359.977L270.651 304.873C269.783 299.633 273.355 294.65 278.6 293.782C279.115 293.685 279.63 293.653 280.145 293.653H271.005C265.663 293.653 261.351 297.993 261.351 303.298C261.383 303.845 261.415 304.359 261.512 304.873Z" fill="#F2A83D"/>
<path d="M255.494 306.224H376.949V310.371H255.494V306.224Z" fill="#F99E19"/>
<path d="M257.875 320.08H379.331V324.227H257.875V320.08Z" fill="#F99E19"/>
<path d="M260.74 333.55H382.195V337.697H260.74V333.55Z" fill="#F99E19"/>
<path d="M264.634 347.021H386.089V351.168H264.634V347.021Z" fill="#F99E19"/>
<path d="M265.567 357.919H387.022V362.066H265.567V357.919Z" fill="#F99E19"/>
<path d="M246.515 350.396H367.359V357.919H246.515V350.396Z" fill="#1B3331"/>
<path d="M253.563 560.521L272.84 353.997L265.406 352.711L246.129 559.235L253.563 560.521Z" fill="#1B3331"/>
<path d="M375.662 562.868L356.352 356.344L363.786 355.09L383.096 561.614L375.662 562.868Z" fill="#1B3331"/>
<path d="M329.738 310.114C333.729 324.034 321.918 339.016 326.391 352.775C329.062 360.973 336.786 366.246 344.027 370.939C346.344 372.45 349.562 373.929 351.686 372.129C353.231 370.779 353.167 368.239 352.072 366.471C350.978 364.702 349.176 363.577 347.438 362.484C342.997 359.623 338.588 356.376 335.917 351.811C335.08 350.396 334.404 348.724 334.791 347.149C335.177 345.574 336.979 344.224 338.459 344.899C340.583 345.863 340.294 349.528 342.45 350.396C344.22 351.071 346.022 349.11 346.054 347.213C346.086 345.317 344.992 343.645 344.22 341.941C339.006 330.657 345.572 315.965 338.652 305.613" fill="#FDC6A2"/>
<path d="M495.604 311.817C490.809 325.481 501.719 341.137 496.409 354.607C493.255 362.613 485.242 367.467 477.743 371.711C475.33 373.093 472.015 374.379 470.02 372.45C468.539 371.036 468.765 368.464 469.955 366.792C471.146 365.12 473.013 364.091 474.815 363.063C479.417 360.459 483.987 357.501 486.947 353.097C487.849 351.746 488.621 350.107 488.363 348.499C488.106 346.892 486.368 345.445 484.823 346.024C482.635 346.86 482.732 350.557 480.511 351.264C478.709 351.843 477.035 349.753 477.1 347.856C477.164 345.959 478.355 344.352 479.256 342.68C485.113 331.717 479.449 316.64 486.947 306.738" fill="#FDC6A2"/>
<g opacity="0.52">
<path d="M482.41 326.638C485.982 327.538 489.779 327.442 493.48 327.185C494.027 327.153 494.574 327.088 495.089 327.056C494.639 324.581 494.414 322.105 494.381 319.598L493.48 319.662C489.908 319.919 486.239 320.016 482.796 319.212C482.571 321.655 482.506 324.131 482.41 326.638Z" fill="#FF9976"/>
</g>
<g opacity="0.52">
<path d="M342.096 325.77C338.491 326.445 334.694 326.156 331.025 325.673C330.478 325.609 329.963 325.513 329.416 325.448C329.995 323.005 330.381 320.53 330.542 318.054L331.443 318.183C334.983 318.633 338.652 318.954 342.128 318.344C342.192 320.755 342.128 323.262 342.096 325.77Z" fill="#FF9976"/>
</g>
<path d="M464.098 191.066C475.426 223.762 479.159 259.479 474.847 294.071C474.718 295.068 474.59 296.065 474.429 297.093L461.427 443.821L456.503 557.692C456.149 562.611 452.352 566.437 447.782 566.437H434.587C430.05 566.437 426.284 562.708 425.898 557.821L419.14 448.643L411.706 383.253L402.115 557.114C401.858 562 398.189 565.826 393.684 565.987L381.39 566.405C376.756 566.566 372.798 562.772 372.411 557.757L350.624 282.819" fill="#F8A121"/>
<path d="M447.299 563.093L449.938 440.156L460.59 315.418" stroke="#C67305" stroke-width="2" stroke-miterlimit="10"/>
<path d="M373.988 563.093L371.349 440.156L360.697 315.418" stroke="#C67305" stroke-width="2" stroke-miterlimit="10"/>
<path opacity="0.34" d="M352.716 314.132L355.291 346.828C368.324 350.75 383.611 352.968 399.895 352.968C429.245 352.968 455.216 345.702 471.017 334.547L473.367 308.603C472.112 312.268 465.546 315.836 462.714 318.504C456.986 323.905 452.899 328.792 445.079 329.692C426.767 331.814 408.262 333.936 389.951 331.878C375.887 330.239 361.051 325.449 352.716 314.132Z" fill="#E0860E"/>
<path d="M443.888 135.352C442.826 134.998 392.171 117.091 366.007 145.704C339.843 174.316 426.413 162.936 426.413 162.936L443.888 135.352Z" fill="#52B5B2"/>
<path d="M426.702 139.724C423.098 129.404 420.395 118.795 418.56 108.025C412.188 113.394 403.789 115.677 395.582 114.262C394.939 114.134 394.231 114.037 393.684 114.359C393.297 114.648 393.008 115.034 392.879 115.516C391.978 117.863 392.203 120.499 392.107 123.007C391.881 129.115 389.597 134.966 388.47 140.978C388.277 142.007 388.116 143.1 388.502 144.064C388.985 145.318 390.24 146.058 391.431 146.636C402.63 152.037 415.889 149.24 427.99 146.347" fill="#FDC6A2"/>
<path opacity="0.09" d="M388.309 143.968C388.663 144.772 389.275 145.447 390.047 145.897C398.704 137.699 405.012 126.608 409.067 117.67C407.361 117.992 405.656 118.153 403.918 118.153C403.435 118.153 402.952 118.153 402.47 118.12C399.058 117.96 395.679 117.156 392.525 115.806C391.785 118.056 391.978 120.532 391.914 122.943C391.753 127.058 390.691 131.044 389.629 135.063C389.114 136.992 388.631 138.953 388.245 140.914C388.084 141.911 387.923 143.004 388.309 143.968Z" fill="#FF9976"/>
<path d="M411.319 385.728C409.034 379.105 407.393 372.257 406.46 365.313C405.462 358.144 405.14 350.878 405.462 343.645C405.655 339.594 406.074 335.575 406.749 331.589C406.846 331.01 407.747 331.267 407.651 331.846C406.492 338.919 406.041 346.088 406.331 353.257C406.589 360.394 407.49 367.499 409.034 374.476C409.871 378.205 410.933 381.902 412.188 385.503C412.414 386.049 411.512 386.306 411.319 385.728Z" fill="#C67305"/>
<path d="M404.98 362.838C402.695 362.677 400.281 362.42 398.286 361.198C397.32 360.619 396.548 359.784 396.033 358.819C395.357 357.501 395.196 355.99 395.003 354.575C394.167 348.21 393.33 341.78 393.555 335.318C393.652 331.75 394.134 328.213 395.035 324.773C395.1 324.581 395.293 324.452 395.518 324.516C395.711 324.581 395.84 324.773 395.776 324.998C394.167 330.946 394.07 337.151 394.488 343.259C394.714 346.313 395.068 349.367 395.454 352.421C395.583 353.932 395.808 355.443 396.13 356.922C396.387 358.144 396.999 359.237 397.932 360.073C399.831 361.713 402.566 361.97 404.948 362.13C405.463 362.13 405.462 362.87 404.98 362.838Z" fill="#C67305"/>
<path d="M468.668 354.961C464.034 354.35 459.979 351.618 457.115 347.985C453.864 343.838 452.319 338.629 452.094 333.421C451.965 330.303 452.255 327.152 452.995 324.098C453.124 323.519 454.025 323.777 453.896 324.355C452.706 329.531 452.609 334.997 454.154 340.108C455.473 344.545 458.144 348.66 461.974 351.36C463.969 352.775 466.286 353.707 468.7 354.061C469.247 354.125 469.247 355.058 468.668 354.961Z" fill="#C67305"/>
<path d="M369.644 322.523C370.673 326.927 370.223 331.525 368.356 335.64C366.554 339.626 363.336 342.809 359.345 344.577C357.157 345.542 354.808 345.992 352.426 345.927C351.847 345.927 351.815 344.995 352.426 344.995C356.513 345.059 360.472 343.548 363.465 340.784C366.586 337.954 368.485 334.032 369.064 329.885C369.418 327.506 369.29 325.063 368.742 322.748C368.614 322.202 369.515 321.944 369.644 322.523Z" fill="#C67305"/>
<path d="M508.349 302.977C508.188 306.031 508.027 309.149 507.158 312.075C506.289 315 504.648 317.829 502.073 319.533C499.499 321.237 496.216 321.655 493.094 321.88C488.299 322.234 483.279 322.266 478.902 320.273C474.525 318.279 470.985 313.746 471.564 308.956C472.047 305.098 475.072 301.433 473.882 297.736" fill="#71A0D3"/>
<path d="M318.603 301.947C318.603 305.002 318.603 308.12 319.311 311.11C320.019 314.1 321.499 316.993 323.977 318.826C326.455 320.658 329.706 321.237 332.795 321.655C337.558 322.266 342.579 322.555 347.052 320.819C351.525 319.083 355.323 314.711 354.969 309.92C354.679 306.063 351.847 302.205 353.263 298.604" fill="#71A0D3"/>
<path d="M469.827 305.677C470.148 306.063 470.502 306.416 470.856 306.77L469.827 305.677Z" fill="#B1C8E5"/>
<path d="M316.479 291.082C316.929 296.032 317.637 301.208 320.469 305.324C326.23 313.714 338.008 314.55 348.242 314.389C348.5 314.775 348.725 315.161 349.015 315.547C357.221 327.442 372.443 332.425 386.797 334.032C405.269 336.122 423.935 336.122 442.407 334.065C450.227 333.164 458.176 329.821 463.905 324.42C468.797 319.823 470.76 313.071 471.854 306.352C480.286 314.679 494.542 313.843 506.16 310.467C508.735 309.728 511.406 308.796 513.176 306.802C515.654 304.038 515.782 299.955 515.75 296.258C515.364 248.356 506.353 197.946 476.231 160.653C466.158 148.18 454.057 137.153 438.352 133.873C436.486 133.488 434.523 133.198 432.688 133.745C430.532 134.388 428.859 136.027 427.089 137.41C419.783 143.132 410.257 145.19 401.214 142.939C393.201 140.882 385.381 135.417 377.335 137.506C372.733 138.696 369.161 142.2 365.91 145.704C330.22 184.411 311.748 238.582 316.479 291.082Z" fill="#8FEAE9"/>
<g opacity="0.3">
<path d="M352.555 319.919C361.18 328.728 374.278 332.65 386.732 334.064C405.205 336.154 423.87 336.154 442.343 334.096C450.163 333.196 458.112 329.853 463.84 324.452C468.732 319.854 470.695 313.103 471.789 306.384C480.221 314.711 494.478 313.875 506.096 310.499C508.67 309.76 511.341 308.827 513.111 306.834C515.589 304.069 515.718 299.986 515.686 296.289C515.621 288.509 515.332 280.633 514.753 272.756C508.155 289.377 489.329 297.511 472.723 290.92C472.272 290.76 471.822 290.567 471.403 290.374C469.183 297.125 463.68 302.462 457.404 305.805C451.129 309.149 444.081 310.853 437.097 312.267C409.324 317.958 380.939 320.53 352.555 319.919Z" fill="#71A0D3"/>
</g>
<g opacity="0.3">
<path d="M316.608 291.081C317.058 296.032 317.766 301.208 320.598 305.323C323.913 310.145 329.223 312.46 335.08 313.553C332.924 309.149 332.28 303.909 331.894 298.861C327.324 240.832 344.67 181.035 378.558 137.313C378.236 137.377 377.882 137.442 377.56 137.538C372.958 138.728 369.386 142.232 366.136 145.736C330.381 184.411 311.909 238.582 316.608 291.081Z" fill="#71A0D3"/>
</g>
<path d="M344.67 270.795C343.608 276.678 342.74 282.658 342.514 288.638C342.289 294.489 342.675 300.469 344.349 306.095C345.25 309.213 346.601 312.203 348.307 314.968C348.629 315.482 347.792 315.997 347.47 315.45C344.316 310.435 342.611 304.712 341.903 298.861C341.163 292.817 341.452 286.709 342.192 280.697C342.579 277.289 343.126 273.882 343.737 270.506C343.866 269.927 344.799 270.184 344.67 270.795Z" fill="#52B5B2"/>
<path d="M472.144 306.577C473.817 298.154 474.622 289.538 474.976 280.955C475.33 271.921 475.169 262.887 474.654 253.853C474.139 245.269 473.335 236.686 472.176 228.134C471.21 220.997 470.02 213.86 468.507 206.787C467.51 202.061 466.383 197.239 464.678 192.706C464.549 192.384 464.388 191.999 464.259 191.677C464.034 191.098 464.838 190.616 465.096 191.195C466.866 195.374 467.928 199.875 468.926 204.279C470.47 211.159 471.693 218.103 472.691 225.08C473.914 233.535 474.815 241.99 475.394 250.51C476.006 259.608 476.295 268.738 476.038 277.836C475.813 286.548 475.105 295.293 473.624 303.877C473.463 304.873 473.27 305.838 473.077 306.834C472.98 307.445 472.047 307.188 472.144 306.577Z" fill="#52B5B2"/>
<path opacity="0.3" d="M472.948 307.092C475.651 309.76 478.934 311.464 482.538 312.493C484.63 313.071 486.818 313.425 488.975 313.554C489.071 266.263 472.047 212.381 466.64 196.467C470.631 209.745 475.49 238.422 475.941 267.131C476.166 281.019 475.362 294.907 472.948 307.092Z" fill="#71A0D3"/>
<path opacity="0.23" d="M534.126 207.88C527.71 207.88 522.509 200.885 522.509 192.256C522.509 183.627 527.71 176.631 534.126 176.631C540.543 176.631 545.744 183.627 545.744 192.256C545.744 200.885 540.543 207.88 534.126 207.88Z" fill="white"/>
<path opacity="0.23" d="M482.41 203.508C473.381 203.508 466.061 193.663 466.061 181.518C466.061 169.374 473.381 159.528 482.41 159.528C491.439 159.528 498.758 169.374 498.758 181.518C498.758 193.663 491.439 203.508 482.41 203.508Z" fill="white"/>
<path opacity="0.23" d="M456.342 170.877C452.61 170.877 449.584 167.321 449.584 162.936C449.584 158.55 452.61 154.995 456.342 154.995C460.075 154.995 463.101 158.55 463.101 162.936C463.101 167.321 460.075 170.877 456.342 170.877Z" fill="white"/>
<path opacity="0.16" d="M257.972 573.703C254.026 573.703 250.827 571.975 250.827 569.845C250.827 567.714 254.026 565.987 257.972 565.987C261.918 565.987 265.116 567.714 265.116 569.845C265.116 571.975 261.918 573.703 257.972 573.703Z" fill="white"/>
<path d="M476.07 586.787C472.124 586.787 468.926 585.391 468.926 583.668C468.926 581.946 472.124 580.55 476.07 580.55C480.016 580.55 483.214 581.946 483.214 583.668C483.214 585.391 480.016 586.787 476.07 586.787Z" fill="#504656"/>
<path d="M292.921 369.557C289.189 369.557 286.163 368.42 286.163 367.017C286.163 365.615 289.189 364.478 292.921 364.478C296.654 364.478 299.68 365.615 299.68 367.017C299.68 368.42 296.654 369.557 292.921 369.557Z" fill="#F2A83D"/>
<path d="M278.182 342.873C276.262 342.873 274.706 342.153 274.706 341.266C274.706 340.378 276.262 339.658 278.182 339.658C280.102 339.658 281.658 340.378 281.658 341.266C281.658 342.153 280.102 342.873 278.182 342.873Z" fill="#F2A83D"/>
<path d="M279.019 328.985C277.046 328.985 275.446 328.438 275.446 327.763C275.446 327.088 277.046 326.542 279.019 326.542C280.991 326.542 282.591 327.088 282.591 327.763C282.591 328.438 280.991 328.985 279.019 328.985Z" fill="#F2A83D"/>
<path d="M290.122 341.362C289.5 341.362 288.995 340.902 288.995 340.333C288.995 339.765 289.5 339.305 290.122 339.305C290.744 339.305 291.248 339.765 291.248 340.333C291.248 340.902 290.744 341.362 290.122 341.362Z" fill="#F2A83D"/>
<path d="M446.752 341.362C445.614 341.362 444.692 340.024 444.692 338.373C444.692 336.721 445.614 335.383 446.752 335.383C447.889 335.383 448.812 336.721 448.812 338.373C448.812 340.024 447.889 341.362 446.752 341.362Z" fill="#C67305"/>
<path d="M370.607 339.838C369.663 339.203 369.647 337.578 370.57 336.209C371.493 334.839 373.006 334.243 373.95 334.878C374.893 335.512 374.91 337.137 373.987 338.507C373.063 339.877 371.55 340.473 370.607 339.838Z" fill="#C67305"/>
<path d="M400.539 343.355C399.366 343.355 398.415 342.405 398.415 341.234C398.415 340.062 399.366 339.112 400.539 339.112C401.712 339.112 402.663 340.062 402.663 341.234C402.663 342.405 401.712 343.355 400.539 343.355Z" fill="#C67305"/>
<path d="M400.667 350.878C399.494 350.878 398.543 349.928 398.543 348.757C398.543 347.585 399.494 346.635 400.667 346.635C401.84 346.635 402.791 347.585 402.791 348.757C402.791 349.928 401.84 350.878 400.667 350.878Z" fill="#C67305"/>
<path d="M401.053 358.015C399.88 358.015 398.929 357.065 398.929 355.893C398.929 354.721 399.88 353.771 401.053 353.771C402.226 353.771 403.177 354.721 403.177 355.893C403.177 357.065 402.226 358.015 401.053 358.015Z" fill="#C67305"/>
<path d="M397.642 570.777V582.833C397.642 586.015 396.097 588.973 393.491 590.806L373.666 604.726C372.025 605.883 370.062 606.494 368.067 606.494H357.768C352.394 606.494 348.017 602.122 348.017 596.753C348.017 593.667 349.465 590.773 351.944 588.941L384.576 572.127" fill="#302835"/>
<path d="M431.723 570.68V582.736C431.723 585.919 433.268 588.876 435.874 590.709L455.699 604.629C457.34 605.787 459.303 606.398 461.298 606.398H471.596C476.971 606.398 481.348 602.025 481.348 596.657C481.348 593.57 479.899 590.677 477.421 588.844L444.789 564.636" fill="#302835"/>
<g opacity="0.41">
<path d="M444.499 404.471C444.499 408.264 449.68 410.354 453.027 408.618C456.374 406.882 457.919 402.831 458.241 399.038C458.563 395.244 457.983 391.418 458.498 387.657C459.11 382.995 461.395 378.366 460.365 373.769C459.625 370.554 457.34 367.885 454.282 366.632C450.356 365.088 445.754 366.181 442.214 368.496C438.674 370.811 436.003 374.219 433.461 377.594C430.95 380.906 428.44 385.342 430.564 388.911C432.173 391.611 435.713 392.383 437.966 394.601C442.761 399.295 439.929 408.329 444.499 413.28C447.621 416.687 453.478 416.559 457.05 413.633C460.622 410.708 461.942 405.66 461.202 401.095C460.461 396.53 457.855 392.479 454.733 389.071" fill="#FFBE69"/>
</g>
<g opacity="0.41">
<path d="M452.705 420.224C451.643 420.384 450.581 420.32 449.552 420.063C449.005 419.902 448.425 419.87 447.846 419.934C446.43 420.224 445.529 421.735 445.432 423.181C445.336 425.207 446.366 427.104 448.136 428.132C449.906 429.097 452.062 429.065 453.8 428.036C455.505 426.975 456.6 425.142 456.728 423.149C456.793 422.249 456.567 421.252 455.892 420.642C455.087 419.902 453.8 419.966 452.705 420.224Z" fill="#FFBE69"/>
</g>
<path d="M444.886 29.8393C438.896 29.8393 434.04 24.9886 434.04 19.0051C434.04 13.0215 438.896 8.1709 444.886 8.1709C450.875 8.1709 455.731 13.0215 455.731 19.0051C455.731 24.9886 450.875 29.8393 444.886 29.8393Z" fill="#1B3331"/>
<path d="M410.419 89.2185C409.485 93.3657 409.871 97.7701 405.945 99.4097C402.019 101.049 431.82 105.968 428.215 103.718C434.813 107.286 443.984 104.907 447.975 98.5738C449.23 96.5806 450.131 94.2016 452.159 92.9799C454.926 91.3403 459.174 92.4012 461.041 89.765C462.232 88.1254 461.749 85.875 461.781 83.8496C461.942 77.7735 467.252 72.501 466.609 66.4571C466.287 63.5958 464.678 61.056 463.101 58.6449C457.919 50.7041 451.773 42.0882 442.472 40.1914" fill="#1B3331"/>
<path d="M427.604 95.4877C433.622 94.4268 439.511 99.3777 445.497 98.1239C449.294 97.3202 452.094 94.266 454.604 91.3405C458.144 87.2897 461.813 82.9818 462.875 77.7093C463.841 73.0156 462.618 68.1611 461.652 63.4674C458.852 49.9327 457.951 35.8193 452.384 23.1527C446.816 10.486 434.812 -0.733981 421.006 0.0375929C414.248 0.455529 407.876 3.67042 401.118 4.21695C393.619 4.82778 385.188 2.28802 379.041 6.62812C376.37 8.5249 374.6 11.4505 372.218 13.7009C370.03 15.7584 367.327 17.2051 365.042 19.134C357.801 25.2745 355.451 36.5266 359.699 45.0139C363.947 53.5012 374.31 58.4521 383.579 56.3946" fill="#1B3331"/>
<path d="M429.921 105.132C433.622 106 437.548 105.518 440.927 103.75C441.603 102.046 442.182 100.31 442.633 98.5095C443.115 96.7091 443.469 94.8445 443.662 93.012C444.177 88.6398 443.791 84.2354 442.536 79.9917C441.345 86.1321 439.092 91.9832 435.874 97.32C434.169 100.117 432.173 102.721 429.921 105.132Z" fill="#0B1615"/>
<path d="M402.952 117.767C379.669 117.767 360.794 95.9172 360.794 68.9646C360.794 42.012 379.669 20.1626 402.952 20.1626C426.236 20.1626 445.111 42.012 445.111 68.9646C445.111 95.9172 426.236 117.767 402.952 117.767Z" fill="#FDC6A2"/>
<path opacity="0.24" d="M360.794 68.9646C360.794 95.9054 379.684 117.767 402.952 117.767C404.722 117.767 406.46 117.638 408.198 117.381C387.376 114.391 371.285 93.8479 371.285 68.9646C371.285 44.0814 387.376 23.5382 408.198 20.5484C406.46 20.2912 404.69 20.1626 402.952 20.1626C379.684 20.1626 360.794 42.0238 360.794 68.9646Z" fill="#FF9976"/>
<path d="M443.888 79.9598C438.503 79.9598 434.137 75.5985 434.137 70.2187C434.137 64.8388 438.503 60.4775 443.888 60.4775C449.273 60.4775 453.639 64.8388 453.639 70.2187C453.639 75.5985 449.273 79.9598 443.888 79.9598Z" fill="#FDC6A2"/>
<path d="M378.236 84.8462C378.236 91.276 383.482 100.696 389.918 100.696C396.387 100.696 401.601 95.4553 401.601 89.0255L378.236 84.8462Z" fill="white"/>
<g opacity="0.53">
<path d="M438.353 61.5385C436.743 63.1138 433.976 62.9209 432.077 61.7314C430.178 60.5419 428.891 58.5486 427.668 56.6518C426.445 54.7551 425.158 52.794 423.227 51.6045C420.781 50.1256 417.692 50.1256 415.149 48.8075C411.899 47.1679 410.064 43.728 408.069 40.6738C405.527 36.7838 402.405 33.2796 398.865 30.2576C398.608 30.0004 398.286 29.8075 397.964 29.6468C396.484 29.0359 395.003 30.4505 393.909 31.6078C392.364 33.2153 390.594 34.5655 388.631 35.5943C387.73 36.0765 386.636 36.4945 385.67 36.173C384.608 35.7872 384.029 34.5977 384.029 33.4725C384.029 32.3473 384.512 31.2864 384.962 30.2576C386.604 26.6569 388.567 22.9919 391.946 21.0309C394.521 19.552 397.578 19.2305 400.539 18.9733L410.612 18.041C411.545 17.9124 412.51 17.9124 413.444 18.0732C414.473 18.266 415.407 18.8126 416.308 19.327C419.88 21.3523 423.517 23.4742 426.156 26.6248C427.765 28.5215 428.955 30.772 429.985 33.0224C431.659 36.6874 432.978 40.4809 433.976 44.371" fill="#FF9976"/>
</g>
<path d="M449.616 58.0985C444.757 59.1916 440.509 64.239 435.746 62.6958C430.854 61.1205 430.436 54.1442 426.574 50.7686C423.999 48.5182 420.137 48.1324 417.595 45.8176C415.214 43.6315 414.473 40.1273 412.253 37.7804C410.386 35.7872 407.747 34.7906 405.495 33.2153C401.601 30.4183 399.219 25.9818 399.058 21.2237C398.962 17.6552 400.313 13.8295 403.306 11.8363C407.651 8.97501 413.444 10.8396 418.271 12.8007" fill="#1B3331"/>
<path d="M402.501 15.5654C402.405 19.134 399.637 22.0595 396.709 24.117C393.78 26.1746 390.433 27.782 388.148 30.5147C386.217 32.7972 385.091 35.7871 382.774 37.6839C381.615 38.6483 380.199 39.2592 378.912 40.095C374.76 42.7955 371.864 47.6822 367.037 48.7752C366.329 48.9681 365.556 48.9681 364.848 48.7431C362.917 48.0037 362.789 45.3353 363.207 43.3099C364.752 35.9478 369.257 29.5823 373.634 23.4741" fill="#1B3331"/>
<path d="M446.173 74.9764C447.267 73.4976 447.621 71.6008 447.138 69.8648C446.623 68.1609 445.561 66.682 444.081 65.6533C443.598 65.2996 444.049 64.4637 444.564 64.8174C446.237 65.9747 447.492 67.6465 448.072 69.6076C448.651 71.6329 448.265 73.7869 447.01 75.4908C446.623 75.9409 445.787 75.4587 446.173 74.9764Z" fill="#FF9976"/>
<path d="M447.621 70.2505C446.688 70.1862 445.754 70.4113 444.917 70.8613C443.984 71.44 443.244 72.308 442.826 73.3368C442.697 73.5618 442.407 73.6261 442.182 73.4975C441.957 73.369 441.892 73.0796 442.021 72.8546C442.536 71.6972 443.373 70.7006 444.435 70.0255C445.4 69.4789 446.527 69.2217 447.621 69.286C448.264 69.3182 448.264 70.2827 447.621 70.2505Z" fill="#FF9976"/>
<path d="M389.693 66.3927C390.047 67.0357 389.79 67.6786 389.532 68.2895C389.275 68.9003 388.953 69.6076 388.599 70.2506C387.923 71.5365 387.086 72.726 386.153 73.8512C385.928 74.1406 385.67 74.3978 385.445 74.6871C385.316 74.8157 385.188 74.9443 385.059 75.0729C384.962 75.2336 384.994 75.2658 385.155 75.3944C385.638 75.9088 386.346 76.1659 386.958 76.4553L391.527 78.6093C392.074 78.8665 391.592 79.7023 391.045 79.4451L387.408 77.7091C386.378 77.2269 385.091 76.8089 384.351 75.9088C383.997 75.4587 383.868 74.9764 384.254 74.5264C384.64 74.0763 385.027 73.6905 385.413 73.2404C386.153 72.3402 386.829 71.4079 387.408 70.3791C387.73 69.8005 388.052 69.2218 388.309 68.6431C388.47 68.3216 388.599 68.0001 388.728 67.6786C388.824 67.4214 388.985 67.0678 388.856 66.8428C388.567 66.2962 389.403 65.814 389.693 66.3605V66.3927Z" fill="#FF9976"/>
<path d="M419.011 61.7312C417.595 61.3133 416.211 60.7346 414.924 59.9952C412.349 58.5806 409.067 58.0662 406.009 57.5197C404.336 57.2304 402.566 56.8446 401.761 55.2693C401.246 54.1762 401.375 52.8903 402.147 51.9258C403.756 49.804 407.136 49.5468 409.678 50.5113C411.834 51.3471 413.475 52.8903 414.731 54.5942C415.986 56.2981 416.919 58.1305 418.078 59.8666C418.528 60.5096 418.979 61.1525 419.397 61.7955L419.011 61.7312Z" fill="#1B3331"/>
<path d="M367.745 57.5517C369.225 57.4231 370.674 57.1337 372.09 56.6515C374.89 55.7513 378.204 55.9121 381.326 56.0085C383.032 56.0407 384.834 56.0407 385.928 54.6583C386.668 53.6938 386.765 52.4078 386.218 51.3148C385.059 48.9358 381.809 47.9713 379.105 48.4214C376.82 48.8072 374.922 49.9967 373.345 51.4434C371.768 52.8901 370.513 54.4975 369 55.9442C368.453 56.4907 367.874 57.0051 367.327 57.5838L367.745 57.5517Z" fill="#1B3331"/>
<path d="M440.844 43.504C438.408 34.579 441.661 25.9206 448.109 24.1648C454.556 22.409 461.757 28.2208 464.193 37.1457C466.628 46.0706 463.376 54.729 456.928 56.4848C450.48 58.2406 443.279 52.4289 440.844 43.504Z" fill="#1B3331"/>
<path d="M405.977 76.9055C403.72 76.9055 401.89 74.2571 401.89 70.9901C401.89 67.7231 403.72 65.0747 405.977 65.0747C408.235 65.0747 410.064 67.7231 410.064 70.9901C410.064 74.2571 408.235 76.9055 405.977 76.9055Z" fill="#1B3331"/>
<path d="M375.372 74.3655C373.115 74.3655 371.285 71.717 371.285 68.4501C371.285 65.1831 373.115 62.5347 375.372 62.5347C377.629 62.5347 379.459 65.1831 379.459 68.4501C379.459 71.717 377.629 74.3655 375.372 74.3655Z" fill="#1B3331"/>
<path d="M402.244 69.6717C401.444 69.6717 400.796 69.024 400.796 68.225C400.796 67.426 401.444 66.7783 402.244 66.7783C403.044 66.7783 403.692 67.426 403.692 68.225C403.692 69.024 403.044 69.6717 402.244 69.6717Z" fill="white"/>
<path d="M372.669 67.2928C371.869 67.2928 371.221 66.6451 371.221 65.8461C371.221 65.0471 371.869 64.3994 372.669 64.3994C373.469 64.3994 374.117 65.0471 374.117 65.8461C374.117 66.6451 373.469 67.2928 372.669 67.2928Z" fill="white"/>
<path opacity="0.1" d="M436.243 33.4222C430.968 28.7137 428.9 22.4281 431.624 19.3828C434.348 16.3376 440.832 17.6859 446.107 22.3944C451.382 27.1029 453.45 33.3886 450.726 36.4338C448.003 39.479 441.518 38.1307 436.243 33.4222Z" fill="white"/>
<path d="M564.056 198.075C564.056 198.075 556.171 202.383 551.633 199.586" stroke="#539627" stroke-width="5" stroke-linecap="round" stroke-linejoin="round"/>
<path d="M558.424 213.634C558.424 213.634 547.9 217.589 542.622 212.895" stroke="#539627" stroke-width="5" stroke-linecap="round" stroke-linejoin="round"/>
<path d="M532.389 202.415C532.389 202.415 531.455 213.602 537.409 217.396" stroke="#539627" stroke-width="5" stroke-linecap="round" stroke-linejoin="round"/>
<path d="M518.035 214.085C518.035 214.085 515.879 225.112 521.382 229.516" stroke="#539627" stroke-width="5" stroke-linecap="round" stroke-linejoin="round"/>
<path d="M544.682 227.073C544.682 227.073 533.933 230.384 528.945 225.369" stroke="#539627" stroke-width="5" stroke-linecap="round" stroke-linejoin="round"/>
<path d="M378.783 561.454H392.042V576.371H378.783V561.454Z" fill="#302835"/>
<path d="M372.926 571.645H401.279C402.63 571.645 403.724 570.552 403.724 569.202L405.012 561.679C405.012 560.328 403.918 559.235 402.566 559.235H371.317C369.965 559.235 368.871 560.328 368.871 561.679L370.48 569.202C370.48 570.552 371.575 571.645 372.926 571.645Z" fill="#E0860E"/>
<path d="M428.634 571.259H457.63C458.981 571.259 460.076 570.166 460.076 568.816L461.041 561.293C461.041 559.943 459.947 558.85 458.595 558.85H427.346C425.995 558.85 424.901 559.943 424.901 561.293L426.188 568.816C426.188 570.166 427.282 571.259 428.634 571.259Z" fill="#E0860E"/>
<path d="M463.39 562.482H422.422" stroke="#C67305" stroke-width="2" stroke-miterlimit="10" stroke-linecap="round" stroke-linejoin="round"/>
<path d="M462.103 564.99H423.71" stroke="#C67305" stroke-width="2" stroke-miterlimit="10" stroke-linecap="round" stroke-linejoin="round"/>
<path d="M461.781 567.723H424.032" stroke="#C67305" stroke-width="2" stroke-miterlimit="10" stroke-linecap="round" stroke-linejoin="round"/>
<path d="M408.133 562.482H367.133" stroke="#C67305" stroke-width="2" stroke-miterlimit="10" stroke-linecap="round" stroke-linejoin="round"/>
<path d="M406.846 564.99H368.421" stroke="#C67305" stroke-width="2" stroke-miterlimit="10" stroke-linecap="round" stroke-linejoin="round"/>
<path d="M406.524 567.723H368.743" stroke="#C67305" stroke-width="2" stroke-miterlimit="10" stroke-linecap="round" stroke-linejoin="round"/>
</svg>
