<svg width="284" height="227" viewBox="0 0 284 227" fill="none" xmlns="http://www.w3.org/2000/svg">
<path d="M99.6401 225.467C101.987 226.22 104.478 226.408 106.911 226.015C109.344 225.623 111.65 224.661 113.64 223.207L111.64 219.917H105.76L101.24 222.647L99.6401 225.467Z" fill="#FEA42F"/>
<path d="M84.4399 175.367L99.64 225.507L100.19 225.177C102.188 223.981 104.405 223.193 106.711 222.862C109.017 222.531 111.365 222.662 113.62 223.247L112.91 220.527L102.51 174.607L84.4399 175.367Z" fill="#FCD32E"/>
<path opacity="0.53" d="M105.65 188.557C97.5901 185.977 94.8402 189.437 88.1302 187.667L86.4102 181.827C92.6302 182.597 98.6501 183.567 104.8 184.907L105.65 188.557Z" fill="#FEA42F"/>
<path d="M272.62 197.487C270.912 199.197 268.779 200.419 266.44 201.027C266.24 201.077 266.05 201.117 265.85 201.147L258.04 200.337L50.6702 178.867C47.7207 178.559 44.7514 178.485 41.7902 178.647C41.4402 178.647 41.1002 178.647 40.7902 178.707C37.7929 178.907 34.8166 179.349 31.8902 180.027C31.5769 180.087 31.2669 180.157 30.9602 180.237C24.5562 181.835 17.7802 180.836 12.1102 177.457C9.31857 175.798 6.88525 173.599 4.95205 170.989C3.01886 168.38 1.62448 165.411 0.850216 162.257C0.0871756 159.093 -0.0450324 155.808 0.461178 152.592C0.967389 149.376 2.10211 146.292 3.8005 143.514C5.4989 140.737 7.72771 138.321 10.3597 136.405C12.9917 134.489 15.9753 133.11 19.1402 132.347L19.7502 132.197L20.4002 132.027C23.661 131.19 26.8404 130.062 29.9002 128.657C33.0192 127.234 36.0045 125.534 38.8202 123.577L209.85 4.83737L215.85 0.697371C216.22 0.567371 216.58 0.457371 216.96 0.357371C219.249 -0.176183 221.638 -0.103803 223.89 0.567371C217.8 18.3674 204.02 65.6374 214.15 107.067C224.37 148.907 259.09 184.767 272.62 197.487Z" fill="#E2ECFF"/>
<path d="M133.284 71.2704C134.686 69.8523 135.032 67.9222 134.058 66.9595C133.083 65.9968 131.158 66.3659 129.756 67.7841C128.355 69.2022 128.009 71.1323 128.983 72.095C129.957 73.0577 131.883 72.6886 133.284 71.2704Z" fill="white"/>
<path d="M100.54 91.9174C100.196 91.9214 99.8601 91.8139 99.5824 91.6108C99.3048 91.4077 99.1005 91.1201 99.0002 90.791C98.8999 90.462 98.9091 90.1093 99.0262 89.7859C99.1434 89.4625 99.3623 89.1858 99.65 88.9974L122.31 73.9074C122.663 73.7 123.081 73.6356 123.48 73.7272C123.878 73.8189 124.227 74.0597 124.453 74.4002C124.68 74.7407 124.767 75.155 124.698 75.558C124.629 75.9611 124.407 76.3223 124.08 76.5674L101.42 91.6574C101.159 91.8292 100.853 91.9197 100.54 91.9174Z" fill="white"/>
<path d="M275.88 92.2474C287.88 140.987 286.09 184.537 272.62 197.477C270.915 199.19 268.78 200.413 266.44 201.017C266.24 201.067 266.05 201.117 265.85 201.147C263.222 201.615 260.516 201.334 258.04 200.337C240.35 193.757 219.24 156.697 207.5 109.107C195.76 61.5174 197.22 18.8474 209.85 4.83738C211.461 2.96196 213.527 1.53276 215.85 0.68738C216.214 0.557717 216.584 0.447561 216.96 0.35738C219.248 -0.179423 221.637 -0.11049 223.89 0.55738C241.85 5.53738 263.82 43.3374 275.88 92.2474Z" fill="#90B7F4"/>
<path d="M228.73 129.047L220.3 133.907C216.46 125.687 214.57 116.687 212.44 107.787C210.6 100.067 208.44 92.1974 207.97 84.2874L217.67 83.5974L217 85.6674C215.61 102.957 219.28 116.507 228.77 129.047H228.73Z" fill="#7A61E5"/>
<path d="M41.79 178.647C41.44 178.647 41.1 178.647 40.79 178.707C37.7927 178.908 34.8164 179.349 31.89 180.027C22.8094 165.759 18.7647 148.861 20.4 132.027C23.6608 131.19 26.8402 130.062 29.9 128.657C28.486 137.362 28.8086 146.261 30.8492 154.841C32.8899 163.42 36.6082 171.511 41.79 178.647Z" fill="#C5D9F9"/>
<path d="M216 190.327H215.85L114.77 180.447C114.372 180.409 114.006 180.214 113.752 179.906C113.498 179.597 113.377 179.2 113.415 178.802C113.454 178.405 113.649 178.038 113.957 177.784C114.266 177.53 114.662 177.409 115.06 177.447L216.14 187.327C216.538 187.346 216.912 187.522 217.18 187.816C217.449 188.111 217.589 188.5 217.57 188.897C217.552 189.295 217.376 189.669 217.081 189.938C216.787 190.206 216.398 190.346 216 190.327Z" fill="#C5D9F9"/>
<path opacity="0.7" d="M183.64 124.347C189.566 124.347 194.37 114.489 194.37 102.327C194.37 90.1661 189.566 80.3074 183.64 80.3074C177.714 80.3074 172.91 90.1661 172.91 102.327C172.91 114.489 177.714 124.347 183.64 124.347Z" fill="white"/>
<path opacity="0.7" d="M162.75 93.0574C164.965 93.0574 166.76 89.3727 166.76 84.8274C166.76 80.2821 164.965 76.5974 162.75 76.5974C160.536 76.5974 158.74 80.2821 158.74 84.8274C158.74 89.3727 160.536 93.0574 162.75 93.0574Z" fill="white"/>
<path d="M238.39 82.1575L207.92 84.2575L212.77 110.887L220.63 133.667L247.41 118.587L238.39 82.1575Z" fill="#977AF3"/>
<path d="M248 99.1173C250.22 108.117 249.89 116.197 247.39 118.587C247.074 118.903 246.681 119.131 246.25 119.247H246.14C245.655 119.335 245.156 119.283 244.7 119.097C241.42 117.877 237.52 111.027 235.35 102.217C233.18 93.4073 233.44 85.5273 235.78 82.9273C236.082 82.5848 236.463 82.3206 236.89 82.1573L237.09 82.0973C237.513 81.9881 237.957 81.9881 238.38 82.0973C241.72 83.0773 245.79 90.0773 248 99.1173Z" fill="#FCD32E"/>
<path opacity="0.67" d="M244.5 99.9874C245.5 103.987 245.34 107.567 244.23 108.627C244.093 108.773 243.915 108.874 243.72 108.917C243.501 108.953 243.277 108.928 243.07 108.847C241.62 108.307 239.89 105.257 238.92 101.357C237.95 97.4574 238.08 93.9474 239.12 92.7874C239.253 92.6359 239.421 92.5191 239.61 92.4474H239.7C239.887 92.3978 240.083 92.3978 240.27 92.4474C241.71 92.8674 243.51 95.9874 244.5 99.9874Z" fill="white"/>
<path d="M262.39 195.437C260.581 195.406 258.797 195.015 257.14 194.287C241.14 187.607 222.47 152.287 211.64 108.357C200.81 64.4275 200.94 24.5775 211.92 11.1875L212 11.0975C213.43 9.29548 215.32 7.91341 217.47 7.09746C217.81 6.97746 218.16 6.86746 218.47 6.77746C220.622 6.28161 222.87 6.3959 224.96 7.10746C241.02 12.2275 260.73 48.5675 271.82 93.5275C282.82 138.277 282.36 179.527 270.64 191.707C269.111 193.384 267.127 194.579 264.93 195.147C264.729 195.201 264.526 195.245 264.32 195.277C263.683 195.389 263.037 195.442 262.39 195.437ZM213.6 12.2975L213.53 12.3775C203.03 25.0275 203.05 65.1875 213.58 107.877C224.11 150.567 242.74 186.087 257.92 192.437C259.834 193.323 261.969 193.615 264.05 193.277C264.202 193.255 264.353 193.222 264.5 193.177C266.328 192.696 267.978 191.696 269.25 190.297C280.53 178.607 280.81 138.097 269.93 93.9775C259 49.6475 239.85 13.9075 224.4 8.98746C222.663 8.38663 220.793 8.28273 219 8.68746C218.716 8.75896 218.435 8.84576 218.16 8.94746C216.367 9.63472 214.792 10.7918 213.6 12.2975Z" fill="#E2ECFF"/>
</svg>
