<svg width="629" height="530" viewBox="0 0 629 530" fill="none" xmlns="http://www.w3.org/2000/svg">
<path opacity="0.52" d="M560.47 97.8774H76.8899C56.0688 97.8774 39.1899 114.756 39.1899 135.577V405.927C39.1899 426.749 56.0688 443.627 76.8899 443.627H560.47C581.291 443.627 598.17 426.749 598.17 405.927V135.577C598.17 114.756 581.291 97.8774 560.47 97.8774Z" fill="url(#paint0_linear_77_1164)"/>
<path d="M324.37 392.307H84.9299C83.0734 392.307 81.2929 391.57 79.9802 390.257C78.6674 388.944 77.9299 387.164 77.9299 385.307C77.9299 383.451 78.6674 381.67 79.9802 380.358C81.2929 379.045 83.0734 378.307 84.9299 378.307H324.37C326.226 378.307 328.007 379.045 329.32 380.358C330.632 381.67 331.37 383.451 331.37 385.307C331.37 387.164 330.632 388.944 329.32 390.257C328.007 391.57 326.226 392.307 324.37 392.307Z" fill="#F7FAFC"/>
<path d="M196.75 358.427H84.9299C83.0734 358.427 81.2929 357.69 79.9802 356.377C78.6674 355.064 77.9299 353.284 77.9299 351.427C77.9299 349.571 78.6674 347.79 79.9802 346.478C81.2929 345.165 83.0734 344.427 84.9299 344.427H196.75C198.606 344.427 200.387 345.165 201.7 346.478C203.012 347.79 203.75 349.571 203.75 351.427C203.75 353.284 203.012 355.064 201.7 356.377C200.387 357.69 198.606 358.427 196.75 358.427Z" fill="#F7FAFC"/>
<path d="M196.75 324.547H84.9299C83.0734 324.547 81.2929 323.81 79.9802 322.497C78.6674 321.184 77.9299 319.404 77.9299 317.547C77.9299 315.691 78.6674 313.91 79.9802 312.598C81.2929 311.285 83.0734 310.547 84.9299 310.547H196.75C198.606 310.547 200.387 311.285 201.7 312.598C203.012 313.91 203.75 315.691 203.75 317.547C203.75 319.404 203.012 321.184 201.7 322.497C200.387 323.81 198.606 324.547 196.75 324.547Z" fill="#F7FAFC"/>
<path d="M196.75 256.777H84.9299C83.0734 256.777 81.2929 256.04 79.9802 254.727C78.6674 253.414 77.9299 251.634 77.9299 249.777C77.9299 247.921 78.6674 246.14 79.9802 244.828C81.2929 243.515 83.0734 242.777 84.9299 242.777H196.75C198.606 242.777 200.387 243.515 201.7 244.828C203.012 246.14 203.75 247.921 203.75 249.777C203.75 251.634 203.012 253.414 201.7 254.727C200.387 256.04 198.606 256.777 196.75 256.777Z" fill="#F7FAFC"/>
<path d="M262.25 290.667H84.9299C83.0734 290.667 81.2929 289.93 79.9802 288.617C78.6674 287.304 77.9299 285.524 77.9299 283.667C77.9299 281.811 78.6674 280.03 79.9802 278.718C81.2929 277.405 83.0734 276.667 84.9299 276.667H262.25C264.106 276.667 265.887 277.405 267.2 278.718C268.512 280.03 269.25 281.811 269.25 283.667C269.25 285.524 268.512 287.304 267.2 288.617C265.887 289.93 264.106 290.667 262.25 290.667Z" fill="#F7FAFC"/>
<path d="M117.97 220.987C136.217 220.987 151.01 206.195 151.01 187.947C151.01 169.7 136.217 154.907 117.97 154.907C99.7224 154.907 84.9299 169.7 84.9299 187.947C84.9299 206.195 99.7224 220.987 117.97 220.987Z" fill="white"/>
<path d="M439.75 396.917C440.82 398.687 443.42 398.487 445.03 399.777C448.71 402.727 453.03 404.307 462.39 403.877C461.77 406.317 459.61 408.047 457.39 409.287C453.751 411.316 449.717 412.537 445.563 412.867C441.41 413.196 437.234 412.627 433.32 411.197" fill="#78AD04"/>
<path d="M437.66 395.757C437.85 398.567 441.14 399.957 442.29 402.537C444.92 408.417 449.23 413.067 460.82 418.377C458.54 420.957 454.82 421.707 451.39 421.837C445.697 422.025 440.031 420.984 434.777 418.786C429.522 416.587 424.803 413.283 420.94 409.097" fill="#83CE00"/>
<path d="M384.41 482.377C385.48 484.147 388.08 483.947 389.69 485.237C393.37 488.187 397.69 489.767 407.05 489.327C406.43 491.777 404.27 493.507 402.05 494.747C398.413 496.773 394.383 497.992 390.233 498.322C386.083 498.652 381.911 498.084 378 496.657" fill="#78AD04"/>
<path d="M382.32 481.217C382.51 484.027 385.8 485.417 386.95 487.987C389.58 493.877 393.89 498.527 405.48 503.837C403.2 506.417 399.48 507.167 396.05 507.297C390.357 507.486 384.691 506.446 379.436 504.248C374.181 502.049 369.462 498.744 365.6 494.557" fill="#83CE00"/>
<path d="M420.59 403.807C418.59 403.407 417.87 400.897 416.11 399.807C412.11 397.357 409.11 393.807 406.35 384.887C404.26 386.297 403.35 388.887 402.95 391.407C402.282 395.52 402.508 399.728 403.612 403.745C404.717 407.762 406.674 411.494 409.35 414.687" fill="#78AD04"/>
<path d="M422.4 405.377C419.69 406.157 417.26 403.537 414.45 403.377C408.02 402.907 402.18 400.437 393.25 391.377C391.59 394.377 392.15 398.147 393.2 401.427C394.962 406.844 397.87 411.818 401.727 416.009C405.583 420.201 410.298 423.512 415.55 425.717" fill="#83CE00"/>
<path d="M395.75 428.657C393.75 428.257 393.02 425.737 391.26 424.657C387.26 422.197 384.26 418.657 381.5 409.737C379.41 411.147 378.5 413.737 378.1 416.247C377.434 420.361 377.66 424.57 378.765 428.589C379.869 432.608 381.825 436.342 384.5 439.537" fill="#78AD04"/>
<path d="M397.55 430.227C394.84 431.007 392.41 428.387 389.6 428.177C383.18 427.717 377.34 425.247 368.4 416.177C366.74 419.177 367.31 422.947 368.4 426.227C370.164 431.643 373.074 436.616 376.933 440.805C380.791 444.995 385.507 448.304 390.76 450.507" fill="#83CE00"/>
<path d="M364.12 471.197C362.12 470.797 361.4 468.277 359.64 467.197C355.64 464.747 352.64 461.197 349.88 452.277C347.79 453.687 346.88 456.277 346.48 458.797C345.812 462.91 346.038 467.118 347.142 471.135C348.247 475.152 350.204 478.884 352.88 482.077" fill="#78AD04"/>
<path d="M365.93 472.767C363.22 473.547 360.79 470.927 357.98 470.767C351.55 470.307 345.71 467.837 336.77 458.767C335.12 461.767 335.68 465.537 336.77 468.817C338.533 474.233 341.442 479.206 345.299 483.397C349.155 487.589 353.869 490.9 359.12 493.107" fill="#83CE00"/>
<path d="M394.14 408.327C400.96 426.607 417.63 437.087 433.14 443.057C442.5 426.617 452.2 407.007 454.22 388.057C454.94 381.327 456.47 370.407 449.8 369.257C446.44 368.687 440.19 372.517 437.31 374.337C421.808 384.179 407.344 395.567 394.14 408.327Z" fill="#ADE701"/>
<path d="M363.64 443.087C373.04 462.007 393.53 471.577 409.83 476.347C414.74 470.437 419.42 464.347 423.77 457.997C427.11 453.117 430.26 448.137 433.15 443.047C417.63 437.047 400.96 426.597 394.15 408.317C383.026 419.034 372.82 430.665 363.64 443.087Z" fill="#83CE00"/>
<path d="M326.7 513.987L374.18 514.127C386.55 502.017 398.79 489.657 409.83 476.357C393.53 471.587 373 461.987 363.64 443.097C347.595 464.587 335.122 488.525 326.7 513.987Z" fill="#ADE701"/>
<path d="M344.7 514.717C344.591 514.72 344.485 514.684 344.4 514.617C344.347 514.578 344.303 514.529 344.27 514.472C344.236 514.416 344.214 514.353 344.205 514.288C344.196 514.223 344.199 514.157 344.216 514.093C344.232 514.03 344.261 513.97 344.3 513.917L446 379.797C446.081 379.693 446.199 379.625 446.33 379.606C446.46 379.588 446.593 379.62 446.7 379.697C446.805 379.778 446.873 379.898 446.89 380.029C446.906 380.16 446.871 380.292 446.79 380.397L345.1 514.517C345.053 514.579 344.992 514.629 344.923 514.664C344.854 514.698 344.777 514.717 344.7 514.717Z" fill="#78AD04"/>
<path d="M433.18 426.267C426.655 426.174 420.185 425.067 414 422.987C413.875 422.941 413.774 422.847 413.719 422.726C413.663 422.605 413.658 422.467 413.705 422.342C413.751 422.218 413.845 422.117 413.966 422.061C414.087 422.006 414.225 422.001 414.35 422.047C421.461 424.44 428.956 425.485 436.45 425.127C436.515 425.121 436.582 425.127 436.644 425.147C436.707 425.167 436.765 425.199 436.815 425.242C436.865 425.285 436.905 425.338 436.933 425.398C436.962 425.457 436.978 425.522 436.98 425.587C436.985 425.653 436.978 425.718 436.957 425.78C436.937 425.843 436.905 425.9 436.862 425.949C436.819 425.999 436.766 426.039 436.708 426.068C436.649 426.097 436.585 426.114 436.52 426.117C435.38 426.237 434.27 426.267 433.18 426.267Z" fill="#78AD04"/>
<path d="M411 426.537C410.939 426.539 410.879 426.528 410.822 426.505C410.765 426.483 410.714 426.45 410.67 426.407C406.509 422.518 403.117 417.881 400.67 412.737C400.644 412.677 400.63 412.612 400.628 412.546C400.627 412.48 400.639 412.415 400.663 412.354C400.687 412.292 400.723 412.236 400.769 412.189C400.815 412.142 400.87 412.104 400.93 412.077C400.99 412.051 401.055 412.037 401.121 412.036C401.187 412.035 401.253 412.047 401.314 412.071C401.375 412.095 401.431 412.131 401.478 412.177C401.526 412.222 401.564 412.277 401.59 412.337C403.982 417.349 407.292 421.867 411.35 425.657C411.428 425.724 411.484 425.813 411.509 425.913C411.535 426.012 411.529 426.117 411.493 426.213C411.457 426.309 411.392 426.392 411.308 426.45C411.223 426.508 411.123 426.538 411.02 426.537H411Z" fill="#78AD04"/>
<path d="M395.81 446.177C395.681 446.18 395.556 446.133 395.46 446.047C391.432 442.016 388.193 437.268 385.91 432.047C385.86 431.925 385.861 431.789 385.911 431.667C385.962 431.545 386.058 431.448 386.18 431.397C386.241 431.372 386.306 431.358 386.373 431.359C386.439 431.359 386.504 431.372 386.565 431.399C386.626 431.425 386.68 431.463 386.726 431.511C386.772 431.559 386.807 431.615 386.83 431.677C389.06 436.765 392.221 441.391 396.15 445.317C396.221 445.386 396.271 445.475 396.292 445.571C396.313 445.668 396.305 445.769 396.268 445.861C396.232 445.953 396.169 446.033 396.087 446.089C396.006 446.145 395.909 446.176 395.81 446.177Z" fill="#78AD04"/>
<path d="M371.83 477.887C371.754 477.888 371.678 477.87 371.61 477.836C371.542 477.801 371.484 477.75 371.44 477.687C368.062 473.1 365.582 467.916 364.13 462.407C364.098 462.275 364.12 462.135 364.192 462.019C364.263 461.902 364.377 461.819 364.51 461.787C364.643 461.756 364.782 461.778 364.899 461.849C365.015 461.92 365.098 462.035 365.13 462.167C366.55 467.541 368.969 472.599 372.26 477.077C372.315 477.153 372.348 477.241 372.356 477.334C372.364 477.427 372.346 477.52 372.305 477.603C372.264 477.687 372.2 477.757 372.122 477.807C372.044 477.858 371.953 477.885 371.86 477.887H371.83Z" fill="#78AD04"/>
<path d="M388 487.257C381.472 487.168 374.999 486.065 368.81 483.987C368.686 483.938 368.586 483.843 368.53 483.722C368.474 483.601 368.467 483.464 368.51 483.337C368.532 483.276 368.566 483.219 368.611 483.171C368.655 483.123 368.709 483.084 368.769 483.057C368.828 483.03 368.893 483.015 368.958 483.014C369.024 483.012 369.089 483.023 369.15 483.047C376.261 485.44 383.756 486.481 391.25 486.117C391.383 486.108 391.513 486.152 391.614 486.239C391.714 486.326 391.776 486.45 391.785 486.582C391.794 486.715 391.75 486.846 391.663 486.946C391.576 487.047 391.453 487.108 391.32 487.117C390.21 487.217 389.09 487.257 388 487.257Z" fill="#78AD04"/>
<path d="M400.7 460.317H400.64C396.34 459.804 392.104 458.849 388 457.467C387.876 457.418 387.776 457.323 387.72 457.202C387.664 457.081 387.657 456.944 387.7 456.817C387.747 456.695 387.841 456.595 387.96 456.541C388.08 456.487 388.216 456.482 388.34 456.527C392.365 457.885 396.521 458.82 400.74 459.317C400.872 459.335 400.992 459.403 401.074 459.508C401.156 459.613 401.194 459.745 401.18 459.877C401.166 459.996 401.109 460.106 401.021 460.186C400.933 460.267 400.819 460.313 400.7 460.317Z" fill="#78AD04"/>
<path d="M442.2 405.537H442.14C437.842 405.028 433.61 404.073 429.51 402.687C429.448 402.665 429.392 402.631 429.344 402.586C429.295 402.542 429.257 402.488 429.23 402.429C429.203 402.369 429.188 402.304 429.186 402.239C429.185 402.174 429.196 402.108 429.22 402.047C429.265 401.923 429.358 401.821 429.478 401.765C429.598 401.709 429.735 401.702 429.86 401.747C433.885 403.107 438.041 404.046 442.26 404.547C442.326 404.551 442.39 404.568 442.449 404.597C442.508 404.626 442.561 404.666 442.605 404.715C442.648 404.764 442.682 404.822 442.703 404.884C442.725 404.946 442.734 405.012 442.73 405.077C442.726 405.143 442.709 405.207 442.68 405.266C442.652 405.326 442.611 405.378 442.562 405.422C442.513 405.466 442.456 405.499 442.394 405.521C442.331 405.542 442.266 405.551 442.2 405.547V405.537Z" fill="#78AD04"/>
<path d="M415.1 441.397H415C410.702 440.89 406.469 439.934 402.37 438.547C402.249 438.5 402.151 438.407 402.098 438.288C402.044 438.169 402.039 438.034 402.083 437.912C402.127 437.79 402.218 437.689 402.335 437.632C402.452 437.576 402.586 437.567 402.71 437.607C406.736 438.966 410.891 439.904 415.11 440.407C415.243 440.407 415.37 440.46 415.463 440.554C415.557 440.648 415.61 440.775 415.61 440.907C415.61 441.04 415.557 441.167 415.463 441.261C415.37 441.355 415.243 441.407 415.11 441.407L415.1 441.397Z" fill="#78AD04"/>
<path d="M422 411.987C421.932 411.988 421.865 411.974 421.803 411.946C421.741 411.918 421.685 411.878 421.64 411.827C419.902 409.942 418.298 407.937 416.84 405.827C416.766 405.717 416.738 405.582 416.763 405.451C416.787 405.32 416.861 405.204 416.97 405.127C417.079 405.054 417.213 405.027 417.342 405.051C417.471 405.075 417.585 405.149 417.66 405.257C419.092 407.337 420.666 409.315 422.37 411.177C422.417 411.224 422.454 411.279 422.48 411.34C422.505 411.401 422.518 411.466 422.518 411.532C422.518 411.598 422.505 411.664 422.48 411.725C422.454 411.786 422.417 411.841 422.37 411.887C422.264 411.967 422.132 412.002 422 411.987Z" fill="#78AD04"/>
<path d="M359.25 494.867C359.182 494.868 359.115 494.854 359.053 494.826C358.991 494.798 358.935 494.758 358.89 494.707C357.152 492.821 355.548 490.817 354.09 488.707C354.048 488.654 354.018 488.592 354.001 488.527C353.984 488.461 353.981 488.392 353.991 488.325C354.001 488.258 354.025 488.194 354.061 488.136C354.097 488.079 354.144 488.029 354.2 487.99C354.255 487.952 354.318 487.925 354.385 487.911C354.451 487.898 354.52 487.898 354.586 487.911C354.653 487.925 354.716 487.952 354.771 487.991C354.827 488.03 354.874 488.08 354.91 488.137C356.341 490.215 357.911 492.193 359.61 494.057C359.657 494.104 359.694 494.159 359.719 494.22C359.745 494.281 359.758 494.346 359.758 494.412C359.758 494.478 359.745 494.544 359.719 494.605C359.694 494.666 359.657 494.721 359.61 494.767C359.508 494.847 359.378 494.883 359.25 494.867Z" fill="#78AD04"/>
<path d="M342.33 490.817C339.48 493.817 336.82 497.147 335.33 501.097C333.71 505.447 333.71 510.207 334.04 514.777C334.1 515.777 335.61 515.777 335.54 514.777C335.23 510.417 335.2 505.917 336.68 501.777C338.04 497.967 340.68 494.777 343.36 491.907C344.02 491.197 342.96 490.137 342.3 490.847L342.33 490.817Z" fill="#78AD04"/>
<path d="M147.19 410.987C146.01 411.987 144.25 411.157 142.81 411.647C139.52 412.767 136.11 412.767 129.76 410.137C129.57 411.987 130.64 413.727 131.85 415.137C133.866 417.452 136.355 419.306 139.151 420.575C141.946 421.843 144.981 422.495 148.05 422.487" fill="#78AD04"/>
<path d="M148.92 410.667C148.09 412.567 145.46 412.717 144.02 414.207C140.73 417.627 136.58 419.777 127.22 420.547C128.15 422.917 130.53 424.357 132.88 425.317C136.779 426.87 140.966 427.565 145.158 427.355C149.349 427.144 153.446 426.033 157.17 424.097" fill="#83CE00"/>
<path d="M164.14 483.987C162.97 484.987 161.21 484.157 159.77 484.647C156.48 485.767 153.07 485.767 146.72 483.137C146.53 484.987 147.6 486.727 148.81 488.137C150.823 490.455 153.313 492.311 156.108 493.579C158.904 494.847 161.94 495.498 165.01 495.487" fill="#78AD04"/>
<path d="M165.88 483.747C165.05 485.647 162.42 485.747 160.98 487.287C157.69 490.707 153.54 492.847 144.18 493.627C145.11 495.987 147.49 497.427 149.84 498.387C153.738 499.942 157.925 500.638 162.117 500.43C166.308 500.221 170.406 499.112 174.13 497.177" fill="#83CE00"/>
<path d="M158.74 420.527C160.24 420.757 161.36 419.187 162.84 418.887C166.25 418.187 169.2 416.467 173.34 410.987C174.44 412.487 174.4 414.527 174.07 416.357C173.503 419.374 172.293 422.233 170.523 424.74C168.752 427.247 166.463 429.344 163.81 430.887" fill="#78AD04"/>
<path d="M157.09 421.157C158.77 422.377 161.09 421.157 163.09 421.737C167.66 423.017 172.33 422.737 180.8 418.737C181.19 421.247 179.86 423.737 178.31 425.737C175.735 429.049 172.476 431.766 168.755 433.704C165.034 435.642 160.94 436.755 156.75 436.967" fill="#83CE00"/>
<path d="M169.74 443.987C171.24 444.217 172.36 442.647 173.84 442.337C177.25 441.647 180.2 439.917 184.34 434.447C185.44 435.947 185.4 437.987 185.06 439.807C184.497 442.827 183.289 445.689 181.518 448.198C179.747 450.707 177.456 452.805 174.8 454.347" fill="#78AD04"/>
<path d="M168.09 444.597C169.77 445.817 172.09 444.597 174.09 445.167C178.66 446.457 183.33 446.167 191.8 442.167C192.19 444.677 190.86 447.167 189.31 449.167C186.734 452.481 183.473 455.2 179.751 457.14C176.029 459.08 171.932 460.194 167.74 460.407" fill="#83CE00"/>
<path d="M181 481.357C182.5 481.587 183.62 480.017 185.11 479.717C188.51 479.027 191.46 477.297 195.61 471.817C196.7 473.317 196.61 475.357 196.33 477.187C195.763 480.204 194.553 483.063 192.783 485.57C191.012 488.077 188.723 490.174 186.07 491.717" fill="#78AD04"/>
<path d="M179.36 481.987C181.04 483.197 183.36 481.987 185.36 482.557C189.93 483.847 194.59 483.557 203.06 479.557C203.45 482.057 202.13 484.557 200.58 486.557C197.996 489.862 194.732 492.572 191.008 494.505C187.285 496.437 183.19 497.547 179 497.757" fill="#83CE00"/>
<path d="M175.94 430.277C166.64 441.277 152.46 444.277 140.21 444.577C137.84 430.847 136.03 414.827 139.38 401.157C140.57 396.317 142.24 388.367 147.15 389.237C149.62 389.687 152.99 393.907 154.53 395.887C162.814 406.595 169.988 418.118 175.94 430.277Z" fill="#ADE701"/>
<path d="M188.37 461.987C177.12 472.747 160.53 474.247 148.04 473.477C146.11 468.147 144.4 462.747 142.97 457.267C141.88 453.047 140.97 448.807 140.21 444.557C152.46 444.307 166.64 441.217 175.94 430.257C180.964 440.467 185.122 451.081 188.37 461.987Z" fill="#83CE00"/>
<path d="M196.23 520.377L163.29 508.587C157.594 497.161 152.49 485.449 148 473.497C160.49 474.267 177.08 472.767 188.33 462.007C194.087 480.912 196.755 500.622 196.23 520.377Z" fill="#ADE701"/>
<path d="M183.7 516.397C183.62 516.397 183.543 516.372 183.478 516.325C183.413 516.279 183.365 516.213 183.34 516.137L146.48 397.757C146.464 397.711 146.458 397.663 146.462 397.615C146.466 397.566 146.48 397.519 146.502 397.476C146.524 397.433 146.555 397.395 146.593 397.365C146.63 397.334 146.673 397.311 146.72 397.297C146.813 397.269 146.913 397.278 146.999 397.323C147.085 397.368 147.15 397.445 147.18 397.537L184.05 515.927C184.064 515.974 184.068 516.023 184.063 516.071C184.058 516.12 184.043 516.166 184.02 516.209C183.997 516.252 183.966 516.29 183.928 516.32C183.89 516.351 183.847 516.374 183.8 516.387L183.7 516.397Z" fill="#78AD04"/>
<path d="M158.5 435.487C152.869 435.356 147.313 434.169 142.12 431.987C142.031 431.946 141.963 431.871 141.929 431.78C141.895 431.688 141.899 431.586 141.94 431.497C141.96 431.454 141.987 431.415 142.022 431.382C142.057 431.349 142.098 431.324 142.142 431.307C142.187 431.29 142.235 431.283 142.282 431.284C142.33 431.286 142.377 431.297 142.42 431.317C147.522 433.439 152.975 434.592 158.5 434.717C158.549 434.716 158.597 434.724 158.642 434.742C158.688 434.759 158.729 434.785 158.765 434.819C158.8 434.852 158.828 434.892 158.848 434.937C158.868 434.981 158.879 435.029 158.88 435.077C158.878 435.175 158.838 435.267 158.769 435.336C158.7 435.405 158.607 435.445 158.51 435.447L158.5 435.487Z" fill="#78AD04"/>
<path d="M159.82 438.697C159.736 438.694 159.656 438.662 159.593 438.607C159.529 438.552 159.487 438.477 159.471 438.394C159.456 438.312 159.47 438.226 159.509 438.153C159.549 438.079 159.613 438.02 159.69 437.987C163.453 436.377 166.879 434.074 169.79 431.197C169.822 431.156 169.862 431.122 169.908 431.097C169.953 431.073 170.004 431.058 170.056 431.054C170.108 431.05 170.16 431.057 170.209 431.075C170.258 431.093 170.302 431.12 170.34 431.157C170.377 431.193 170.407 431.236 170.426 431.284C170.446 431.333 170.455 431.384 170.453 431.436C170.451 431.488 170.438 431.539 170.415 431.586C170.393 431.633 170.36 431.674 170.32 431.707C167.332 434.665 163.819 437.039 159.96 438.707L159.82 438.697Z" fill="#78AD04"/>
<path d="M165.43 456.117C165.359 456.115 165.289 456.092 165.231 456.051C165.172 456.01 165.127 455.953 165.1 455.887C165.079 455.844 165.067 455.796 165.065 455.748C165.063 455.699 165.071 455.651 165.089 455.606C165.107 455.56 165.134 455.519 165.169 455.485C165.203 455.451 165.245 455.425 165.29 455.407C168.996 453.672 172.344 451.257 175.16 448.287C175.192 448.252 175.231 448.223 175.274 448.203C175.318 448.182 175.364 448.171 175.412 448.168C175.46 448.166 175.508 448.173 175.553 448.189C175.598 448.205 175.639 448.23 175.675 448.262C175.71 448.295 175.739 448.333 175.76 448.377C175.78 448.42 175.792 448.467 175.794 448.515C175.796 448.563 175.789 448.61 175.773 448.655C175.757 448.7 175.732 448.742 175.7 448.777C172.811 451.822 169.379 454.301 165.58 456.087L165.43 456.117Z" fill="#78AD04"/>
<path d="M174.11 484.087C174.048 484.087 173.988 484.072 173.933 484.042C173.879 484.012 173.833 483.969 173.8 483.917C173.773 483.876 173.755 483.83 173.746 483.782C173.737 483.734 173.739 483.684 173.75 483.637C173.761 483.589 173.782 483.544 173.811 483.504C173.841 483.465 173.878 483.432 173.92 483.407C177.315 481.122 180.252 478.222 182.58 474.857C182.637 474.776 182.723 474.721 182.82 474.702C182.917 474.683 183.017 474.703 183.1 474.757C183.18 474.812 183.236 474.896 183.255 474.992C183.273 475.087 183.254 475.186 183.2 475.267C180.809 478.717 177.794 481.688 174.31 484.027C174.251 484.067 174.181 484.088 174.11 484.087Z" fill="#78AD04"/>
<path d="M174.54 489.057C168.912 488.939 163.356 487.765 158.16 485.597C158.071 485.556 158.003 485.481 157.969 485.39C157.935 485.298 157.939 485.196 157.98 485.107C158 485.064 158.027 485.025 158.062 484.992C158.097 484.959 158.138 484.934 158.182 484.917C158.227 484.9 158.275 484.893 158.322 484.894C158.37 484.896 158.417 484.907 158.46 484.927C163.565 487.053 169.022 488.206 174.55 488.327C174.599 488.325 174.647 488.332 174.693 488.349C174.738 488.366 174.78 488.392 174.814 488.426C174.849 488.46 174.877 488.501 174.895 488.546C174.913 488.591 174.922 488.639 174.92 488.687C174.92 488.785 174.881 488.88 174.812 488.949C174.742 489.018 174.648 489.057 174.55 489.057H174.54Z" fill="#78AD04"/>
<path d="M167.87 465.857C164.688 465.791 161.521 465.395 158.42 464.677C158.327 464.653 158.246 464.593 158.197 464.51C158.147 464.427 158.131 464.328 158.153 464.234C158.176 464.14 158.234 464.059 158.315 464.007C158.397 463.955 158.496 463.937 158.59 463.957C161.637 464.674 164.751 465.067 167.88 465.127C167.977 465.127 168.069 465.165 168.138 465.232C168.207 465.299 168.248 465.391 168.25 465.487C168.253 465.536 168.246 465.584 168.229 465.63C168.212 465.675 168.185 465.717 168.152 465.752C168.118 465.786 168.077 465.814 168.032 465.832C167.987 465.85 167.939 465.859 167.89 465.857H167.87Z" fill="#78AD04"/>
<path d="M152.82 417.517C149.637 417.45 146.47 417.052 143.37 416.327C143.322 416.318 143.277 416.299 143.237 416.271C143.197 416.244 143.163 416.208 143.138 416.167C143.113 416.125 143.096 416.079 143.09 416.031C143.083 415.983 143.087 415.934 143.1 415.887C143.121 415.792 143.18 415.709 143.262 415.657C143.345 415.604 143.444 415.586 143.54 415.607C146.586 416.33 149.7 416.723 152.83 416.777C152.928 416.777 153.022 416.816 153.092 416.886C153.161 416.955 153.2 417.049 153.2 417.147C153.2 417.246 153.161 417.34 153.092 417.409C153.022 417.478 152.928 417.517 152.83 417.517H152.82Z" fill="#78AD04"/>
<path d="M162.63 449.147C159.448 449.08 156.281 448.685 153.18 447.967C153.084 447.944 153.001 447.883 152.948 447.799C152.896 447.715 152.879 447.614 152.9 447.517C152.926 447.423 152.987 447.342 153.071 447.292C153.155 447.242 153.255 447.226 153.35 447.247C156.396 447.965 159.511 448.354 162.64 448.407C162.689 448.406 162.738 448.415 162.783 448.433C162.829 448.451 162.87 448.478 162.905 448.513C162.939 448.547 162.966 448.589 162.985 448.634C163.003 448.68 163.011 448.728 163.01 448.777C163.01 448.875 162.971 448.97 162.902 449.039C162.832 449.108 162.738 449.147 162.64 449.147H162.63Z" fill="#78AD04"/>
<path d="M155.83 425.867C155.748 425.866 155.668 425.837 155.604 425.785C155.54 425.732 155.495 425.66 155.477 425.58C155.458 425.499 155.467 425.415 155.502 425.34C155.537 425.266 155.596 425.205 155.67 425.167C157.314 424.297 158.897 423.318 160.41 422.237C160.49 422.197 160.581 422.187 160.667 422.209C160.753 422.231 160.829 422.283 160.88 422.356C160.931 422.428 160.954 422.517 160.945 422.606C160.936 422.694 160.895 422.776 160.83 422.837C159.292 423.953 157.674 424.956 155.99 425.837C155.941 425.862 155.885 425.873 155.83 425.867Z" fill="#78AD04"/>
<path d="M178.58 498.987C178.511 498.985 178.445 498.964 178.387 498.927C178.329 498.89 178.282 498.838 178.25 498.777C178.228 498.734 178.215 498.687 178.212 498.639C178.208 498.59 178.215 498.542 178.231 498.496C178.247 498.45 178.272 498.408 178.304 498.373C178.337 498.337 178.376 498.308 178.42 498.287C180.063 497.417 181.647 496.438 183.16 495.357C183.199 495.321 183.245 495.293 183.295 495.276C183.345 495.259 183.399 495.254 183.451 495.259C183.504 495.264 183.555 495.281 183.601 495.308C183.647 495.335 183.686 495.371 183.716 495.415C183.747 495.458 183.768 495.508 183.777 495.56C183.787 495.612 183.785 495.666 183.772 495.717C183.759 495.769 183.735 495.817 183.702 495.858C183.669 495.9 183.627 495.933 183.58 495.957C182.036 497.065 180.419 498.067 178.74 498.957C178.689 498.978 178.635 498.988 178.58 498.987Z" fill="#78AD04"/>
<path d="M190.21 500.917C191.484 503.551 192.212 506.415 192.35 509.337C192.201 512.567 191.373 515.729 189.92 518.617C189.64 519.267 190.59 519.827 190.92 519.177C192.458 516.114 193.334 512.761 193.49 509.337C193.35 506.214 192.574 503.151 191.21 500.337C190.93 499.677 189.98 500.247 190.21 500.887V500.917Z" fill="#78AD04"/>
<path d="M142.14 406.747C142.14 406.747 142.2 406.307 142.14 406.447C142.14 406.327 142.14 406.207 142.14 406.087C142.14 405.797 142.23 405.517 142.27 405.227C142.36 404.637 142.47 404.057 142.57 403.477C142.78 402.337 143.02 401.197 143.27 400.067C143.325 399.923 143.349 399.769 143.341 399.614C143.333 399.46 143.293 399.309 143.223 399.171C143.154 399.033 143.056 398.911 142.936 398.813C142.817 398.715 142.678 398.644 142.529 398.602C142.38 398.561 142.224 398.551 142.071 398.574C141.919 398.596 141.772 398.65 141.641 398.733C141.51 398.815 141.398 398.924 141.312 399.052C141.226 399.18 141.167 399.325 141.14 399.477C140.6 401.887 140.14 404.307 139.84 406.747C139.84 407.04 139.956 407.321 140.162 407.529C140.368 407.737 140.647 407.855 140.94 407.857C141.232 407.85 141.51 407.73 141.717 407.524C141.923 407.317 142.043 407.039 142.05 406.747H142.14Z" fill="white"/>
<path d="M143.77 396.828C143.997 396.2 143.802 395.553 143.335 395.384C142.868 395.215 142.304 395.587 142.077 396.216C141.85 396.844 142.044 397.491 142.512 397.66C142.979 397.829 143.542 397.457 143.77 396.828Z" fill="white"/>
<path d="M200.4 519.987H147.81C146.617 519.987 145.472 519.513 144.628 518.669C143.784 517.825 143.31 516.681 143.31 515.487C143.31 514.294 143.784 513.149 144.628 512.305C145.472 511.461 146.617 510.987 147.81 510.987H200.4C201.594 510.987 202.738 511.461 203.582 512.305C204.426 513.149 204.9 514.294 204.9 515.487C204.9 516.681 204.426 517.825 203.582 518.669C202.738 519.513 201.594 519.987 200.4 519.987Z" fill="#83CE00"/>
<path d="M380.36 519.987H327.76C326.567 519.987 325.422 519.513 324.578 518.669C323.734 517.825 323.26 516.681 323.26 515.487C323.26 514.294 323.734 513.149 324.578 512.305C325.422 511.461 326.567 510.987 327.76 510.987H380.36C381.553 510.987 382.698 511.461 383.542 512.305C384.386 513.149 384.86 514.294 384.86 515.487C384.86 516.681 384.386 517.825 383.542 518.669C382.698 519.513 381.553 519.987 380.36 519.987Z" fill="#83CE00"/>
<path d="M477.22 519.987H469.62C468.427 519.987 467.282 519.513 466.438 518.669C465.594 517.825 465.12 516.681 465.12 515.487C465.12 514.294 465.594 513.149 466.438 512.305C467.282 511.461 468.427 510.987 469.62 510.987H477.22C478.414 510.987 479.558 511.461 480.402 512.305C481.246 513.149 481.72 514.294 481.72 515.487C481.72 516.681 481.246 517.825 480.402 518.669C479.558 519.513 478.414 519.987 477.22 519.987Z" fill="#83CE00"/>
<path d="M67.9301 519.987H60.3301C59.1366 519.987 57.992 519.513 57.1481 518.669C56.3042 517.825 55.8301 516.681 55.8301 515.487C55.8301 514.294 56.3042 513.149 57.1481 512.305C57.992 511.461 59.1366 510.987 60.3301 510.987H67.9301C69.1236 510.987 70.2681 511.461 71.1121 512.305C71.956 513.149 72.4301 514.294 72.4301 515.487C72.4301 516.681 71.956 517.825 71.1121 518.669C70.2681 519.513 69.1236 519.987 67.9301 519.987Z" fill="#83CE00"/>
<path d="M624 519.987H616.4C615.206 519.987 614.062 519.513 613.218 518.669C612.374 517.825 611.9 516.681 611.9 515.487C611.9 514.294 612.374 513.149 613.218 512.305C614.062 511.461 615.206 510.987 616.4 510.987H624C625.193 510.987 626.338 511.461 627.182 512.305C628.026 513.149 628.5 514.294 628.5 515.487C628.5 516.681 628.026 517.825 627.182 518.669C626.338 519.513 625.193 519.987 624 519.987Z" fill="#83CE00"/>
<path d="M452.64 519.987H448C446.807 519.987 445.662 519.513 444.818 518.669C443.974 517.825 443.5 516.681 443.5 515.487C443.5 514.294 443.974 513.149 444.818 512.305C445.662 511.461 446.807 510.987 448 510.987H452.6C453.793 510.987 454.938 511.461 455.782 512.305C456.626 513.149 457.1 514.294 457.1 515.487C457.1 516.681 456.626 517.825 455.782 518.669C454.938 519.513 453.793 519.987 452.6 519.987H452.64Z" fill="#83CE00"/>
<path d="M22.64 395.917C21.57 397.687 18.96 397.487 17.35 398.777C13.68 401.727 9.35 403.307 0 402.877C0.62 405.317 2.78 407.047 5 408.287C8.63026 410.306 12.6518 411.521 16.7924 411.851C20.9331 412.18 25.0962 411.616 29 410.197" fill="#78AD04"/>
<path d="M24.7201 394.757C24.5301 397.567 21.2401 398.957 20.0901 401.537C17.4701 407.417 13.1601 412.067 1.57007 417.377C3.85007 419.957 7.57007 420.707 11.0001 420.837C16.6927 421.025 22.359 419.984 27.6134 417.786C32.8678 415.587 37.5871 412.283 41.4501 408.097" fill="#83CE00"/>
<path d="M78.0001 481.377C76.9301 483.147 74.3201 482.947 72.7201 484.237C69.0401 487.187 64.7201 488.767 55.3601 488.327C55.9801 490.777 58.1401 492.507 60.3601 493.747C63.9995 495.776 68.0333 496.997 72.1869 497.327C76.3405 497.656 80.5163 497.087 84.4301 495.657" fill="#78AD04"/>
<path d="M80.0599 480.217C79.8699 483.027 76.5799 484.417 75.4299 486.987C72.8099 492.877 68.4999 497.527 56.9099 502.837C59.1899 505.417 62.9099 506.167 66.3399 506.297C72.0326 506.485 77.6989 505.444 82.9533 503.246C88.2077 501.047 92.9269 497.743 96.7899 493.557" fill="#83CE00"/>
<path d="M41.79 402.807C43.79 402.407 44.52 399.897 46.28 398.807C50.28 396.357 53.28 392.807 56.04 383.887C58.13 385.297 59.04 387.887 59.44 390.407C60.1042 394.524 59.8727 398.736 58.7613 402.755C57.65 406.774 55.6849 410.507 53 413.697" fill="#78AD04"/>
<path d="M40 404.377C42.7 405.157 45.13 402.537 47.95 402.377C54.37 401.907 60.21 399.437 69.15 390.377C70.8 393.377 70.24 397.147 69.15 400.427C67.3862 405.845 64.4761 410.818 60.6176 415.01C56.7592 419.201 52.043 422.512 46.79 424.717" fill="#83CE00"/>
<path d="M66.6399 427.657C68.6399 427.257 69.3699 424.737 71.1299 423.657C75.1299 421.197 78.1299 417.657 80.8899 408.737C82.9699 410.147 83.8899 412.737 84.2799 415.247C84.9508 419.361 84.7274 423.57 83.6247 427.589C82.522 431.608 80.566 435.342 77.8899 438.537" fill="#78AD04"/>
<path d="M64.8301 429.227C67.5401 430.007 69.9701 427.387 72.8301 427.177C79.2601 426.717 85.1001 424.247 94.0401 415.177C95.6901 418.177 95.1301 421.947 94.0401 425.227C92.2744 430.64 89.3632 435.609 85.5047 439.795C81.6462 443.981 76.931 447.287 71.6801 449.487" fill="#83CE00"/>
<path d="M98.26 470.197C100.26 469.797 100.99 467.277 102.75 466.197C106.75 463.747 109.75 460.197 112.51 451.277C114.6 452.687 115.51 455.277 115.91 457.797C116.578 461.91 116.352 466.118 115.248 470.135C114.143 474.152 112.186 477.884 109.51 481.077" fill="#78AD04"/>
<path d="M96.46 471.767C99.16 472.547 101.6 469.927 104.46 469.767C110.88 469.307 116.72 466.837 125.66 457.767C127.32 460.767 126.75 464.537 125.66 467.817C123.895 473.234 120.984 478.207 117.126 482.398C113.268 486.59 108.552 489.901 103.3 492.107" fill="#83CE00"/>
<path d="M68.2501 407.327C61.4301 425.607 44.7601 436.087 29.2501 442.057C19.8801 425.617 10.1801 405.987 8.16006 386.987C7.44006 380.257 5.91006 369.337 12.5801 368.187C15.9401 367.617 22.1901 371.447 25.0701 373.267C40.5785 383.131 55.046 394.543 68.2501 407.327Z" fill="#ADE701"/>
<path d="M98.75 442.087C89.35 460.987 68.86 470.587 52.56 475.357C47.65 469.447 42.97 463.357 38.62 457.007C35.28 452.127 32.13 447.147 29.24 442.057C44.76 436.057 61.43 425.607 68.24 407.327C79.3638 418.041 89.5696 429.668 98.75 442.087Z" fill="#83CE00"/>
<path d="M135.69 512.987L88.2101 513.127C75.8401 500.987 63.6001 488.657 52.5601 475.357C68.8601 470.587 89.3501 461.017 98.7501 442.097C114.795 463.587 127.268 487.525 135.69 512.987Z" fill="#ADE701"/>
<path d="M117.69 513.717C117.613 513.717 117.536 513.698 117.467 513.664C117.398 513.629 117.337 513.579 117.29 513.517L15.64 379.397C15.6006 379.345 15.572 379.285 15.5557 379.221C15.5394 379.158 15.5358 379.092 15.5451 379.027C15.5638 378.895 15.634 378.777 15.74 378.697C15.8461 378.618 15.9795 378.584 16.1107 378.602C16.1758 378.612 16.2383 378.634 16.2948 378.667C16.3513 378.701 16.4006 378.745 16.44 378.797L118.09 512.917C118.167 513.024 118.2 513.157 118.181 513.288C118.162 513.418 118.094 513.536 117.99 513.617C117.904 513.683 117.798 513.718 117.69 513.717Z" fill="#78AD04"/>
<path d="M29.2101 425.267C28.1201 425.267 27.0001 425.267 25.8901 425.147C25.8244 425.143 25.7603 425.125 25.7014 425.096C25.6425 425.067 25.5899 425.026 25.5468 424.976C25.4595 424.876 25.4158 424.745 25.4251 424.612C25.4296 424.547 25.4471 424.483 25.4765 424.424C25.5059 424.365 25.5466 424.312 25.5962 424.269C25.6966 424.182 25.8274 424.138 25.9601 424.147C33.4545 424.512 40.9508 423.467 48.0601 421.067C48.1223 421.043 48.1887 421.031 48.2556 421.033C48.3224 421.034 48.3882 421.049 48.4491 421.077C48.5101 421.104 48.5649 421.144 48.6103 421.193C48.6557 421.242 48.6908 421.3 48.7135 421.363C48.7363 421.425 48.7462 421.492 48.7427 421.559C48.7391 421.626 48.7223 421.691 48.693 421.751C48.6638 421.811 48.6228 421.865 48.5725 421.909C48.5222 421.953 48.4635 421.986 48.4001 422.007C42.2109 424.082 35.737 425.181 29.2101 425.267Z" fill="#78AD04"/>
<path d="M51.39 425.537C51.3184 425.537 51.2476 425.521 51.1822 425.492C51.1169 425.463 51.0582 425.42 51.01 425.367C50.9241 425.266 50.8813 425.135 50.8907 425.002C50.9 424.87 50.9608 424.746 51.06 424.657C55.1144 420.864 58.4245 416.346 60.82 411.337C60.8411 411.27 60.8761 411.209 60.9227 411.156C60.9692 411.103 61.0264 411.061 61.0904 411.032C61.1544 411.003 61.2237 410.988 61.294 410.987C61.3643 410.987 61.4338 411.001 61.4981 411.03C61.5625 411.058 61.6201 411.099 61.6673 411.152C61.7145 411.204 61.7502 411.265 61.7721 411.332C61.794 411.399 61.8015 411.469 61.7943 411.539C61.787 411.609 61.7651 411.677 61.73 411.737C59.2822 416.88 55.8901 421.517 51.73 425.407C51.6381 425.494 51.516 425.54 51.39 425.537Z" fill="#78AD04"/>
<path d="M66.58 445.177C66.4809 445.176 66.3845 445.145 66.3029 445.089C66.2214 445.033 66.1584 444.953 66.1219 444.861C66.0855 444.769 66.0773 444.668 66.0983 444.571C66.1193 444.475 66.1686 444.386 66.24 444.317C70.1643 440.389 73.3216 435.763 75.55 430.677C75.5743 430.616 75.6104 430.561 75.6562 430.514C75.702 430.466 75.7566 430.429 75.817 430.403C75.8773 430.377 75.9422 430.363 76.008 430.362C76.0737 430.361 76.1389 430.373 76.2 430.397C76.261 430.422 76.3167 430.458 76.3638 430.504C76.411 430.549 76.4486 430.604 76.4746 430.664C76.5006 430.725 76.5145 430.79 76.5154 430.855C76.5163 430.921 76.5043 430.986 76.48 431.047C74.191 436.268 70.949 441.015 66.92 445.047C66.8281 445.134 66.706 445.18 66.58 445.177Z" fill="#78AD04"/>
<path d="M90.5601 476.887C90.4474 476.886 90.3384 476.847 90.2501 476.777C90.1455 476.696 90.0773 476.577 90.0605 476.446C90.0436 476.315 90.0794 476.182 90.1601 476.077C93.4424 471.594 95.8604 466.537 97.2901 461.167C97.3209 461.039 97.4014 460.928 97.5138 460.859C97.6262 460.789 97.7615 460.767 97.8901 460.797C98.0192 460.83 98.1303 460.913 98.1995 461.027C98.2686 461.141 98.2904 461.278 98.2601 461.407C96.8136 466.909 94.3513 472.091 91.0001 476.687C90.9503 476.756 90.8836 476.81 90.8064 476.845C90.7293 476.88 90.6444 476.895 90.5601 476.887Z" fill="#78AD04"/>
<path d="M74.39 486.257C73.29 486.257 72.18 486.217 71.06 486.137C70.9943 486.132 70.9303 486.114 70.8717 486.084C70.813 486.054 70.7609 486.013 70.7182 485.963C70.6754 485.913 70.643 485.854 70.6227 485.792C70.6025 485.729 70.5947 485.663 70.6 485.597C70.6052 485.532 70.6234 485.468 70.6534 485.409C70.6833 485.35 70.7246 485.298 70.7747 485.256C70.8249 485.213 70.8829 485.18 70.9456 485.16C71.0083 485.14 71.0743 485.132 71.14 485.137C78.6304 485.502 86.1228 484.46 93.23 482.067C93.291 482.043 93.3561 482.032 93.4216 482.034C93.4871 482.035 93.5516 482.05 93.6112 482.077C93.6709 482.104 93.7246 482.143 93.769 482.191C93.8134 482.239 93.8478 482.296 93.87 482.357C93.8941 482.419 93.9057 482.485 93.9041 482.551C93.9025 482.617 93.8878 482.683 93.8609 482.743C93.8339 482.803 93.7952 482.858 93.7469 482.903C93.6987 482.949 93.642 482.984 93.58 483.007C87.3903 485.078 80.9164 486.175 74.39 486.257Z" fill="#78AD04"/>
<path d="M61.6901 459.317C61.5575 459.325 61.4271 459.28 61.3277 459.192C61.2283 459.104 61.168 458.98 61.1601 458.847C61.1521 458.715 61.1972 458.584 61.2853 458.485C61.3735 458.386 61.4975 458.325 61.6301 458.317C65.8394 457.821 69.9853 456.886 74.0001 455.527C74.0611 455.503 74.1262 455.492 74.1917 455.494C74.2572 455.495 74.3217 455.51 74.3813 455.537C74.441 455.564 74.4946 455.603 74.5391 455.651C74.5835 455.699 74.6179 455.756 74.6401 455.817C74.6642 455.879 74.6758 455.945 74.6742 456.011C74.6726 456.077 74.6579 456.143 74.631 456.203C74.604 456.264 74.5653 456.318 74.517 456.363C74.4688 456.409 74.4121 456.444 74.3501 456.467C70.2487 457.847 66.0165 458.802 61.7201 459.317H61.6901Z" fill="#78AD04"/>
<path d="M20.1901 404.537C20.0575 404.545 19.9271 404.5 19.8277 404.412C19.7283 404.324 19.668 404.2 19.6601 404.067C19.6521 403.935 19.6972 403.804 19.7853 403.705C19.8735 403.606 19.9975 403.545 20.1301 403.537C24.3492 403.036 28.5048 402.097 32.5301 400.737C32.6547 400.692 32.7922 400.699 32.9122 400.755C33.0322 400.811 33.1249 400.913 33.1701 401.037C33.2151 401.162 33.2088 401.299 33.1526 401.419C33.0963 401.539 32.9947 401.632 32.8701 401.677C28.774 403.064 24.5444 404.019 20.2501 404.527L20.1901 404.537Z" fill="#78AD04"/>
<path d="M47.2899 440.397C47.1573 440.405 47.027 440.36 46.9276 440.272C46.8282 440.184 46.7679 440.06 46.7599 439.927C46.752 439.795 46.797 439.664 46.8852 439.565C46.9733 439.466 47.0973 439.405 47.2299 439.397C51.4493 438.897 55.6051 437.959 59.6299 436.597C59.7546 436.551 59.8926 436.556 60.0135 436.611C60.1345 436.667 60.2285 436.768 60.2749 436.892C60.3213 437.017 60.3163 437.155 60.261 437.276C60.2057 437.397 60.1046 437.491 59.9799 437.537C55.8802 438.923 51.6474 439.878 47.3499 440.387L47.2899 440.397Z" fill="#78AD04"/>
<path d="M40.37 410.987C40.2428 410.987 40.1208 410.936 40.03 410.847C39.9831 410.801 39.9459 410.746 39.9205 410.685C39.8952 410.624 39.8821 410.558 39.8821 410.492C39.8821 410.426 39.8952 410.361 39.9205 410.3C39.9459 410.239 39.9831 410.184 40.03 410.137C41.729 408.273 43.2992 406.295 44.73 404.217C44.8067 404.109 44.9228 404.034 45.0535 404.01C45.1843 403.986 45.3194 404.014 45.43 404.087C45.4841 404.125 45.5301 404.174 45.5654 404.229C45.6008 404.285 45.6247 404.347 45.6359 404.412C45.647 404.477 45.6452 404.544 45.6304 404.608C45.6157 404.673 45.5883 404.734 45.55 404.787C44.0892 406.892 42.4889 408.897 40.76 410.787C40.7144 410.848 40.6556 410.898 40.5881 410.932C40.5205 410.967 40.4459 410.986 40.37 410.987Z" fill="#78AD04"/>
<path d="M103.14 493.867C103.01 493.866 102.885 493.816 102.79 493.727C102.743 493.681 102.706 493.626 102.681 493.565C102.655 493.504 102.642 493.438 102.642 493.372C102.642 493.306 102.655 493.241 102.681 493.18C102.706 493.119 102.743 493.064 102.79 493.017C104.494 491.155 106.068 489.177 107.5 487.097C107.575 486.989 107.689 486.915 107.818 486.891C107.947 486.867 108.081 486.894 108.19 486.967C108.299 487.044 108.373 487.16 108.397 487.291C108.422 487.422 108.394 487.557 108.32 487.667C106.862 489.777 105.258 491.781 103.52 493.667C103.477 493.728 103.42 493.777 103.354 493.812C103.288 493.847 103.215 493.866 103.14 493.867Z" fill="#78AD04"/>
<path d="M119 490.877C121.73 493.787 124.33 496.937 125.68 500.747C127.17 504.917 127.14 509.417 126.83 513.747C126.76 514.747 128.26 514.747 128.33 513.747C128.66 509.177 128.65 504.417 127.04 500.067C125.57 496.117 122.91 492.827 120.04 489.787C119.38 489.077 118.32 490.137 118.98 490.847L119 490.877Z" fill="#78AD04"/>
<path d="M14.2901 392.987C13.9401 391.447 13.6501 389.897 13.3901 388.347C13.1301 386.797 12.9101 385.277 12.7401 383.897C12.7299 383.503 12.5687 383.127 12.2895 382.848C12.0104 382.569 11.6347 382.407 11.2401 382.397C10.5101 382.397 9.64007 383.067 9.74007 383.897C10.1601 387.217 10.6601 390.527 11.4001 393.787C11.5098 394.167 11.7634 394.49 12.107 394.686C12.4506 394.882 12.857 394.936 13.2401 394.837C13.6102 394.713 13.9194 394.453 14.105 394.11C14.2907 393.766 14.3389 393.365 14.2401 392.987H14.2901Z" fill="white"/>
<path d="M10.68 380.797C11.3537 380.797 11.9 380.059 11.9 379.147C11.9 378.236 11.3537 377.497 10.68 377.497C10.0062 377.497 9.45996 378.236 9.45996 379.147C9.45996 380.059 10.0062 380.797 10.68 380.797Z" fill="white"/>
<path d="M268.64 32.8074C268.501 32.8083 268.364 32.7804 268.236 32.7253C268.109 32.6702 267.994 32.5892 267.9 32.4874C267.811 32.3899 267.742 32.2756 267.697 32.1513C267.652 32.0269 267.632 31.8948 267.639 31.7628C267.645 31.6307 267.678 31.5013 267.735 31.3819C267.792 31.2625 267.872 31.1556 267.97 31.0674C268.19 30.8674 291.1 10.3474 317.97 23.1274C318.091 23.1816 318.201 23.2595 318.291 23.3564C318.382 23.4534 318.453 23.5675 318.499 23.6921C318.546 23.8167 318.567 23.9492 318.561 24.082C318.555 24.2148 318.524 24.3451 318.467 24.4654C318.411 24.5857 318.331 24.6935 318.232 24.7826C318.133 24.8716 318.018 24.9401 317.893 24.9841C317.767 25.028 317.634 25.0465 317.502 25.0385C317.369 25.0305 317.239 24.9961 317.12 24.9374C291.44 12.7374 269.49 32.3474 269.28 32.5474C269.104 32.7073 268.877 32.7995 268.64 32.8074Z" fill="#A32E2E"/>
<path d="M323.7 36.9174C323.56 36.9158 323.421 36.8847 323.294 36.8261C323.166 36.7675 323.052 36.6828 322.96 36.5774C304.07 15.2774 276.23 24.7674 275.96 24.8674C275.709 24.9549 275.434 24.9393 275.195 24.8239C274.956 24.7086 274.772 24.503 274.685 24.2524C274.597 24.0018 274.613 23.7266 274.728 23.4875C274.844 23.2484 275.049 23.0649 275.3 22.9774C275.59 22.8774 304.7 12.9774 324.46 35.2474C324.636 35.4451 324.726 35.7046 324.711 35.9689C324.696 36.2332 324.577 36.4808 324.38 36.6574C324.194 36.8264 323.951 36.9192 323.7 36.9174Z" fill="#A32E2E"/>
<path d="M211.69 69.4474C211.69 69.4474 211.41 97.6874 204.63 106.997C210.813 101.24 215.513 94.0729 218.33 86.1074" fill="#C64F4F"/>
<path d="M212 76.0874C212 76.0874 211.71 104.317 204.94 113.637C211.119 107.878 215.816 100.712 218.63 92.7474" fill="#C64F4F"/>
<path d="M251.5 47.9174C251.5 47.9174 269.88 26.4874 281.06 23.7074C272.621 24.1452 264.413 26.6116 257.13 30.8974" fill="#C64F4F"/>
<path d="M255.55 42.6574C255.55 42.6574 273.93 21.2174 285.11 18.4474C276.673 18.879 268.466 21.3458 261.19 25.6374" fill="#C64F4F"/>
<path d="M244.62 49.0974C244.62 49.0974 260.73 25.8974 271.62 22.0074C263.253 23.288 255.321 26.575 248.5 31.5874" fill="#C64F4F"/>
<path d="M248.12 43.4474C248.12 43.4474 264.23 20.2574 275.07 16.3574C266.718 17.6656 258.804 20.969 252 25.9874" fill="#C64F4F"/>
<path opacity="0.4" d="M543.06 430.927C543.148 430.927 543.22 430.856 543.22 430.767C543.22 430.679 543.148 430.607 543.06 430.607C542.972 430.607 542.9 430.679 542.9 430.767C542.9 430.856 542.972 430.927 543.06 430.927Z" fill="#F8A547"/>
<path d="M436.76 289.147C436.53 302.777 432.39 332.887 401.17 340.487C399.502 336.207 398.651 331.651 398.66 327.057C398.65 325.383 398.774 323.712 399.03 322.057C400.149 314.23 403.667 306.942 409.101 301.199C414.535 295.455 421.617 291.538 429.37 289.987C431.801 289.473 434.275 289.191 436.76 289.147Z" fill="#FBE481"/>
<path d="M350.51 448.487L349.51 448.907L344.51 515.507C304.08 520.587 271.11 517.847 230.41 515.797L194.72 513.987L190.82 519.047L184.3 437.447L200.64 432.107C223.07 420.417 249.47 420.107 274.75 420.007C294.32 419.957 315.41 420.377 331.1 432.067C339.77 438.557 350.72 437.687 350.51 448.487Z" fill="#FFC871"/>
<path d="M186.06 468.327L184.3 439.647L200.64 384.647C223.07 372.957 249.47 372.647 274.75 372.547C294.32 372.547 315.41 372.917 331.1 384.607C339.77 391.067 305.64 397.547 305.43 408.347L350.32 438.647L348.2 467.877L327.92 471.877C287.116 476.171 245.967 476.044 205.19 471.497L186.06 468.327Z" fill="#FCAC38"/>
<path d="M188.47 480.547H188.24C188.109 480.542 187.98 480.511 187.86 480.456C187.741 480.401 187.634 480.323 187.545 480.226C187.456 480.13 187.386 480.016 187.341 479.893C187.296 479.77 187.275 479.639 187.28 479.507C187.285 479.376 187.316 479.247 187.372 479.128C187.427 479.008 187.505 478.901 187.601 478.812C187.698 478.723 187.811 478.654 187.934 478.608C188.058 478.563 188.189 478.542 188.32 478.547C188.93 478.547 203.32 478.867 211.02 461.097C211.124 460.853 211.32 460.661 211.565 460.561C211.811 460.462 212.086 460.464 212.33 460.567C212.452 460.619 212.563 460.694 212.655 460.788C212.748 460.882 212.821 460.994 212.871 461.117C212.92 461.239 212.944 461.371 212.943 461.503C212.941 461.635 212.913 461.766 212.86 461.887C208.57 471.827 202.14 476.367 197.5 478.437C194.661 479.736 191.591 480.454 188.47 480.547Z" fill="#E58E1A"/>
<path d="M346 478.427C343.207 478.396 340.44 477.885 337.82 476.917C333.05 475.177 326.32 471.087 321.36 461.467C321.269 461.237 321.267 460.98 321.354 460.748C321.442 460.516 321.612 460.324 321.833 460.211C322.053 460.097 322.308 460.07 322.548 460.134C322.788 460.198 322.995 460.349 323.13 460.557C332.01 477.757 346.38 476.457 346.99 476.397C347.121 476.384 347.254 476.396 347.381 476.433C347.507 476.471 347.625 476.533 347.728 476.616C347.83 476.699 347.916 476.802 347.979 476.918C348.042 477.034 348.081 477.161 348.095 477.292C348.109 477.424 348.096 477.556 348.059 477.683C348.021 477.81 347.959 477.928 347.876 478.03C347.793 478.133 347.691 478.218 347.575 478.281C347.459 478.344 347.331 478.384 347.2 478.397C346.801 478.43 346.4 478.44 346 478.427Z" fill="#E58E1A"/>
<path d="M208.55 477.527C208.122 477.529 207.704 477.404 207.347 477.168C206.991 476.932 206.712 476.595 206.547 476.201C206.382 475.806 206.338 475.372 206.42 474.952C206.502 474.532 206.707 474.147 207.009 473.844C207.311 473.541 207.696 473.334 208.115 473.25C208.534 473.165 208.969 473.208 209.364 473.371C209.759 473.534 210.097 473.811 210.335 474.166C210.573 474.522 210.7 474.94 210.7 475.367C210.7 475.939 210.474 476.486 210.071 476.891C209.668 477.296 209.121 477.525 208.55 477.527ZM208.55 474.207C208.32 474.205 208.095 474.272 207.903 474.398C207.711 474.524 207.56 474.705 207.471 474.916C207.382 475.128 207.357 475.362 207.401 475.587C207.445 475.813 207.554 476.021 207.716 476.184C207.878 476.347 208.085 476.459 208.31 476.504C208.535 476.55 208.769 476.528 208.981 476.44C209.194 476.353 209.376 476.204 209.504 476.013C209.632 475.822 209.7 475.597 209.7 475.367C209.7 475.061 209.579 474.768 209.364 474.551C209.148 474.333 208.856 474.21 208.55 474.207Z" fill="#CC740A"/>
<path d="M196.4 484.857C195.973 484.857 195.555 484.731 195.2 484.493C194.845 484.256 194.568 483.919 194.404 483.524C194.241 483.129 194.198 482.695 194.281 482.276C194.365 481.857 194.571 481.472 194.873 481.17C195.175 480.868 195.56 480.662 195.979 480.579C196.398 480.496 196.832 480.538 197.227 480.702C197.621 480.865 197.959 481.142 198.196 481.497C198.433 481.853 198.56 482.27 198.56 482.697C198.56 483.27 198.332 483.82 197.927 484.225C197.522 484.63 196.973 484.857 196.4 484.857ZM196.4 481.537C196.171 481.537 195.946 481.605 195.756 481.733C195.565 481.86 195.416 482.041 195.328 482.253C195.24 482.465 195.218 482.699 195.262 482.924C195.307 483.149 195.418 483.355 195.58 483.518C195.742 483.68 195.949 483.79 196.174 483.835C196.399 483.88 196.632 483.857 196.844 483.769C197.056 483.681 197.237 483.533 197.364 483.342C197.492 483.151 197.56 482.927 197.56 482.697C197.56 482.39 197.438 482.095 197.22 481.877C197.003 481.66 196.708 481.537 196.4 481.537Z" fill="#CC740A"/>
<path d="M325.44 476.527C325.013 476.527 324.595 476.401 324.24 476.163C323.885 475.926 323.608 475.589 323.444 475.194C323.281 474.799 323.238 474.365 323.322 473.946C323.405 473.527 323.611 473.142 323.913 472.84C324.215 472.538 324.6 472.332 325.019 472.249C325.438 472.166 325.872 472.208 326.267 472.372C326.661 472.535 326.999 472.812 327.236 473.167C327.473 473.523 327.6 473.94 327.6 474.367C327.6 474.94 327.372 475.49 326.967 475.895C326.562 476.3 326.013 476.527 325.44 476.527ZM325.44 473.207C325.211 473.207 324.986 473.275 324.796 473.403C324.605 473.53 324.456 473.712 324.368 473.923C324.281 474.135 324.258 474.369 324.302 474.594C324.347 474.819 324.458 475.025 324.62 475.188C324.782 475.35 324.989 475.46 325.214 475.505C325.439 475.55 325.672 475.527 325.884 475.439C326.096 475.351 326.277 475.203 326.405 475.012C326.532 474.821 326.6 474.597 326.6 474.367C326.6 474.06 326.478 473.765 326.26 473.547C326.043 473.33 325.748 473.207 325.44 473.207Z" fill="#CC740A"/>
<path d="M337.89 483.037C337.463 483.037 337.045 482.911 336.69 482.673C336.335 482.436 336.058 482.099 335.894 481.704C335.731 481.309 335.688 480.875 335.771 480.456C335.855 480.037 336.061 479.652 336.363 479.35C336.665 479.048 337.05 478.842 337.469 478.759C337.888 478.676 338.322 478.718 338.717 478.882C339.111 479.045 339.449 479.322 339.686 479.677C339.923 480.033 340.05 480.45 340.05 480.877C340.05 481.45 339.822 482 339.417 482.405C339.012 482.81 338.463 483.037 337.89 483.037ZM337.89 479.717C337.661 479.717 337.436 479.785 337.246 479.913C337.055 480.04 336.906 480.222 336.818 480.433C336.73 480.645 336.708 480.879 336.752 481.104C336.797 481.329 336.908 481.535 337.07 481.698C337.232 481.86 337.439 481.97 337.664 482.015C337.889 482.06 338.122 482.037 338.334 481.949C338.546 481.861 338.727 481.713 338.854 481.522C338.982 481.331 339.05 481.107 339.05 480.877C339.05 480.57 338.928 480.275 338.71 480.057C338.493 479.84 338.198 479.717 337.89 479.717Z" fill="#CC740A"/>
<path d="M275.79 514.307C275.525 514.307 275.27 514.202 275.083 514.014C274.895 513.827 274.79 513.573 274.79 513.307V494.147C274.786 492.751 274.278 491.404 273.359 490.353C272.44 489.302 271.173 488.618 269.79 488.427L267.47 488.127C265.516 487.87 263.722 486.912 262.421 485.432C261.121 483.951 260.402 482.048 260.4 480.077V458.377C260.4 458.112 260.505 457.858 260.693 457.67C260.88 457.483 261.135 457.377 261.4 457.377C261.665 457.377 261.919 457.483 262.107 457.67C262.295 457.858 262.4 458.112 262.4 458.377V480.077C262.402 481.563 262.943 482.998 263.924 484.114C264.904 485.231 266.257 485.953 267.73 486.147L270.05 486.447C271.918 486.694 273.633 487.611 274.876 489.027C276.12 490.444 276.807 492.263 276.81 494.147V513.307C276.81 513.44 276.783 513.572 276.732 513.695C276.68 513.817 276.605 513.929 276.51 514.022C276.415 514.115 276.302 514.188 276.179 514.237C276.055 514.286 275.923 514.31 275.79 514.307Z" fill="#E58E1A"/>
<path d="M452.53 233.157C455.26 227.977 453.29 219.877 453.29 219.877L459.78 218.627C460.576 218.476 461.333 218.162 462.003 217.706C462.673 217.249 463.241 216.66 463.674 215.974C464.106 215.289 464.393 214.521 464.516 213.72C464.639 212.919 464.596 212.101 464.39 211.317L464.09 210.157C463.928 209.503 463.581 208.909 463.09 208.447L462.54 207.927C462.088 207.495 461.757 206.952 461.581 206.351C461.406 205.751 461.392 205.115 461.54 204.507C461.67 203.975 461.67 203.42 461.54 202.887L460.54 198.477C460.204 197.027 459.334 195.757 458.104 194.919C456.873 194.081 455.372 193.738 453.9 193.957L447.26 194.957L434.55 186.677L422.3 199.237C421.734 199.821 421.297 200.518 421.019 201.282C420.741 202.046 420.627 202.86 420.686 203.671C420.744 204.482 420.973 205.272 421.359 205.988C421.744 206.704 422.276 207.331 422.92 207.827L428.44 212.067L429.38 220.827" fill="#FFB999"/>
<path d="M443.64 225.467C445.987 226.22 448.478 226.408 450.911 226.015C453.344 225.623 455.65 224.66 457.64 223.207L455.64 219.917H449.76L445.24 222.647L443.64 225.467Z" fill="#FEA42F"/>
<path d="M340.58 456.267C342.378 456.124 344.128 455.617 345.723 454.775C347.318 453.933 348.725 452.775 349.857 451.371C350.99 449.967 351.824 448.347 352.309 446.61C352.795 444.873 352.921 443.055 352.68 441.267L341.58 358.427C340.443 349.961 339.968 341.418 340.16 332.877L341.8 260.067C343.163 246.943 339.945 233.752 332.691 222.73C325.436 211.709 314.593 203.536 302 199.597L271 189.857L208.28 209.407C201.382 211.56 195.413 215.979 191.342 221.949C187.27 227.919 185.335 235.09 185.85 242.297L192.12 329.987C194.241 359.492 191.973 389.148 185.39 417.987L181.27 436.067C180.596 438.863 180.551 441.774 181.139 444.59C181.727 447.405 182.933 450.055 184.67 452.347C186.051 454.253 187.851 455.815 189.932 456.915C192.012 458.014 194.318 458.62 196.67 458.687H197.11C244.948 460.858 292.875 460.037 340.61 456.227L340.58 456.267Z" fill="#90EAE9"/>
<path d="M290.6 196.787C288.6 199.727 285.02 201.057 281.6 202.017C273.01 204.427 263.51 205.547 255.4 201.837C253.858 201.223 252.501 200.22 251.46 198.927C250.544 197.431 249.967 195.751 249.77 194.007V157.357L292.27 163.037C292.27 167.571 292.307 172.101 292.38 176.627C292.38 177.297 292.38 177.967 292.38 178.627C292.38 178.787 292.38 178.927 292.38 179.067C292.38 179.887 292.38 180.697 292.38 181.517C292.38 183.427 292.38 191.327 292.38 193.237C292.48 196.537 292.44 194.057 290.6 196.787Z" fill="#FFB999"/>
<path opacity="0.56" d="M249.77 177.817V163.907C251.52 164.677 253.31 165.377 255.13 165.987C256.777 166.547 258.443 167.037 260.13 167.457L262.06 167.937C265.32 168.757 268.62 169.417 271.94 169.937C277.483 170.789 283.082 171.216 288.69 171.217C289.13 171.217 289.57 171.217 290.01 171.167H290.67L291.51 171.067L292.34 170.927C292.34 171.927 292.34 172.477 292.34 172.927C292.34 173.087 292.34 173.227 292.34 173.367C292.34 173.937 292.34 174.507 292.34 175.817V181.817H292.12C277.858 183.807 263.329 182.438 249.69 177.817H249.77Z" fill="#F99269"/>
<path d="M272.12 208.627C262.531 208.467 253.134 205.916 244.78 201.207C243.757 200.591 243.022 199.593 242.735 198.434C242.448 197.275 242.633 196.05 243.25 195.027C243.867 194.005 244.864 193.269 246.023 192.982C247.182 192.696 248.407 192.881 249.43 193.497C250.43 194.087 273.93 207.857 293.68 192.017C294.134 191.604 294.668 191.288 295.249 191.088C295.83 190.889 296.445 190.811 297.058 190.858C297.67 190.906 298.266 191.078 298.809 191.365C299.352 191.651 299.831 192.046 300.216 192.525C300.601 193.003 300.884 193.555 301.047 194.147C301.211 194.739 301.251 195.359 301.166 195.967C301.081 196.575 300.873 197.159 300.554 197.684C300.234 198.209 299.811 198.662 299.31 199.017C291.644 205.292 282.026 208.692 272.12 208.627Z" fill="#90EAE9"/>
<path d="M295.88 207.837C308.88 204.447 323.06 206.667 335.12 212.657C347.18 218.647 357.24 228.197 365.07 239.147C378.42 257.807 386.76 281.677 406.73 292.967L429.2 218.987L430.27 219.747C437.271 224.751 445.34 228.055 453.84 229.397C449.48 251.967 447.01 286.187 442.65 308.757C441.72 313.587 440.76 318.487 438.58 322.887C434 332.217 424.18 338.277 414 339.987C403.82 341.697 393.21 339.547 383.61 335.627C364.03 327.627 346.28 301.097 331 286.457" fill="#90EAE9"/>
<path d="M428.44 175.367L443.64 225.507L444.19 225.177C446.188 223.98 448.405 223.193 450.711 222.862C453.017 222.531 455.365 222.662 457.62 223.247L456.91 220.527L446.51 174.607L428.44 175.367Z" fill="#FCD32E"/>
<path d="M433.05 209.167C432.103 209.166 431.175 208.895 430.376 208.387C429.576 207.879 428.938 207.154 428.534 206.297C428.131 205.44 427.979 204.485 428.097 203.545C428.215 202.606 428.597 201.718 429.2 200.987L436.35 192.327C437.195 191.305 438.411 190.66 439.731 190.534C441.051 190.409 442.368 190.813 443.39 191.657C444.412 192.502 445.057 193.718 445.183 195.039C445.309 196.359 444.905 197.675 444.06 198.697L436.91 207.357C436.44 207.925 435.85 208.381 435.183 208.694C434.515 209.007 433.787 209.169 433.05 209.167Z" fill="#FFB999"/>
<path d="M202.445 271.601L189.21 313.122L191.115 313.73L204.351 272.208L202.445 271.601Z" fill="#5ABFBC"/>
<path d="M190.048 293.637L188.052 293.748L189.146 313.507L191.143 313.397L190.048 293.637Z" fill="#5ABFBC"/>
<path d="M141.35 471.877C141.8 475.717 139.74 479.267 138.29 482.877C135.385 490.35 134.229 498.389 134.91 506.377C135.3 511.797 135.84 517.587 139.24 521.817C142.64 526.047 148.24 527.817 153.67 528.697C158.84 529.497 164.56 529.517 168.81 526.467C173.56 523.067 175.23 516.737 175.31 510.907C175.39 505.077 167.67 497.397 168.25 491.597C168.62 487.897 169.67 484.067 168.45 480.597C167.519 478.353 166.085 476.352 164.26 474.747C159.81 470.307 161.39 468.237 156.01 464.987" fill="#FFB999"/>
<path d="M452.14 234.987C439.53 234.987 427.22 225.507 426.7 225.097C426.587 225.021 426.491 224.922 426.418 224.807C426.344 224.692 426.295 224.563 426.274 224.428C426.252 224.293 426.258 224.155 426.292 224.023C426.326 223.891 426.386 223.767 426.47 223.659C426.553 223.55 426.658 223.461 426.777 223.395C426.897 223.329 427.028 223.288 427.164 223.274C427.3 223.261 427.437 223.276 427.567 223.318C427.697 223.359 427.817 223.427 427.92 223.517C428.05 223.617 440.58 233.267 452.7 232.977C452.965 232.971 453.222 233.07 453.414 233.253C453.607 233.435 453.718 233.687 453.725 233.952C453.732 234.218 453.633 234.475 453.45 234.667C453.267 234.859 453.015 234.971 452.75 234.977L452.14 234.987Z" fill="#5ABFBC"/>
<path d="M340.72 297.157C340.466 297.158 340.222 297.062 340.037 296.89C339.851 296.717 339.738 296.48 339.72 296.227L338 272.377C337.991 272.246 338.008 272.114 338.049 271.989C338.091 271.865 338.157 271.749 338.243 271.65C338.418 271.449 338.665 271.326 338.93 271.307C339.195 271.289 339.457 271.376 339.658 271.551C339.858 271.725 339.981 271.972 340 272.237L341.69 296.077C341.7 296.209 341.683 296.341 341.641 296.466C341.6 296.591 341.534 296.706 341.447 296.806C341.361 296.905 341.256 296.986 341.138 297.045C341.02 297.104 340.891 297.139 340.76 297.147L340.72 297.157Z" fill="#5ABFBC"/>
<path d="M270 209.887C267.04 209.887 264.088 209.583 261.19 208.977C256.65 208.098 252.306 206.404 248.37 203.977C248.151 203.828 248.001 203.597 247.952 203.336C247.903 203.076 247.96 202.806 248.11 202.587C248.26 202.369 248.49 202.218 248.751 202.17C249.012 202.121 249.281 202.178 249.5 202.327C249.69 202.447 268.23 214.797 291.38 202.267C291.613 202.143 291.887 202.117 292.14 202.194C292.393 202.271 292.605 202.444 292.73 202.677C292.855 202.91 292.883 203.182 292.808 203.435C292.733 203.688 292.561 203.901 292.33 204.027C285.498 207.828 277.818 209.843 270 209.887Z" fill="#5ABFBC"/>
<path opacity="0.53" d="M449.65 188.557C441.59 185.977 438.84 189.437 432.13 187.667L430.41 181.827C436.63 182.597 442.65 183.567 448.8 184.907L449.65 188.557Z" fill="#FEA42F"/>
<path d="M218.06 46.9874C217.85 43.3274 215.37 39.9874 215.47 36.3774C218.59 38.244 221.617 40.244 224.55 42.3774" fill="#A32E2E"/>
<path d="M217.45 48.1874C215.56 45.0474 211.83 43.2874 210.21 40.0074C213.837 40.2074 217.453 40.5774 221.06 41.1174" fill="#A32E2E"/>
<path d="M316.88 80.4374C321.6 82.2674 327.19 79.4374 329.81 75.1274C332.43 70.8174 332.6 65.3974 331.81 60.3974C329.94 48.3974 320.81 34.3974 310.64 27.7174C305.532 24.422 299.797 22.219 293.796 21.2466C287.795 20.2743 281.658 20.5537 275.77 22.0674C271.86 23.0674 268.08 24.6774 264.07 25.2074C256.81 26.2074 249.49 23.5874 242.18 24.1074C226.61 25.1974 215.12 40.2474 212 55.5374C208.88 70.8274 211.8 86.6174 213.1 102.177C213.56 107.557 213.65 113.487 210.32 117.737" fill="#C64F4F"/>
<path d="M323.9 129.907C323.897 132.626 323.595 135.335 323 137.987C320.52 149.098 315.089 159.334 307.28 167.617L303.98 171.097C302.225 172.946 300.121 174.428 297.79 175.457C296.562 175.998 295.277 176.397 293.96 176.647L293.17 176.787L292.38 176.887L291.75 176.937C291.33 176.937 290.91 176.937 290.5 176.937C285.171 176.936 279.85 176.508 274.59 175.657C271.443 175.151 268.317 174.484 265.21 173.657L263.38 173.177C261.77 172.757 260.17 172.267 258.6 171.707C256.88 171.097 255.18 170.397 253.51 169.627C252.66 169.227 251.81 168.817 250.97 168.377C250.6 168.187 250.24 167.987 249.88 167.787C249.52 167.587 249.27 167.457 248.98 167.287L248.79 167.177C245.605 165.354 242.593 163.246 239.79 160.877C235.325 157.046 232.238 151.859 231 146.107L230.18 142.307C226.812 126.811 225.554 110.931 226.44 95.0974L228.32 61.8174H321.26L320.15 90.6574C319.931 96.2286 320.219 101.808 321.01 107.327L323.52 124.737C323.766 126.45 323.893 128.177 323.9 129.907Z" fill="#FFB999"/>
<path d="M284.31 115.317C286.806 115.317 288.83 112.282 288.83 108.537C288.83 104.793 286.806 101.757 284.31 101.757C281.814 101.757 279.79 104.793 279.79 108.537C279.79 112.282 281.814 115.317 284.31 115.317Z" fill="#392F2F"/>
<path d="M310.85 115.317C313.346 115.317 315.37 112.282 315.37 108.537C315.37 104.793 313.346 101.757 310.85 101.757C308.354 101.757 306.33 104.793 306.33 108.537C306.33 112.282 308.354 115.317 310.85 115.317Z" fill="#392F2F"/>
<path d="M287.8 133.777C291.636 134.989 295.637 135.599 299.66 135.587C303.71 135.552 307.635 134.185 310.83 131.697C311.05 135.217 308.9 138.497 306.26 140.837C303.62 143.177 299.86 145.057 296.26 144.397C294.464 144.012 292.794 143.184 291.4 141.987C288.56 139.672 286.606 136.447 285.87 132.857" fill="white"/>
<path opacity="0.49" d="M294.3 126.987C295.791 127.849 297.509 128.236 299.225 128.099C300.941 127.961 302.575 127.305 303.91 126.217C304.189 125.935 304.345 125.554 304.345 125.157C304.345 124.761 304.189 124.38 303.91 124.097C303.623 123.828 303.244 123.678 302.85 123.678C302.456 123.678 302.077 123.828 301.79 124.097C301.65 124.207 301.72 124.097 301.79 124.097L301.61 124.227C301.466 124.327 301.316 124.417 301.16 124.497L300.76 124.717C300.76 124.717 300.49 124.827 300.67 124.717C300.85 124.607 300.62 124.717 300.58 124.717C300.273 124.828 299.959 124.919 299.64 124.987C299.492 125.026 299.342 125.053 299.19 125.067C299.19 125.067 299.5 125.067 299.24 125.067H298.96C298.65 125.067 298.34 125.067 298.03 125.067H297.8C297.59 125.067 298.07 125.117 297.86 125.067L297.35 124.967C297.051 124.897 296.757 124.807 296.47 124.697C296.2 124.607 296.62 124.777 296.47 124.697L296.26 124.597C296.11 124.517 295.95 124.437 295.81 124.347C295.637 124.248 295.446 124.184 295.247 124.159C295.049 124.134 294.848 124.148 294.656 124.2C294.463 124.253 294.282 124.343 294.125 124.465C293.967 124.587 293.834 124.739 293.735 124.912C293.636 125.086 293.572 125.277 293.547 125.475C293.521 125.673 293.535 125.874 293.588 126.067C293.64 126.26 293.73 126.44 293.852 126.598C293.975 126.756 294.127 126.888 294.3 126.987Z" fill="#D85C36"/>
<path d="M303.1 32.3674C307.293 34.5302 310.857 37.7365 313.45 41.6774C313.677 41.9571 313.998 42.1456 314.352 42.2086C314.707 42.2715 315.073 42.2046 315.382 42.0201C315.692 41.8356 315.925 41.5458 316.038 41.2038C316.152 40.8617 316.138 40.4903 316 40.1574C313.143 35.7746 309.207 32.2002 304.57 29.7774C304.224 29.5877 303.819 29.538 303.437 29.6385C303.056 29.739 302.728 29.982 302.52 30.3174C302.323 30.6615 302.269 31.0695 302.37 31.4531C302.471 31.8367 302.719 32.1651 303.06 32.3674H303.1Z" fill="#FC8383"/>
<path d="M318.72 49.2374C319.118 49.2374 319.499 49.0793 319.781 48.798C320.062 48.5167 320.22 48.1352 320.22 47.7374C320.22 47.3395 320.062 46.958 319.781 46.6767C319.499 46.3954 319.118 46.2374 318.72 46.2374C318.322 46.2374 317.941 46.3954 317.659 46.6767C317.378 46.958 317.22 47.3395 317.22 47.7374C317.22 48.1352 317.378 48.5167 317.659 48.798C317.941 49.0793 318.322 49.2374 318.72 49.2374Z" fill="#FC8383"/>
<path opacity="0.86" d="M230.91 87.7474C230.514 87.7474 230.134 87.5907 229.853 87.3116C229.572 87.0324 229.413 86.6535 229.41 86.2574C229.397 83.6554 229.898 81.0764 230.885 78.6687C231.871 76.2609 233.324 74.0719 235.159 72.2273C236.994 70.3828 239.176 68.919 241.579 67.9203C243.981 66.9215 246.558 66.4073 249.16 66.4074C260.58 66.3996 271.903 68.5156 282.55 72.6474C292.24 76.1374 301.45 76.6474 310.69 74.2274C311.069 74.143 311.466 74.2087 311.797 74.4109C312.129 74.613 312.369 74.9357 312.467 75.3112C312.565 75.6867 312.514 76.0858 312.325 76.4244C312.135 76.7631 311.822 77.0151 311.45 77.1274C301.61 79.7174 291.81 79.1274 281.5 75.4574C271.185 71.4691 260.219 69.4344 249.16 69.4574C246.953 69.4547 244.767 69.8888 242.728 70.7346C240.69 71.5804 238.839 72.8213 237.282 74.3857C235.725 75.9501 234.493 77.8071 233.656 79.8497C232.82 81.8924 232.397 84.0803 232.41 86.2874C232.41 86.6861 232.252 87.0687 231.971 87.3516C231.69 87.6345 231.309 87.7947 230.91 87.7974V87.7474Z" fill="#F99269"/>
<path d="M279.91 107.767C280.711 107.767 281.36 107.118 281.36 106.317C281.36 105.517 280.711 104.867 279.91 104.867C279.109 104.867 278.46 105.517 278.46 106.317C278.46 107.118 279.109 107.767 279.91 107.767Z" fill="white"/>
<path d="M306.33 107.767C307.131 107.767 307.78 107.118 307.78 106.317C307.78 105.517 307.131 104.867 306.33 104.867C305.529 104.867 304.88 105.517 304.88 106.317C304.88 107.118 305.529 107.767 306.33 107.767Z" fill="white"/>
<path d="M220.62 115.687H230.78C230.78 115.687 230.97 95.1874 230.92 85.2474C230.908 82.8432 231.372 80.4603 232.283 78.2357C233.195 76.0112 234.538 73.9887 236.234 72.2844C237.929 70.5802 239.945 69.2279 242.165 68.3051C244.385 67.3824 246.766 66.9073 249.17 66.9074C260.399 66.9088 271.53 68.9906 282 73.0474C291.272 76.6403 301.442 77.2142 311.06 74.6874C315.023 73.647 318.531 71.3236 321.034 68.0799C323.538 64.8363 324.897 60.8549 324.9 56.7574V55.9874H220.62V115.687Z" fill="#C64F4F"/>
<path opacity="0.86" d="M238.42 113.187C238.022 113.187 237.641 113.029 237.359 112.748C237.078 112.467 236.92 112.085 236.92 111.687V89.4474C236.914 89.119 237.016 88.7979 237.212 88.5338C237.407 88.2698 237.684 88.0777 238 87.9874C241.77 86.8774 244.72 84.7474 248 81.8974C251.174 79.1594 253.689 75.7414 255.36 71.8974C255.431 71.7086 255.54 71.5362 255.68 71.3905C255.82 71.2448 255.988 71.1289 256.173 71.0495C256.359 70.9702 256.559 70.9292 256.76 70.9289C256.962 70.9286 257.162 70.9691 257.348 71.0479C257.534 71.1267 257.702 71.2421 257.842 71.3874C257.982 71.5327 258.092 71.7048 258.164 71.8934C258.236 72.0819 258.269 72.2831 258.262 72.4848C258.254 72.6866 258.206 72.8847 258.12 73.0674C256.262 77.296 253.481 81.0547 249.98 84.0674C247.083 86.8064 243.689 88.9653 239.98 90.4274V111.687C239.98 111.89 239.939 112.09 239.86 112.276C239.781 112.462 239.665 112.63 239.52 112.77C239.374 112.91 239.201 113.019 239.012 113.091C238.823 113.163 238.622 113.195 238.42 113.187Z" fill="#F99269"/>
<path d="M248.987 80.9942C258.012 71.9692 260.266 59.5908 254.022 53.3463C247.777 47.1018 235.399 49.3559 226.374 58.3809C217.349 67.406 215.095 79.7843 221.339 86.0288C227.584 92.2733 239.962 90.0192 248.987 80.9942Z" fill="#C64F4F"/>
<path d="M230.79 115.887V87.9874L243.49 83.8474L245.42 99.3374C245.677 101.41 245.49 103.514 244.872 105.509C244.254 107.504 243.219 109.345 241.835 110.91C240.452 112.475 238.752 113.728 236.848 114.586C234.943 115.444 232.879 115.888 230.79 115.887Z" fill="#C64F4F"/>
<path d="M222.64 133.757C230.615 133.757 237.08 127.292 237.08 119.317C237.08 111.342 230.615 104.877 222.64 104.877C214.665 104.877 208.2 111.342 208.2 119.317C208.2 127.292 214.665 133.757 222.64 133.757Z" fill="#FFB999"/>
<path d="M217.55 112.887C218.019 112.295 218.635 111.835 219.337 111.555C220.039 111.274 220.802 111.182 221.55 111.287C222.211 111.409 222.817 111.733 223.285 112.215C223.753 112.697 224.059 113.313 224.16 113.977C224.162 114.848 224.098 115.717 223.97 116.577C223.918 117.765 224.105 118.95 224.521 120.064C224.936 121.177 225.572 122.195 226.39 123.057C227.06 123.777 228.13 122.697 227.46 121.977C226.229 120.667 225.518 118.954 225.46 117.157C225.46 116.237 225.66 115.337 225.68 114.417C225.694 113.559 225.457 112.714 225 111.987C223 108.867 218.71 109.227 216.46 111.817C215.82 112.547 216.89 113.637 217.54 112.887H217.55Z" fill="#EA754B"/>
<path d="M215.64 70.9274C215.82 65.8474 215.86 60.6374 217.1 55.6774C217.151 55.3994 217.097 55.1123 216.947 54.8727C216.797 54.6331 216.562 54.4584 216.29 54.3831C216.017 54.3077 215.727 54.3372 215.475 54.4658C215.223 54.5943 215.029 54.8125 214.93 55.0774C213.65 60.2374 213.57 65.6474 213.39 70.9274C213.416 71.2075 213.546 71.4676 213.754 71.6569C213.962 71.8463 214.234 71.9512 214.515 71.9512C214.796 71.9512 215.067 71.8463 215.275 71.6569C215.484 71.4676 215.613 71.2075 215.64 70.9274Z" fill="#FC8383"/>
<path d="M275.39 100.547C279.421 97.8177 284.135 96.2694 289 96.0774C290.93 96.0074 290.94 93.0074 289 93.0774C283.599 93.2777 278.36 94.9778 273.87 97.9874C273.536 98.1984 273.294 98.5285 273.194 98.9109C273.094 99.2933 273.142 99.6995 273.33 100.047C273.536 100.388 273.867 100.634 274.252 100.733C274.637 100.832 275.046 100.776 275.39 100.577V100.547Z" fill="#392F2F"/>
<path d="M319.07 97.9874C314.598 94.9874 309.381 93.2876 304 93.0774C302.07 93.0074 302.08 96.0074 304 96.0774C308.851 96.2783 313.549 97.8262 317.57 100.547C317.913 100.746 318.32 100.801 318.703 100.702C319.087 100.603 319.416 100.357 319.62 100.017C319.813 99.6706 319.864 99.2628 319.763 98.879C319.663 98.4952 319.418 98.1651 319.08 97.9574L319.07 97.9874Z" fill="#392F2F"/>
<path d="M172.33 485.767L132.33 485.437C132.99 448.11 135.637 410.844 140.26 373.797C150.79 291.137 169.14 239.617 196.35 216.297L222.35 246.667C211.64 255.847 191.89 285.187 179.95 378.497C175.551 414.098 173.008 449.903 172.33 485.767Z" fill="#90EAE9"/>
<path d="M193 230.987C197.244 226.032 202.287 221.82 207.92 218.527C208.248 218.32 208.483 217.993 208.575 217.616C208.667 217.238 208.61 216.84 208.414 216.504C208.218 216.169 207.9 215.922 207.526 215.816C207.153 215.711 206.752 215.754 206.41 215.937C200.549 219.352 195.301 223.723 190.88 228.867C190.611 229.155 190.461 229.534 190.461 229.927C190.461 230.321 190.611 230.7 190.88 230.987C191.163 231.266 191.543 231.422 191.94 231.422C192.337 231.422 192.718 231.266 193 230.987Z" fill="white"/>
<path d="M213.843 216.479C215.481 215.961 216.56 214.756 216.253 213.787C215.947 212.818 214.371 212.453 212.733 212.971C211.096 213.489 210.016 214.694 210.323 215.663C210.629 216.632 212.205 216.997 213.843 216.479Z" fill="white"/>
<path d="M190.36 317.487C190.257 317.502 190.153 317.502 190.05 317.487C189.924 317.448 189.808 317.383 189.707 317.298C189.606 317.214 189.524 317.11 189.463 316.992C189.403 316.875 189.366 316.747 189.355 316.616C189.344 316.485 189.36 316.353 189.4 316.227L202.63 274.707C202.67 274.582 202.734 274.465 202.819 274.364C202.904 274.264 203.008 274.181 203.125 274.12C203.242 274.06 203.37 274.023 203.501 274.013C203.632 274.002 203.765 274.017 203.89 274.057C204.016 274.097 204.132 274.161 204.233 274.246C204.334 274.331 204.416 274.435 204.477 274.552C204.537 274.669 204.574 274.797 204.585 274.928C204.596 275.06 204.58 275.192 204.54 275.317L191.31 316.837C191.238 317.03 191.108 317.196 190.938 317.313C190.768 317.429 190.566 317.49 190.36 317.487Z" fill="#5ABFBC"/>
<path d="M190.36 317.487C190.105 317.488 189.859 317.391 189.673 317.216C189.487 317.041 189.375 316.802 189.36 316.547L188.26 296.787C188.245 296.522 188.337 296.262 188.514 296.064C188.691 295.866 188.94 295.747 189.205 295.732C189.47 295.718 189.73 295.809 189.928 295.986C190.126 296.164 190.245 296.412 190.26 296.677L191.36 316.437C191.367 316.573 191.346 316.708 191.299 316.835C191.252 316.963 191.179 317.079 191.085 317.177C190.992 317.275 190.879 317.353 190.755 317.407C190.63 317.46 190.496 317.488 190.36 317.487Z" fill="#5ABFBC"/>
<path d="M179.91 372.407C179.676 372.412 179.448 372.335 179.265 372.188C179.083 372.042 178.957 371.837 178.91 371.607L175.8 355.797C175.774 355.666 175.775 355.531 175.802 355.4C175.828 355.269 175.88 355.144 175.955 355.033C176.03 354.922 176.126 354.827 176.237 354.753C176.349 354.679 176.474 354.628 176.605 354.602C176.736 354.577 176.871 354.577 177.003 354.604C177.134 354.63 177.258 354.683 177.369 354.757C177.48 354.832 177.575 354.928 177.649 355.039C177.723 355.151 177.774 355.276 177.8 355.407L180.9 371.217C180.926 371.347 180.927 371.48 180.901 371.61C180.875 371.739 180.824 371.862 180.751 371.972C180.677 372.082 180.583 372.176 180.473 372.249C180.363 372.322 180.24 372.372 180.11 372.397L179.91 372.407Z" fill="#5ABFBC"/>
<path d="M146.54 375.697L148.28 364.097C148.374 363.715 148.317 363.31 148.122 362.968C147.926 362.626 147.607 362.372 147.23 362.257C146.847 362.153 146.438 362.205 146.093 362.402C145.748 362.599 145.495 362.924 145.39 363.307L143.65 374.897C143.554 375.275 143.603 375.675 143.788 376.018C143.974 376.361 144.281 376.621 144.65 376.747C145.033 376.849 145.441 376.796 145.785 376.599C146.129 376.403 146.382 376.079 146.49 375.697H146.54Z" fill="white"/>
<path d="M149.929 357.93C150.471 356.412 150.157 354.911 149.226 354.578C148.295 354.246 147.1 355.207 146.558 356.726C146.015 358.245 146.33 359.745 147.261 360.078C148.192 360.411 149.386 359.449 149.929 357.93Z" fill="white"/>
<path d="M616.62 197.487C614.912 199.197 612.778 200.419 610.44 201.027C610.24 201.077 610.05 201.117 609.85 201.147L602.04 200.337L394.67 178.867C391.72 178.559 388.751 178.485 385.79 178.647C385.44 178.647 385.1 178.647 384.79 178.707C381.793 178.907 378.816 179.349 375.89 180.027C375.577 180.087 375.267 180.157 374.96 180.237C368.556 181.835 361.78 180.836 356.11 177.457C353.318 175.798 350.885 173.599 348.952 170.989C347.019 168.38 345.624 165.411 344.85 162.257C344.087 159.093 343.955 155.808 344.461 152.592C344.967 149.376 346.102 146.292 347.8 143.514C349.499 140.737 351.727 138.321 354.359 136.405C356.991 134.489 359.975 133.11 363.14 132.347L363.75 132.197L364.4 132.027C367.661 131.19 370.84 130.062 373.9 128.657C377.019 127.234 380.004 125.534 382.82 123.577L553.85 4.83737L559.85 0.697371C560.22 0.567371 560.58 0.457371 560.96 0.357371C563.249 -0.176183 565.638 -0.103803 567.89 0.567371C561.8 18.3674 548.02 65.6374 558.15 107.067C568.37 148.907 603.09 184.767 616.62 197.487Z" fill="#E2ECFF"/>
<path d="M477.284 71.2704C478.685 69.8523 479.032 67.9222 478.057 66.9595C477.083 65.9968 475.157 66.3659 473.756 67.7841C472.355 69.2022 472.008 71.1323 472.983 72.095C473.957 73.0577 475.883 72.6886 477.284 71.2704Z" fill="white"/>
<path d="M444.54 91.9174C444.196 91.9214 443.86 91.8139 443.582 91.6108C443.305 91.4077 443.101 91.1201 443 90.791C442.9 90.462 442.909 90.1093 443.026 89.7859C443.143 89.4625 443.362 89.1858 443.65 88.9974L466.31 73.9074C466.663 73.7 467.081 73.6356 467.48 73.7272C467.878 73.8189 468.227 74.0597 468.453 74.4002C468.68 74.7407 468.767 75.155 468.698 75.558C468.629 75.9611 468.407 76.3223 468.08 76.5674L445.42 91.6574C445.159 91.8292 444.853 91.9197 444.54 91.9174Z" fill="white"/>
<path d="M619.88 92.2474C631.88 140.987 630.09 184.537 616.62 197.477C614.915 199.19 612.78 200.413 610.44 201.017C610.24 201.067 610.05 201.117 609.85 201.147C607.222 201.615 604.516 201.335 602.04 200.337C584.35 193.757 563.24 156.697 551.5 109.107C539.76 61.5174 541.22 18.8474 553.85 4.83738C555.461 2.96196 557.527 1.53276 559.85 0.68738C560.214 0.557717 560.584 0.447561 560.96 0.35738C563.248 -0.179423 565.637 -0.11049 567.89 0.55738C585.85 5.53738 607.82 43.3374 619.88 92.2474Z" fill="#90B7F4"/>
<path d="M572.73 129.047L564.3 133.907C560.46 125.687 558.57 116.687 556.44 107.787C554.6 100.067 552.44 92.1974 551.97 84.2874L561.67 83.5974L561 85.6674C559.61 102.957 563.28 116.507 572.77 129.047H572.73Z" fill="#7A61E5"/>
<path d="M385.79 178.647C385.44 178.647 385.1 178.647 384.79 178.707C381.793 178.907 378.816 179.349 375.89 180.027C366.809 165.758 362.765 148.861 364.4 132.027C367.661 131.19 370.84 130.062 373.9 128.657C372.486 137.362 372.809 146.261 374.849 154.841C376.89 163.42 380.608 171.511 385.79 178.647Z" fill="#C5D9F9"/>
<path d="M560 190.327H559.85L458.77 180.447C458.372 180.409 458.006 180.214 457.752 179.905C457.498 179.597 457.376 179.2 457.415 178.802C457.453 178.405 457.648 178.038 457.957 177.784C458.265 177.53 458.662 177.409 459.06 177.447L560.14 187.327C560.538 187.346 560.912 187.522 561.18 187.816C561.448 188.111 561.589 188.5 561.57 188.897C561.551 189.295 561.376 189.669 561.081 189.938C560.787 190.206 560.398 190.346 560 190.327Z" fill="#C5D9F9"/>
<path d="M418.46 296.927H418.33C418.02 296.927 410.67 295.867 406.85 293.927C406.728 293.872 406.619 293.792 406.529 293.693C406.438 293.594 406.369 293.478 406.324 293.352C406.28 293.225 406.261 293.091 406.269 292.958C406.277 292.824 406.312 292.693 406.372 292.573C406.432 292.454 406.515 292.347 406.616 292.26C406.718 292.172 406.836 292.107 406.964 292.066C407.091 292.025 407.226 292.011 407.359 292.023C407.492 292.035 407.622 292.074 407.74 292.137C411.26 293.887 418.53 294.897 418.6 294.907C418.865 294.926 419.112 295.049 419.287 295.25C419.461 295.45 419.549 295.712 419.53 295.977C419.511 296.243 419.388 296.49 419.188 296.664C418.987 296.838 418.725 296.926 418.46 296.907V296.927Z" fill="#5ABFBC"/>
<path d="M255.1 466.357C256.315 466.357 257.3 465.372 257.3 464.157C257.3 462.942 256.315 461.957 255.1 461.957C253.885 461.957 252.9 462.942 252.9 464.157C252.9 465.372 253.885 466.357 255.1 466.357Z" fill="#CC740A"/>
<path d="M255.1 474.287C256.315 474.287 257.3 473.302 257.3 472.087C257.3 470.872 256.315 469.887 255.1 469.887C253.885 469.887 252.9 470.872 252.9 472.087C252.9 473.302 253.885 474.287 255.1 474.287Z" fill="#CC740A"/>
<path d="M255.1 482.217C256.315 482.217 257.3 481.232 257.3 480.017C257.3 478.802 256.315 477.817 255.1 477.817C253.885 477.817 252.9 478.802 252.9 480.017C252.9 481.232 253.885 482.217 255.1 482.217Z" fill="#CC740A"/>
<path opacity="0.7" d="M527.64 124.347C533.566 124.347 538.37 114.489 538.37 102.327C538.37 90.1661 533.566 80.3074 527.64 80.3074C521.714 80.3074 516.91 90.1661 516.91 102.327C516.91 114.489 521.714 124.347 527.64 124.347Z" fill="white"/>
<path opacity="0.7" d="M506.75 93.0574C508.965 93.0574 510.76 89.3727 510.76 84.8274C510.76 80.2821 508.965 76.5974 506.75 76.5974C504.535 76.5974 502.74 80.2821 502.74 84.8274C502.74 89.3727 504.535 93.0574 506.75 93.0574Z" fill="white"/>
<path d="M219 117.987H218.8C218.609 117.931 218.447 117.803 218.35 117.629C218.253 117.455 218.228 117.25 218.28 117.057C218.571 115.759 219.25 114.579 220.227 113.675C221.204 112.772 222.433 112.186 223.75 111.997C223.85 111.976 223.953 111.976 224.053 111.996C224.153 112.016 224.248 112.056 224.331 112.114C224.415 112.172 224.487 112.246 224.541 112.332C224.595 112.419 224.631 112.515 224.647 112.616C224.662 112.717 224.657 112.819 224.632 112.918C224.606 113.017 224.561 113.109 224.499 113.19C224.436 113.271 224.358 113.338 224.269 113.387C224.18 113.437 224.082 113.467 223.98 113.477C222.945 113.624 221.98 114.088 221.217 114.804C220.455 115.519 219.932 116.453 219.72 117.477C219.669 117.628 219.572 117.758 219.443 117.849C219.314 117.941 219.159 117.989 219 117.987Z" fill="#EA754B"/>
<path d="M271.3 445.057C241.218 445.039 211.164 443.215 181.3 439.597C181.038 439.563 180.8 439.425 180.638 439.215C180.477 439.005 180.406 438.74 180.44 438.477C180.457 438.346 180.5 438.22 180.566 438.106C180.633 437.992 180.721 437.892 180.826 437.812C180.931 437.732 181.051 437.674 181.178 437.64C181.306 437.607 181.439 437.599 181.57 437.617C182.5 437.747 275.75 450.157 350.96 437.057C351.225 437.012 351.497 437.074 351.717 437.23C351.936 437.386 352.085 437.622 352.13 437.887C352.175 438.153 352.113 438.425 351.957 438.644C351.802 438.864 351.565 439.012 351.3 439.057C325.29 443.567 297.09 445.057 271.3 445.057Z" fill="#5ABFBC"/>
<path opacity="0.48" d="M410.28 328.557C408.282 328.693 406.278 328.693 404.28 328.557C403.75 328.557 403.23 328.487 402.7 328.437C402.47 328.437 401.07 328.227 401.93 328.357L401.17 328.237C400.65 328.157 400.17 328.067 399.62 327.967C395.736 327.18 391.933 326.035 388.26 324.547C388.066 324.436 387.857 324.352 387.64 324.297C387.64 324.297 388.64 324.767 388.08 324.477L386.71 323.837C385.88 323.427 385.05 322.977 384.24 322.507C382.613 321.559 381.041 320.521 379.53 319.397L379 319.007C378 318.287 379.19 319.107 379.18 319.147C378.872 318.848 378.537 318.577 378.18 318.337C377.38 317.697 376.6 317.037 375.83 316.337C374.4 315.107 373 313.837 371.61 312.557C365.618 306.895 359.965 300.884 354.68 294.557C354.38 294.207 354.1 293.837 353.79 293.497C353.48 293.157 354.08 293.867 354.09 293.907C353.994 293.725 353.873 293.556 353.73 293.407C353.192 292.638 352.714 291.829 352.3 290.987C352.225 290.795 352.138 290.608 352.04 290.427C352.04 290.427 352.45 291.537 352.27 290.917C352.16 290.527 352 290.147 351.88 289.757C351.76 289.367 351.63 288.847 351.53 288.377C351.53 288.177 351.47 287.977 351.42 287.777C351.22 286.997 351.51 288.967 351.42 288.157C351.34 286.887 351.26 285.627 351.2 284.367L350.65 273.477C350.49 270.347 348 267.327 344.65 267.477C341.53 267.617 338.48 270.117 338.65 273.477L339.15 283.477C339.22 284.677 339.27 285.887 339.34 287.087C339.527 291.5 340.909 295.779 343.34 299.467C346.083 303.175 349.066 306.699 352.27 310.017C355.17 313.227 358.15 316.367 361.27 319.347C367.21 325.007 373.58 330.787 381.04 334.347C390.04 338.647 400.27 341.177 410.25 340.487C413.37 340.277 416.4 337.887 416.25 334.487C416.11 331.417 413.6 328.257 410.25 328.487L410.28 328.557Z" fill="#5ABFBC"/>
<path opacity="0.48" d="M177.72 397.737C178.447 391.591 179.213 385.451 180.02 379.317C180.14 378.467 180.25 377.617 180.36 376.767C180.36 376.527 180.47 375.887 180.36 376.997L180.45 376.337C180.52 375.847 180.58 375.337 180.65 374.867C180.903 373.014 181.16 371.167 181.42 369.327C181.973 365.481 182.54 361.637 183.12 357.797C185.51 342.277 188.22 326.797 192.07 311.537C193.748 304.523 195.92 297.636 198.57 290.927C199.47 288.747 197.57 285.927 195.43 285.397C192.81 284.797 190.86 286.197 189.9 288.537C184.57 301.487 181.65 315.477 178.97 329.167C175.92 344.837 173.55 360.627 171.44 376.447C170.493 383.541 169.597 390.637 168.75 397.737C168.47 400.077 171.02 402.337 173.25 402.237C175.93 402.117 177.45 400.237 177.75 397.737H177.72Z" fill="#5ABFBC"/>
<path d="M521.93 459.297H593.16C595.016 459.297 596.52 457.793 596.52 455.937C596.52 454.082 595.016 452.577 593.16 452.577H521.93C520.074 452.577 518.57 454.082 518.57 455.937C518.57 457.793 520.074 459.297 521.93 459.297Z" fill="#FBD947"/>
<path d="M528.32 466.027H599.55C601.406 466.027 602.91 464.523 602.91 462.667C602.91 460.812 601.406 459.307 599.55 459.307H528.32C526.464 459.307 524.96 460.812 524.96 462.667C524.96 464.523 526.464 466.027 528.32 466.027Z" fill="#FBE481"/>
<path d="M521.72 472.767H592.95C594.806 472.767 596.31 471.263 596.31 469.407C596.31 467.552 594.806 466.047 592.95 466.047H521.72C519.864 466.047 518.36 467.552 518.36 469.407C518.36 471.263 519.864 472.767 521.72 472.767Z" fill="#E58220"/>
<path d="M532.16 479.497H603.39C605.246 479.497 606.75 477.993 606.75 476.137C606.75 474.282 605.246 472.777 603.39 472.777H532.16C530.304 472.777 528.8 474.282 528.8 476.137C528.8 477.993 530.304 479.497 532.16 479.497Z" fill="#FBD947"/>
<path d="M538.54 486.237H609.77C611.626 486.237 613.13 484.733 613.13 482.877C613.13 481.022 611.626 479.517 609.77 479.517H538.54C536.684 479.517 535.18 481.022 535.18 482.877C535.18 484.733 536.684 486.237 538.54 486.237Z" fill="#FBE481"/>
<path d="M531.94 492.977H603.17C605.026 492.977 606.53 491.473 606.53 489.617C606.53 487.762 605.026 486.257 603.17 486.257H531.94C530.084 486.257 528.58 487.762 528.58 489.617C528.58 491.473 530.084 492.977 531.94 492.977Z" fill="#E58220"/>
<path d="M513.18 499.707H584.41C586.266 499.707 587.77 498.203 587.77 496.347C587.77 494.492 586.266 492.987 584.41 492.987H513.18C511.324 492.987 509.82 494.492 509.82 496.347C509.82 498.203 511.324 499.707 513.18 499.707Z" fill="#FBD947"/>
<path d="M519.58 506.437H590.81C592.666 506.437 594.17 504.933 594.17 503.077C594.17 501.222 592.666 499.717 590.81 499.717H519.58C517.724 499.717 516.22 501.222 516.22 503.077C516.22 504.933 517.724 506.437 519.58 506.437Z" fill="#FBE481"/>
<path d="M512.97 513.187H584.2C586.056 513.187 587.56 511.683 587.56 509.827C587.56 507.972 586.056 506.467 584.2 506.467H512.97C511.114 506.467 509.61 507.972 509.61 509.827C509.61 511.683 511.114 513.187 512.97 513.187Z" fill="#E58220"/>
<g opacity="0.2">
<path d="M513 506.457H556.5V513.177H513C512.336 513.174 511.688 512.975 511.137 512.605C510.586 512.236 510.157 511.711 509.903 511.098C509.649 510.485 509.581 509.811 509.709 509.16C509.836 508.508 510.153 507.909 510.62 507.437C511.254 506.811 512.109 506.458 513 506.457Z" fill="white"/>
<path d="M509.82 496.347C509.821 495.904 509.911 495.466 510.082 495.058C510.254 494.649 510.504 494.279 510.82 493.967C511.128 493.651 511.497 493.399 511.904 493.228C512.311 493.056 512.748 492.967 513.19 492.967H556.5V499.687H513.18C512.293 499.685 511.443 499.333 510.814 498.707C510.185 498.082 509.828 497.234 509.82 496.347Z" fill="white"/>
<path d="M519.58 499.717H556.5V506.437H519.58C518.689 506.437 517.834 506.083 517.204 505.453C516.574 504.823 516.22 503.969 516.22 503.077C516.22 502.186 516.574 501.332 517.204 500.702C517.834 500.071 518.689 499.717 519.58 499.717Z" fill="white"/>
<path d="M518.57 455.927C518.576 455.033 518.936 454.178 519.57 453.547C519.881 453.232 520.251 452.981 520.66 452.809C521.068 452.637 521.507 452.548 521.95 452.547H556.5V459.267H521.93C521.042 459.267 520.191 458.916 519.561 458.29C518.931 457.665 518.575 456.815 518.57 455.927Z" fill="white"/>
<path d="M518.36 469.397C518.362 468.956 518.452 468.519 518.623 468.113C518.795 467.706 519.045 467.337 519.36 467.027C519.668 466.711 520.037 466.459 520.444 466.288C520.851 466.116 521.288 466.027 521.73 466.027H556.5V472.747H521.72C520.83 472.747 519.977 472.395 519.348 471.767C518.718 471.139 518.363 470.287 518.36 469.397Z" fill="white"/>
<path d="M528.32 459.297H556.5V465.987H528.32C527.667 465.97 527.034 465.763 526.498 465.391C525.961 465.02 525.544 464.5 525.298 463.895C525.052 463.291 524.987 462.628 525.112 461.987C525.237 461.346 525.545 460.756 526 460.287C526.612 459.664 527.446 459.308 528.32 459.297Z" fill="white"/>
<path d="M532 486.247H556.5V492.987H532C531.558 492.989 531.121 492.903 530.713 492.734C530.304 492.566 529.933 492.318 529.621 492.006C529.309 491.694 529.061 491.323 528.893 490.915C528.725 490.506 528.639 490.069 528.64 489.627C528.646 488.733 529.006 487.878 529.64 487.247C530.263 486.614 531.112 486.255 532 486.247Z" fill="white"/>
<path d="M532.16 472.777H556.5V479.497H532.16C531.269 479.497 530.414 479.143 529.784 478.513C529.154 477.883 528.8 477.028 528.8 476.137C528.8 475.246 529.154 474.392 529.784 473.761C530.414 473.131 531.269 472.777 532.16 472.777Z" fill="white"/>
<path d="M538.55 479.507H556.55V486.227H538.55C537.659 486.227 536.804 485.873 536.174 485.243C535.544 484.613 535.19 483.758 535.19 482.867C535.19 481.976 535.544 481.122 536.174 480.491C536.804 479.861 537.659 479.507 538.55 479.507Z" fill="white"/>
</g>
<path opacity="0.48" d="M192.1 335.757C192.941 352.91 192.45 370.101 190.63 387.177C190.56 387.827 190.48 388.477 190.4 389.127C190.4 389.417 190.33 389.707 190.29 389.987C190.29 390.097 190.13 391.227 190.2 390.687C190.27 390.147 190.2 390.907 190.2 390.947C190.2 391.377 190.08 391.807 190.02 392.237C189.93 392.877 189.83 393.517 189.73 394.157C189.33 396.744 188.87 399.327 188.35 401.907C187.89 404.207 189.01 406.907 191.5 407.437C193.74 407.947 196.5 406.767 197.03 404.297C200.73 385.987 201.64 367.117 201.47 348.467C201.43 344.227 201.32 339.991 201.14 335.757C201.14 334.564 200.666 333.419 199.822 332.575C198.978 331.731 197.834 331.257 196.64 331.257C195.447 331.257 194.302 331.731 193.458 332.575C192.614 333.419 192.14 334.564 192.14 335.757H192.1Z" fill="#5ABFBC"/>
<path d="M344.7 520.477H188.56C187.234 520.477 185.962 519.951 185.025 519.013C184.087 518.075 183.56 516.803 183.56 515.477C183.56 514.151 184.087 512.88 185.025 511.942C185.962 511.004 187.234 510.477 188.56 510.477H344.7C346.026 510.477 347.298 511.004 348.236 511.942C349.173 512.88 349.7 514.151 349.7 515.477C349.7 516.803 349.173 518.075 348.236 519.013C347.298 519.951 346.026 520.477 344.7 520.477Z" fill="#FFC871"/>
<path d="M131.75 519.987H84.1499C82.9564 519.987 81.8118 519.513 80.9679 518.669C80.124 517.825 79.6499 516.681 79.6499 515.487C79.6499 514.294 80.124 513.149 80.9679 512.305C81.8118 511.461 82.9564 510.987 84.1499 510.987H131.75C132.943 510.987 134.088 511.461 134.932 512.305C135.776 513.149 136.25 514.294 136.25 515.487C136.25 516.681 135.776 517.825 134.932 518.669C134.088 519.513 132.943 519.987 131.75 519.987Z" fill="#83CE00"/>
<path d="M582.39 82.1573L551.92 84.2573L556.77 110.887L564.63 133.667L591.41 118.587L582.39 82.1573Z" fill="#977AF3"/>
<path d="M592 99.1174C594.22 108.117 593.89 116.197 591.39 118.587C591.074 118.903 590.681 119.131 590.25 119.247H590.14C589.655 119.335 589.156 119.283 588.7 119.097C585.42 117.877 581.52 111.027 579.35 102.217C577.18 93.4074 577.44 85.5274 579.78 82.9274C580.082 82.5849 580.463 82.3207 580.89 82.1574L581.09 82.0974C581.513 81.9881 581.957 81.9881 582.38 82.0974C585.72 83.0774 589.79 90.0774 592 99.1174Z" fill="#FCD32E"/>
<path opacity="0.67" d="M588.5 99.9874C589.5 103.987 589.34 107.567 588.23 108.627C588.093 108.773 587.915 108.874 587.72 108.917C587.501 108.953 587.277 108.928 587.07 108.847C585.62 108.307 583.89 105.257 582.92 101.357C581.95 97.4574 582.08 93.9474 583.12 92.7874C583.253 92.6359 583.421 92.5191 583.61 92.4474H583.7C583.887 92.3978 584.083 92.3978 584.27 92.4474C585.71 92.8674 587.51 95.9874 588.5 99.9874Z" fill="white"/>
<path d="M606.39 195.437C604.581 195.405 602.797 195.015 601.14 194.287C585.14 187.607 566.47 152.287 555.64 108.357C544.81 64.4274 544.94 24.5774 555.92 11.1874L556 11.0974C557.43 9.29539 559.32 7.91332 561.47 7.09737C561.81 6.97737 562.16 6.86737 562.47 6.77737C564.622 6.28152 566.87 6.39581 568.96 7.10737C585.02 12.2274 604.73 48.5674 615.82 93.5274C626.82 138.277 626.36 179.527 614.64 191.707C613.111 193.383 611.127 194.579 608.93 195.147C608.729 195.201 608.526 195.245 608.32 195.277C607.683 195.389 607.037 195.442 606.39 195.437ZM557.6 12.2974L557.53 12.3774C547.03 25.0274 547.05 65.1874 557.58 107.877C568.11 150.567 586.74 186.087 601.92 192.437C603.834 193.323 605.969 193.615 608.05 193.277C608.202 193.255 608.353 193.222 608.5 193.177C610.328 192.696 611.978 191.696 613.25 190.297C624.53 178.607 624.81 138.097 613.93 93.9774C603 49.6474 583.85 13.9074 568.4 8.98737C566.663 8.38654 564.793 8.28264 563 8.68737C562.716 8.75887 562.435 8.84566 562.16 8.94737C560.367 9.63463 558.792 10.7918 557.6 12.2974Z" fill="#E2ECFF"/>
<path d="M599.77 519.987H497.17C495.976 519.987 494.832 519.513 493.988 518.669C493.144 517.825 492.67 516.681 492.67 515.487C492.67 514.294 493.144 513.149 493.988 512.305C494.832 511.461 495.976 510.987 497.17 510.987H599.77C600.963 510.987 602.108 511.461 602.952 512.305C603.796 513.149 604.27 514.294 604.27 515.487C604.27 516.681 603.796 517.825 602.952 518.669C602.108 519.513 600.963 519.987 599.77 519.987Z" fill="#83CE00"/>
<defs>
<linearGradient id="paint0_linear_77_1164" x1="318.69" y1="118.197" x2="318.69" y2="413.147" gradientUnits="userSpaceOnUse">
<stop stop-color="#F7FAFC" stop-opacity="0.5"/>
<stop offset="0.16" stop-color="#ECF3FD" stop-opacity="0.61"/>
<stop offset="0.42" stop-color="#DCE9FE" stop-opacity="0.78"/>
<stop offset="0.66" stop-color="#D1E1FE" stop-opacity="0.9"/>
<stop offset="0.86" stop-color="#CADDFF" stop-opacity="0.97"/>
<stop offset="0.99" stop-color="#C7DBFF"/>
</linearGradient>
</defs>
</svg>
