<svg width="78" height="78" viewBox="0 0 78 78" fill="none" xmlns="http://www.w3.org/2000/svg">
<path d="M21.5 11H2C1.44772 11 1 11.4477 1 12V18M21.5 11V9M21.5 11V15.5M21.5 77H2C1.44772 77 1 76.5523 1 76V66M21.5 77H37.9868C38.5442 77 38.994 76.5442 38.9867 75.9868L38.8947 69M21.5 77V69M1 59.5H21.5M1 59.5V66M1 59.5V18M21.5 59.5V18M21.5 59.5V64M1 66H21.5M21.5 66V64M21.5 66V69M1 18H21.5M21.5 18V15.5M21.5 9V2C21.5 1.44772 21.9477 1 22.5 1H37.0131C37.5602 1 38.0058 1.43974 38.013 1.98684L38.1053 9M21.5 9H38.1053M38.1053 9L38.1908 15.5M21.5 15.5H38.1908M38.1908 15.5L38.8289 64M21.5 64H38.8289M38.8289 64L38.8947 69M21.5 69H38.8947M42.7185 25.5L40.72 18.2934C40.5922 17.8325 40.8087 17.3457 41.2364 17.1318L41.4184 17.0408C41.4727 17.0136 41.5293 16.9915 41.5876 16.9746L59.5189 11.784C60.0573 11.6281 60.6187 11.9453 60.7632 12.4869L62.6333 19.5M42.7185 25.5L62.6333 19.5M42.7185 25.5L44.105 30.5M62.6333 19.5L64.0055 24.6455M44.105 30.5L64.0055 24.6455M44.105 30.5L52.563 61M64.5 24.5L64.0055 24.6455M64.0055 24.6455L72.3667 56M52.563 61L72.3667 56M52.563 61L54.7815 69M72.3667 56L74.4333 63.75M54.7815 69L56.7316 76.0321C56.8796 76.566 57.4335 76.8777 57.9667 76.7273L75.5512 71.7676C76.0774 71.6192 76.3869 71.0757 76.246 70.5475L74.4333 63.75M54.7815 69L74.4333 63.75M7 35H15.5C16.0523 35 16.5 34.5523 16.5 34V26C16.5 25.4477 16.0523 25 15.5 25H7C6.44772 25 6 25.4477 6 26V34C6 34.5523 6.44772 35 7 35Z" stroke="white" stroke-width="2"/>
</svg>
