<svg width="110" height="86" viewBox="0 0 110 86" fill="none" xmlns="http://www.w3.org/2000/svg">
<path d="M7.35294 14.3492H3C1.89543 14.3492 1 15.2446 1 16.3492V80.3836C1 81.4882 1.89543 82.3836 3 82.3836H48.8302C49.732 82.3836 50.4125 83.0587 50.958 83.7768C51.5191 84.5152 52.6222 85.0919 55.0814 84.9878C58.1465 84.8581 59.0088 85.3303 59.6308 84.1286C60.0414 83.3352 60.7473 82.7024 61.6406 82.6965L107.013 82.3968C108.113 82.3895 109 81.4962 109 80.3968V53.0865M109 45.7622V16.1864C109 15.0818 108.105 14.1864 107 14.1864H102.484M102.484 14.1864V11.6621C102.484 10.7522 101.87 9.95855 100.994 9.71214C95.6258 8.20199 85.6043 4.90162 78.8643 1.00269M102.484 14.1864L101.706 76.4092C101.688 77.8044 100.281 78.7521 98.9794 78.2484C87.0664 73.6369 81.7579 71.6944 74.4661 70.1765C68.2109 68.8744 58.7195 74.1913 54.7557 77.0125M71.371 1.00269C68.4932 1.16545 61.1412 2.76052 54.7557 7.83869M54.7557 7.83869C52.8552 5.50577 46.3502 0.872478 35.5339 1.00269C22.4261 1.16048 24.9352 6.2137 8.92095 10.0814C8.00821 10.3019 7.35294 11.1117 7.35294 12.0507V76.4971C7.35294 77.7141 8.42867 78.646 9.62307 78.4125C13.1746 77.7181 18.5272 76.3291 22.1765 74.2455C27.8778 70.9903 39.9321 65.4564 54.7557 77.0125M54.7557 7.83869V77.0125M16.3122 28.995C20.8068 26.7264 29.3031 22.7115 32.2651 22.2301C32.9019 22.1267 33.6361 22.2801 34.2798 22.2367C41.6633 21.7394 46.6301 23.8954 48.2398 25.0888M16.3122 45.1085C21.4706 42.8298 29.6697 38.9235 33.905 38.598C35.7208 38.4584 38.3032 36.8076 48.2398 41.3649M61.9231 33.3896C63.7149 32.413 68.6344 30.3948 73.9774 30.1344C80.6561 29.8089 92.7104 37.2959 93.6878 37.2959M61.9231 49.3403C63.6606 48.3095 68.7647 46.378 75.2805 46.8989C81.7964 47.4197 90.267 51.4562 93.6878 53.4093" stroke="white" stroke-width="2"/>
</svg>
