<svg width="81" height="87" viewBox="0 0 81 87" fill="none" xmlns="http://www.w3.org/2000/svg">
<path d="M74.5435 76.3252V71.2629C74.5435 69.606 73.2004 68.2629 71.5435 68.2629H70.036M74.5435 76.3252H6.21922M74.5435 76.3252H77C78.6569 76.3252 80 77.6683 80 79.3252V83C80 84.6569 78.6569 86 77 86H4C2.34315 86 1 84.6569 1 83V79.3252C1 77.6683 2.34315 76.3252 4 76.3252H6.21922M6.21922 76.3252V71.2629C6.21922 69.606 7.56236 68.2629 9.21922 68.2629H10.2523M10.2523 68.2629V30.9458M10.2523 68.2629H19.2673M10.2523 30.9458H70.036M10.2523 30.9458C8.32342 31.1705 4.96436 29.6411 5.90354 24.86C5.95094 24.6187 6.03891 24.3854 6.1515 24.1667L6.32776 23.8244C6.56753 23.3588 6.92503 22.9641 7.36469 22.6795L7.51812 22.5802C7.91196 22.3252 8.3601 22.1662 8.82654 22.1159L10.2523 21.9621M70.036 30.9458V68.2629M70.036 30.9458C71.6176 30.869 74.9231 30.1165 75.4925 27.7209C76.2042 24.7263 74.5435 23.8049 74.0691 23.3442C73.6895 22.9756 71.6967 22.2692 70.7477 21.9621M70.036 68.2629H61.7327M19.2673 68.2629V44.9973C19.5045 42.8473 21.4973 38.4092 27.5706 37.8564C33.6438 37.3035 35.7948 42.3866 36.1111 44.9973V68.2629M19.2673 68.2629H36.1111M36.1111 68.2629H44.6517M44.6517 68.2629V45.2915C44.6517 45.0958 44.6682 44.9017 44.7163 44.712C45.2461 42.6241 47.4077 38.7359 52.4805 37.8564C57.5277 36.9812 60.549 41.7166 61.585 44.5627C61.6895 44.8498 61.7327 45.1527 61.7327 45.4582V68.2629M44.6517 68.2629H61.7327M10.2523 21.9621H70.7477M10.2523 21.9621L13.8108 19.4466L38.2088 2.20038C39.2302 1.47838 40.5923 1.46587 41.6268 2.169L43.296 3.30352L70.7477 21.9621" stroke="white" stroke-width="2"/>
</svg>
