<svg width="90" height="97" viewBox="0 0 90 97" fill="none" xmlns="http://www.w3.org/2000/svg">
<path d="M72 0H13V94.5H89V17L73 15.5L72 0Z" fill="#ECEAEC"/>
<path d="M13.0664 0C9.95861 -3.25739e-05 10.0663 1.42157 10.0664 3L10.0663 95C10.0663 96.6 11.3996 97 12.0663 97C36.2329 96.8334 85.0659 97 87.0663 97C89.0681 97.0001 89.0671 95.5551 89.0663 94.5561L89.0663 94.5H18.0663C14.4663 94.5 13.233 90.8334 13.0664 89V0Z" fill="#DAD8DB"/>
<path d="M53.665 60.5H3.66504V86.1246H57.165V64C57.165 61.2 54.8317 60.5 53.665 60.5Z" fill="#1FB35B"/>
<path d="M8.73828 86.0002H57.165C57.165 87.2002 55.6651 88.8333 55.165 89C40.8317 89.1667 11.365 89.0002 6.16504 89.0002C0.965039 89.0002 0.165039 85.0002 0.165039 83.0002V55L1.66504 55.0001L3.73828 55.0002V81.0002C3.73828 85.0002 7.07161 86.0002 8.73828 86.0002Z" fill="#248C4E"/>
<path d="M4.18385 51H10.0657L10.0657 60.5H3.56592C-2.49288 57.3421 0.166821 51.5263 4.18385 51Z" fill="#198043"/>
<path d="M72 15V0.5V0H73L89 16V17H74C72 17 72 15.5 72 15Z" fill="#DAD8DB"/>
<path d="M49 37V21H28.5C26.5 21 26 22.6667 26 23.5V37H49Z" fill="#1FB35B"/>
<path d="M49 41V57H28.5C26.5 57 26 55.3333 26 54.5V41H49Z" fill="#1FB35B"/>
<path d="M53 41V57H73.5C75.5 57 76 55.3333 76 54.5V41H53Z" fill="#1FB35B"/>
<path d="M53 37V21H73.5C75.5 21 76 22.6667 76 23.5V37H53Z" fill="#1FB35B"/>
<path d="M26 66V79C26 79.5523 26.4477 80 27 80H34" stroke="white" stroke-width="3"/>
<path d="M11.5 67L20.5 81M11.5 81L21 67M46 68C43.5 68 37.2 67.2 38 72C38.4631 72.9263 43.8301 72.7386 45 74C46.3561 75.4622 46.2037 77.8888 46 78.5C45.5 80 39.5 79.5 37.5 79.5" stroke="white" stroke-width="3"/>
</svg>
