<svg width="77" height="76" viewBox="0 0 77 76" fill="none" xmlns="http://www.w3.org/2000/svg">
<path d="M75 66.0766V73C75 73.5523 74.5523 74 74 74H48.581M75 60.5646V3C75 2.44772 74.5523 2 74 2H19.381M10.6905 2H3C2.44772 2 2 2.44772 2 3V73C2 73.5523 2.44772 74 3 74H36.4143M13.819 2H16.2524M36.4143 74V47.4402C36.4143 46.8879 35.9666 46.4402 35.4143 46.4402H27.681C27.1287 46.4402 26.681 45.9925 26.681 45.4402V35.0383C26.681 34.486 27.1287 34.0383 27.681 34.0383H35.4143C35.9666 34.0383 36.4143 33.5906 36.4143 33.0383V28.1818M36.4143 74H48.581M36.4143 24.7368C36.4143 24.2775 36.5533 23.1522 37.1095 22.3254M38.1524 19.9139C40.4698 17.2727 45.966 12.6794 49.6238 12.6794C53.1048 12.6794 59.9467 12.8698 63.8555 12.7306C64.4326 12.7101 64.919 13.168 64.919 13.7454V23.7781C64.919 24.314 64.4966 24.7547 63.9612 24.7772L49.5388 25.3854C49.0034 25.408 48.581 25.8487 48.581 26.3846V33.3828C48.581 33.9351 49.0287 34.3828 49.581 34.3828H63.6622C64.3052 34.3828 64.7811 34.9809 64.6366 35.6075L62.3169 45.6649C62.2122 46.1187 61.8082 46.4402 61.3425 46.4402H49.581C49.0287 46.4402 48.581 46.8879 48.581 47.4402V65.3876M48.581 74V68.488" stroke="black" stroke-width="4"/>
</svg>
