<svg width="107" height="97" viewBox="0 0 107 97" fill="none" xmlns="http://www.w3.org/2000/svg">
<path d="M3.41076 0H42.6468C43.192 0 43.7135 0.222566 44.0908 0.616188L54.4098 11.3838C54.787 11.7774 55.3085 12 55.8537 12H88.0003C89 12 91 12 91.0003 14.5C91.0004 15.5636 91.0003 35.8344 91.0003 55.8669L91.0003 81.5043C91.0003 82.6088 90.1048 83.5 89.0003 83.5H9.00027C2.20027 83.5 0.16692 79.1667 0.000244141 77C0.166911 53.5 0.000493156 6.03961 0.000244141 4C2.44806e-05 2.20045 1.48445 0.805705 2.63187 0.179974C2.86966 0.0502967 3.13991 0 3.41076 0Z" fill="#FFE666"/>
<path d="M97 83.5H9.5C10 83.5 14.5 80 15 77V28C15 25.6 17 25 18 25H94C96.4 25 97 27 97 28V83.5Z" fill="#FFC34D"/>
<path d="M97 83H64C64.1886 83 65.8114 79.4744 66 76.5V28V25H95C97 25 97 26.9829 97 27.9744V83Z" fill="#FF9933"/>
<path d="M52.5 68H102.5V93H49V71.5C49 68.7 51.3333 68 52.5 68Z" fill="#7F5795"/>
<path d="M97.4268 93.0002H49C49 94.2002 50.5 95.8333 51 96C65.3333 96.1667 94.8 96.0002 100 96.0002C105.2 96.0002 106 92.0002 106 90.0002V62L104.5 62.0001L102.427 62.0002V88.0002C102.427 92.0002 99.0934 93.0002 97.4268 93.0002Z" fill="#6A4080"/>
<path d="M102.981 59L97 59V68H103.5C109 64.5 105 59 102.981 59Z" fill="#461F59"/>
<path d="M64 76.5H67.5H71.0478C71.8629 76.5 72.3356 77.4228 71.8593 78.0843L65.1407 87.4157C64.6644 88.0772 65.1371 89 65.9522 89H68.5H74M80 74.5V91" stroke="white" stroke-width="3"/>
<path d="M88.0002 91L88 83.0277M88 83.0277L88.0002 78.0277C88.0002 77.1943 88 76.02 88.5003 76.02C90.0791 76.02 94.5002 75.52 94.5002 79.52C94.5002 82.72 90.8333 83.1943 89 83.0277H88Z" stroke="white" stroke-width="3"/>
<path d="M66 25V12H88.9166C89.6109 12 90.9998 12 91 12.4545C91.0001 12.7455 91 20.9394 91 25H66Z" fill="#FFC34D"/>
</svg>
