<svg width="85" height="95" viewBox="0 0 85 95" fill="none" xmlns="http://www.w3.org/2000/svg">
<path d="M54.6935 0H6C2.68629 0 0 2.68629 0 6V88.5C0 91.8137 2.68629 94.5 6 94.5H79C82.3137 94.5 85 91.8137 85 88.5V23.9402C85 21.0705 82.968 18.6026 80.1517 18.0517L69.7849 16.0241C68.0825 15.6911 66.6075 14.6376 65.7402 13.1353L59.8899 3.00039C58.8181 1.14376 56.8372 0 54.6935 0Z" fill="#734BBD"/>
<ellipse cx="16.7766" cy="41" rx="3.35526" ry="3" fill="#FFFBFB"/>
<ellipse cx="16.7766" cy="64" rx="3.35526" ry="3" fill="#FFF5F5"/>
<ellipse cx="16.7766" cy="53" rx="3.35526" ry="3" fill="#FFFBFB"/>
<ellipse cx="60.3948" cy="41" rx="3.35526" ry="3" fill="#FFF5F5"/>
<ellipse cx="29.0789" cy="41" rx="3.35526" ry="3" fill="#FFF5F5"/>
<rect x="29.0786" y="38" width="31.3158" height="6" fill="#FFF5F5"/>
<ellipse cx="60.3948" cy="64" rx="3.35526" ry="3" fill="#FFF5F5"/>
<ellipse cx="29.0789" cy="64" rx="3.35526" ry="3" fill="#FFF5F5"/>
<rect x="29.0786" y="61" width="31.3158" height="6" fill="#FFF5F5"/>
<ellipse cx="60.3948" cy="53" rx="3.35526" ry="3" fill="#FFF5F5"/>
<ellipse cx="29.0789" cy="53" rx="3.35526" ry="3" fill="#FFF5F5"/>
<rect x="29.0786" y="50" width="31.3158" height="6" fill="#FFF5F5"/>
<path d="M43.6187 94.5V0H56.4805V18.6082L85.0002 23V88.1443C85.0002 92.8454 81.0858 94.5 78.8489 94.5H43.6187Z" fill="#523B96" fill-opacity="0.46"/>
<path d="M54.8027 15.1591V0H58.158L85.0001 20.3864V23H64.3093C57.1514 23 54.9891 17.7727 54.8027 15.1591Z" fill="#9B7ED0"/>
</svg>
