<svg width="65" height="59" viewBox="0 0 65 59" fill="none" xmlns="http://www.w3.org/2000/svg">
<path d="M8.3741 56.1497C7.5 56.5 4.21851 58.2943 2.47638 56.8199C0.884688 55.4728 1.0019 53.737 1.00195 53.3349V38.3225C1.26999 35.9098 3.44148 34.0332 6.76563 34.0332H9.84816M8.3741 56.1497L15.7459 52.1285M8.3741 56.1497H28.2115M28.2115 49.7158V56.1497M28.2115 56.1497H32.3777C33.4823 56.1497 34.3777 55.2546 34.3777 54.1501C34.3777 49.0009 34.3777 41.1409 34.3777 38.3225C34.3777 36.4459 31.4288 34.0332 30.0885 34.0332H25.7988M6.76526 45.6946V46.9364C6.76526 48.4727 8.42564 49.4354 9.75896 48.672L19.499 43.0957M19.499 49.8498C21.2415 48.9116 21.2415 48.9116 22.85 47.9733M19.499 43.0957L24.3244 40.3331C25.4346 39.7453 26.7676 40.3861 27.5946 41.4054M19.499 43.0957L22.85 47.9733M22.85 47.9733C24.3244 47.1691 26.2144 46.113 27.6754 44.8904C28.7751 43.9701 28.465 42.4781 27.5946 41.4054M27.5946 41.4054L40.2751 24.3824M9.84816 34.0332L12.8701 37.0552C13.744 37.9291 15.1934 37.8091 15.9118 36.8034L17.5075 34.5694M9.84816 34.0332H17.8905M17.8905 34.0332L17.5075 34.5694M17.8905 34.0332H25.7988M17.5075 34.5694L19.1573 36.9092C19.8415 37.8796 21.2154 38.0437 22.1089 37.2619L25.7988 34.0332" stroke="white" stroke-width="1"/>
<path d="M9.98242 22.2378V22.7739C9.98242 24.3824 10.8487 25.8568 11.3228 26.527C12.0524 27.5584 12.985 28.262 14.0035 28.7148M9.98242 22.2378L9.9282 17.4124M9.98242 22.2378H8.23982H6.76548C5.81635 22.2378 4.87678 20.8461 4.88879 19.557C4.89882 18.4793 5.66682 17.4734 6.76548 17.4124H9.9282M9.9282 17.4124L9.85054 10.4999C9.8491 10.3724 9.85775 10.2446 9.8894 10.1211C10.1376 9.15242 11.0192 7.8911 13.1994 8.16364C15.2077 8.41469 14.2774 10.3114 23.1774 10.7716C24.2615 10.8276 25.1289 11.7107 25.1289 12.7962V17.5464M6.09514 13.5252V17.5464M14.0035 28.7148V33.8992M14.0035 28.7148C16.3496 29.758 19.1509 29.4707 20.9735 28.7962M20.9735 28.7962C21.6001 28.5643 22.1111 28.2866 22.4481 28.0014C24.5642 26.5587 25.1289 24.3824 25.1289 22.908V22.2378M20.9735 28.7962V34.0332M16 24C16.6255 24.6702 18.5698 25.5012 20.5 24M25.1289 17.5464H27.9435C28.2825 17.5464 28.6592 17.5732 29.0159 17.6691M25.1289 17.5464V22.2378M25.1289 22.2378H27.9435C30.0882 22.1037 30.4651 20.6293 30.4651 19.691C30.4651 18.4077 29.7873 17.8767 29.0159 17.6691M29.0159 17.6691V6.68923C28.7478 4.41055 27.1763 1.19483 22.9841 1.05958C18.8289 0.925526 15.88 1.05958 14.9417 1.05958C14.4382 1.05959 13.4807 1.54381 12.5809 2.55774C12.0029 3.20905 11.1414 3.56686 10.2721 3.61744C7.98312 3.75062 6.20651 5.42098 6.09514 7.09135V10.0402M33.9753 7.22537V26.4036C33.9753 27.5081 34.8707 28.4036 35.9753 28.4036H60.2576C61.3622 28.4036 62.2576 27.5081 62.2576 26.4036V7.22537M33.9753 7.22537H62.2576M33.9753 7.22537V7.22537C33.087 7.22537 32.3668 6.50523 32.3668 5.6169V4.54458C32.3668 4.17444 32.6669 3.87438 33.037 3.87438V3.87438L62.3951 4.00147C63.2826 4.00532 64.0001 4.72588 64.0001 5.61341V5.61341C64.0001 6.50367 63.2784 7.22537 62.3881 7.22537H62.2576" stroke="white" stroke-width="1
"/>
<circle cx="48" cy="34" r="2" stroke="white" stroke-width="1"/>
<path d="M48 31.5V28.5" stroke="white" stroke-width="1"/>
</svg>
