<svg width="58" height="58" viewBox="0 0 58 58" fill="none" xmlns="http://www.w3.org/2000/svg">
<path d="M45.2746 43.6667H54.5213M50.099 49.2917C54.1145 49.4217 55.6984 52.5202 56.1687 55.0631C56.3657 56.1287 55.4671 57 54.3834 57H45.6665C44.5619 57 43.6557 56.0973 43.8711 55.0139C44.3995 52.3566 46.0611 49.1609 50.099 49.2917Z" stroke="white" stroke-width="1"/>
<path d="M9.32303 33C7.71792 34.1531 4.99011 39.5257 7.10708 44.3094M26.1 33C29.389 37.201 29.5874 41.1717 28.1496 44.3094M7.10708 44.3094C7.71072 42.8187 9.59938 39.984 12.6368 39.4405M7.10708 44.3094C8.25251 46.8977 10.8163 49.3137 15.7436 50.7956M28.1496 44.3094C26.7367 41.0182 24.4443 39.7787 22.8063 39.4405M28.1496 44.3094C26.6148 47.6586 23.2156 50.0587 19.7204 50.7768M12.6368 39.4405C12.8263 39.4066 13.0202 39.3816 13.2186 39.3664C13.5167 39.3436 13.8124 39.4162 14.0821 39.5454L16.5802 40.7419C17.1015 40.9915 17.7052 41.0035 18.2359 40.7747L21.2513 39.4749C21.4446 39.3916 21.6499 39.3351 21.8604 39.336C22.1358 39.3371 22.4561 39.3682 22.8063 39.4405M12.6368 39.4405L13.7973 41.9463C14.2678 42.962 15.5513 43.2911 16.4525 42.6271V42.6271C17.0268 42.2039 17.799 42.167 18.4111 42.5334L19.7204 43.3173M22.8063 39.4405L21.2055 42.863C20.9429 43.4245 20.2523 43.6358 19.7204 43.3173V43.3173M15.5365 43.5157L16.5721 45.6983M16.5721 45.6983L15.7436 50.7956M16.5721 45.6983H18.8505M15.7436 50.7956C15.8122 50.8162 15.8812 50.8367 15.9507 50.8569C17.1631 51.0767 18.4481 51.0381 19.7204 50.7768M19.7204 43.3173L18.8505 45.6983M18.8505 45.6983L19.7204 50.7768" stroke="white" stroke-width="1"/>
<path d="M25.7352 9.66666C27.6941 9.82962 29 11.8027 29 13.1296V14.1481M29 14.1481V18.0185V26.1667C28.6219 31.8285 24.6923 34.6975 21.0423 35.7113M29 14.1481H16.9609C15.9365 14.0552 14.2426 13.6911 12.6759 12.3148M10.6353 9.66666C11.0986 10.6945 11.9542 11.6808 12.6759 12.3148M12.6759 12.3148C7.9419 13.153 6.89447 16.4084 6.96249 18.0185L6.96248 19.8518M15.5327 30.6481H20.2881C20.3825 30.6481 20.477 30.6428 20.5693 30.6226C21.0913 30.5084 22.024 30.1136 22.4705 29.2222M6.96245 25.3518L6.96244 26.1667C7.13746 28.6127 9.11395 33.9062 14.8231 35.62M6.96245 25.3518C5.12608 25.3518 4.51405 24.9444 4.10597 24.7407C3.19344 24.2852 2.06551 21.4815 4.30995 19.8518C4.44311 19.7552 5.33004 19.5259 6.96248 19.8518M6.96245 25.3518L6.96248 19.8518M14.1045 39L14.8231 35.62M14.8231 35.62C15.7702 35.9044 16.82 36.0902 17.9813 36.1481C18.9115 36.1481 19.9647 36.0106 21.0423 35.7113M21.8585 38.7963L21.0423 35.7113" stroke="white" stroke-width="1"/>
<path d="M28.8713 25.6028L31.0607 25.2029C32.454 25.0029 33.3762 22.2893 32.3552 20.9137C32.099 20.5684 31.644 20.2489 31.0607 20.1041M28.8713 20.4035C29.6885 19.993 30.4459 19.9514 31.0607 20.1041M4.68881 19.8943C3.04932 17.5837 1.04095 11.4945 6.12336 5.62283C6.94312 4.60344 9.56633 2.3608 12.6814 1.54529C15.6384 0.771123 20.264 0.933672 22.3134 1.34142C24.9567 1.86734 29.9805 3.87847 32.3008 9.96348C32.3371 10.0586 32.3659 10.1593 32.3855 10.2592C33.3615 15.2383 31.9151 18.8911 31.0607 20.1041M6.94315 27.6416L4.67388 29.7863C3.7384 30.6704 4.14664 32.3165 3.95202 33.5889C3.934 33.7067 3.90674 33.8308 3.86911 33.9618C3.74861 34.3814 3.54941 34.694 3.30249 34.9221C2.37597 35.7779 1 36.5648 1 37.8261V42.7673C1 43.8719 1.93868 44.5653 2.98308 44.9249C3.33018 45.0444 3.64336 45.246 3.86911 45.5829C4.15028 46.0024 4.12756 46.4995 3.956 46.984C3.58598 48.029 3.48372 49.277 4.26966 50.0589L7.72099 53.4924C8.59973 54.3666 10.1183 54.1041 11.3359 53.8718C11.5998 53.8215 11.8519 53.8351 12.0666 53.9418C12.6222 54.2182 12.9268 54.5779 13.0937 55.0208C13.4832 56.0544 14.1916 57 15.2962 57H19.9803C21.2067 57 21.9214 55.8234 22.4128 54.6997C22.6018 54.2678 22.9455 53.9078 23.543 53.738C23.8498 53.6507 24.1285 53.6381 24.3811 53.6782C25.6236 53.8753 27.0361 54.3405 27.9279 53.4532L31.0665 50.3309C31.951 49.4509 31.6931 47.8852 31.5557 46.6451C31.517 46.2959 31.5641 45.9338 31.7404 45.5829C31.8394 45.3859 32.0348 45.0677 32.6385 44.8392C33.6715 44.4481 34.6095 43.668 34.6095 42.5635V38.0367C34.6095 36.7091 33.0999 35.982 32.0713 35.1426C31.9485 35.0424 31.8371 34.9216 31.7404 34.7773C31.2736 34.0807 31.2055 33.384 31.5364 32.7626C31.9717 31.945 32.224 30.8438 31.5355 30.2241V30.2241M28.6664 27.6416L31.5355 30.2241M31.5355 30.2241H40.1428M40.1428 30.2241V12.7198C40.1428 11.6152 41.0382 10.7198 42.1428 10.7198H50.3896M40.1428 30.2241V47.2526C40.1428 48.3572 41.0382 49.2526 42.1428 49.2526H48.69M40.1428 30.2241H49.3649M50.3896 10.7198C47.6411 10.7198 45.1156 8.44845 45.5974 5.21509M50.3896 10.7198C53.1382 10.7198 55.3225 8.2874 54.9607 5.21509M45.5974 5.21509C45.6174 5.08114 45.6435 4.94521 45.6761 4.80734C46.3319 2.0346 49.0917 1.40938 50.3896 1.34142C51.8242 1.34142 53.8735 1.74917 54.8982 4.80734C54.9241 4.94439 54.9448 5.08035 54.9607 5.21509M45.5974 5.21509H54.9607" stroke="white" stroke-width="1"/>
<path d="M54.1713 18.3333H46.045C44.8032 18.3333 43.8034 17.2016 44.1052 15.997C44.6911 13.6589 46.0599 11 50.3014 11C53.6173 11 55.264 13.7557 55.9498 16.2096C56.2636 17.3324 55.3371 18.3333 54.1713 18.3333Z" stroke="white" stroke-width="1"/>
<circle cx="50" cy="25.3333" r="4" stroke="white" stroke-width="1"/>
<path d="M45.6152 24.3333H54.7742M50.2921 30.375C53.675 30.375 55.3082 33.0726 55.9733 35.5517C56.2742 36.6731 55.3452 37.6667 54.1841 37.6667H46.0611C44.8139 37.6667 43.8363 36.5262 44.2119 35.3369C44.9368 33.041 46.5024 30.375 50.2921 30.375Z" stroke="white" stroke-width="1"/>
<circle cx="50" cy="44.6667" r="4" stroke="white" stroke-width="1"/>
</svg>
