<svg width="93" height="94" viewBox="0 0 93 94" fill="none" xmlns="http://www.w3.org/2000/svg">
<path d="M17.5455 25.5424H41.5364M11.203 35.1939H48.1545M11.203 44.5697H48.1545M11.203 54.2212H48.1545M10.9273 10.8795L55.3432 10.666C57.0056 10.658 58.3576 12.0035 58.3576 13.666V75.8665C58.3576 76.6621 58.0415 77.4252 57.4789 77.9878L49.8091 85.6576M10.9273 10.8795L3.98557 10.9129C2.33437 10.9209 1 12.2617 1 13.9129V88.7242C1 90.3811 2.34315 91.7242 4 91.7242H42.4998C43.2954 91.7242 44.0585 91.4082 44.6211 90.8456L49.8091 85.6576M10.9273 10.8795L11.1156 4.13084C11.1633 2.42397 12.624 1.10101 14.3272 1.2221L66.4045 4.92428C68.0537 5.04151 69.2971 6.47086 69.1849 8.12034L64.0706 83.3008C63.9604 84.9203 62.582 86.1585 60.9599 86.0949L49.8091 85.6576M10.3758 83.7273C11.5707 81.0616 13.9055 75.0133 13.6848 72.1455C13.4091 68.5606 13.9606 81.2455 18.097 81.797C22.2333 82.3485 20.303 79.8667 21.1303 78.4879C21.9576 77.1091 21.9576 84.003 23.3364 81.797C23.9037 80.8892 26.1005 80.7207 28.5758 80.8713C30.9126 81.0134 33.4977 81.4399 35.1939 81.797" stroke="white" stroke-opacity="100" stroke-width="2"/>
<path d="M77.1091 45.1212C76.3737 45.1212 74.7376 45.4521 74.0758 46.7758C73.414 48.0994 74.3515 49.3495 74.903 49.8091C75.7303 50.1768 77.3849 50.8018 77.3849 50.3606M77.1091 45.1212V41.2606C77.1091 40.6172 77.4952 39.4406 79.0394 39.8818M77.1091 45.1212H86.4849M79.0394 39.8818V35.1939C79.2232 34.4586 80.0873 32.9879 82.0727 32.9879C84.5546 32.9879 85.1061 34.9182 85.1061 35.1939C85.1061 35.4146 85.1061 38.4886 85.1061 39.9981M79.0394 39.8818C80.2653 40.2321 83.0786 40.1421 85.1061 39.9981M86.4849 45.1212V39.8818C86.1059 39.9197 85.6325 39.9607 85.1061 39.9981M86.4849 45.1212H89.2424C90.1616 44.9374 92 45.2315 92 47.8788C92 50.5261 92 60.7475 92 65.5273C91.5404 66.4465 89.9043 67.9539 87.0364 66.6303M87.0364 66.6303V82.0727C86.8549 82.9195 86.1959 84.2996 84.8236 85.0816M87.0364 66.6303V50.3606H77.3849M77.3849 77.9364C77.1868 82.2937 77.5578 84.2327 79.3152 85.0816M79.3152 85.0816C80.0046 85.4146 80.9073 85.5799 82.0727 85.6576C83.2044 85.733 84.1104 85.4881 84.8236 85.0816M79.3152 85.0816C80.4182 90.0697 78.7636 86.7606 82.0727 92.2758C84.72 90.5109 85.0097 86.7443 84.8236 85.0816M77.3849 50.3606C77.3849 49.9194 77.3849 63.2293 77.3849 69.9394" stroke="white" stroke-opacity="100" stroke-width="2"/>
</svg>
