<svg width="70" height="87" viewBox="0 0 70 87" fill="none" xmlns="http://www.w3.org/2000/svg">
<path d="M11.3234 60.3438H44.0891M11.3234 9.47769H44.0891M11.3234 17.9554H44.0891M11.3234 26.6562H44.0891M11.3234 35.1339H44.0891M11.3234 43.3885H44.0891M11.3234 52.0892H44.0891M8.40594 71.4987H50.7393C52.3961 71.4987 53.7393 70.1555 53.7393 68.4987V7.46982M8.40594 71.4987H4C2.34314 71.4987 1 70.1555 1 68.4987V3.99999C1 2.34314 2.34315 1 4 1H50.7393C52.3961 1 53.7393 2.34315 53.7393 4V7.46982M8.40594 71.4987V75.4147C8.40594 77.0716 9.74909 78.4147 11.4059 78.4147H15.8119M61.3696 50.7507V75.4147C61.3696 77.0716 60.0265 78.4147 58.3696 78.4147H15.8119M53.7393 7.46982H58.3696C60.0265 7.46982 61.3696 8.81296 61.3696 10.4698V15.2782M61.3696 35.1339V15.2782M61.3696 15.2782H66C67.6569 15.2782 69 16.6214 69 18.2782V83C69 84.6569 67.6569 86 66 86H18.8119C17.155 86 15.8119 84.6569 15.8119 83V78.4147" stroke="white" stroke-width="2"/>
</svg>
