<svg width="90" height="97" viewBox="0 0 90 97" fill="none" xmlns="http://www.w3.org/2000/svg">
<path d="M72 0H13V94.5H89V17L73 15.5L72 0Z" fill="#ECEAEC"/>
<path d="M13.0664 0C9.95861 -3.25739e-05 10.0663 1.42157 10.0664 3L10.0663 95C10.0663 96.6 11.3996 97 12.0663 97C36.2329 96.8334 85.0659 97 87.0663 97C89.0681 97.0001 89.0671 95.5551 89.0663 94.5561L89.0663 94.5H18.0663C14.4663 94.5 13.233 90.8334 13.0664 89V0Z" fill="#DAD8DB"/>
<path d="M72 15V0.5V0H73L89 16V17H74C72 17 72 15.5 72 15Z" fill="#DAD8DB"/>
<path d="M57.8644 40.6012C45.7636 41.5237 29.3022 48.0044 32.4609 51.5142C36.0609 55.5142 40.6978 48.4126 42.3645 44.246C42.9609 43.0142 49.4611 28.0145 50.4611 21.0143C50.9611 17.5142 48.9006 16.8902 47.9611 17.0144C46.7654 17.1726 45.4611 18.5142 45.4611 20.5144C45.4611 25.5142 53.1978 34.4828 57.8644 40.6012ZM57.8644 40.6012C63.0025 40.2094 69.4611 41.5142 68.9611 44.0142C68.9611 44.0142 67.8644 48.9563 57.8644 40.6012Z" stroke="#E15F78" stroke-width="3"/>
<path d="M53.665 60.5H3.66504V86.1246H57.165V64C57.165 61.2 54.8317 60.5 53.665 60.5Z" fill="#E15F78"/>
<path d="M8.73828 86.0002H57.165C57.165 87.2002 55.6651 88.8333 55.165 89C40.8317 89.1667 11.365 89.0002 6.16504 89.0002C0.965039 89.0002 0.165039 85.0002 0.165039 83.0002V55L1.66504 55.0001L3.73828 55.0002V81.0002C3.73828 85.0002 7.07161 86.0002 8.73828 86.0002Z" fill="#DB4655"/>
<path d="M4.18385 51H10.0657L10.0657 60.5H3.56592C-2.49288 57.3421 0.166821 51.5263 4.18385 51Z" fill="#BD4150"/>
<path d="M13.665 82.0005V75.5081M13.665 75.5081L13.6652 70.5081C13.6652 69.6748 13.665 68.5005 14.1654 68.5005C15.7442 68.5005 20.1652 68.0005 20.1652 72.0005C20.1652 75.2005 16.4984 75.6748 14.665 75.5081H13.665ZM41.4287 82.0005V74.7581M47.665 68.5081H43.4287C42.3241 68.5081 41.4287 69.4036 41.4287 70.5081V74.7581M41.4287 74.7581H46.665M26.665 70.5081C26.665 69.8415 26.465 68.0081 27.665 68.0081C29.165 68.0081 35.165 67.5005 35.165 74.5005C35.165 81.5005 30.665 81.0081 27.665 81.0081C27.165 81.0081 26.665 80.8003 26.665 80.0003C26.665 79.2003 26.665 73.5081 26.665 70.5081Z" stroke="white" stroke-width="3"/>
</svg>
