<svg width="128" height="84" viewBox="0 0 128 84" fill="none" xmlns="http://www.w3.org/2000/svg">
<path d="M107.312 50.2231C120.152 49.3632 125.717 61.8249 126.95 68.0435C126.985 68.2219 127 68.3984 127 68.5803V80C127 81.6569 125.657 83 124 83H91.2812M107.312 50.2231C94.6562 51.0708 94.6562 53.0487 94.0938 53.3313M107.312 50.2231C102.531 49.658 93.1375 46.2108 93.8125 36.9428C94.6562 25.3579 105.344 24.2277 105.906 24.2277C106.469 24.2277 115.75 23.38 118.281 35.53C120.636 46.8324 107.312 49.658 107.312 50.2231ZM94.0938 53.3313C93.6437 53.5573 92.0313 73.2046 91.2812 83M94.0938 53.3313C88.951 44.146 83.4455 41.6025 80.3412 41.381C79.4316 41.3161 78.6731 41.9408 78.2728 42.7602L68.7812 62.1848M91.2812 83H36.4375M20.9688 49.9406C8.12391 49.9406 2.39979 61.8941 1.06081 68.018C1.01817 68.2131 1 68.4075 1 68.6071V80C1 81.6569 2.34315 83 4 83H36.4375M20.9688 49.9406C37.2812 49.9406 34.4688 56.4394 34.4688 53.3313M20.9688 49.9406C16.0937 48.4336 7.46875 44.5719 9.4375 34.3998C11.1666 25.4661 19 23.6625 22.375 23.9451C25.8437 23.8509 32.1586 25.3579 34.4688 34.9649C37.4584 47.3975 21.6213 49.9304 20.9688 49.9406ZM34.4688 53.3313C34.4688 50.8447 35.7813 72.0744 36.4375 83M34.4688 53.3313C35.5055 49.8593 39.3609 43.0917 46.8272 41.6976C48.0168 41.4755 49.1532 42.1742 49.6765 43.2653L58.9375 62.5758M58.9375 47.6801H61.75M68.7812 47.6801H65.9688M61.75 47.6801L58.9375 62.5758M61.75 47.6801H65.9688M58.9375 62.5758L61.039 66.9576C62.1234 69.2187 65.3385 69.2305 66.4394 66.9774L68.7812 62.1848M65.9688 47.6801L68.7812 62.1848M78.0625 62.1848H87.9062M62.875 41.4638C59.4063 41.2754 52.6375 38.0166 48.8125 26.4881C44.0312 12.0776 53.0312 1.90547 62.0312 1.0578C71.0312 0.210118 85.0938 8.6869 79.4688 26.4881C73.8438 44.2894 63.7188 41.4638 62.875 41.4638Z" stroke="white" stroke-width="2"/>
</svg>
