<svg width="27" height="28" viewBox="0 0 27 28" fill="none" xmlns="http://www.w3.org/2000/svg">
<path d="M9.20382 8.43135L6.98215 3.43258C6.86802 3.17581 6.65088 2.97425 6.37897 2.90338C2.77483 1.96411 1.31568 5.0624 1.01447 6.87523C1.00418 6.93715 1.00131 7.00049 1.00413 7.06319C1.68048 22.1193 15.5189 27.4829 20.896 26.4488C24.6959 25.718 24.8564 23.3769 24.8411 21.6967C24.8375 21.3082 24.6087 20.9553 24.2567 20.791L19.1395 18.403C18.8158 18.2519 18.4311 18.2801 18.1577 18.5103C17.648 18.9395 17.3098 19.37 17.0921 19.7589C16.7619 20.3491 16.0711 20.9292 15.4382 20.6908C13.7078 20.039 11.5354 18.6564 9.91176 16.708C7.64499 14.2831 6.26675 11.3804 6.80301 11.1123C8.58479 10.2214 9.1411 9.33049 9.26211 8.83469C9.29529 8.69876 9.26065 8.55921 9.20382 8.43135Z" stroke="white"/>
<path d="M14.6785 8.41813C15.7839 8.21088 18.409 8.62535 18.8235 12.3559M14.6785 4.68759C17.1655 4.48034 22.1395 6.13834 22.554 12.3559M14.6785 1.16445C18.8235 -0.078956 26.9063 5.9312 26.0773 12.3559" stroke="white"/>
</svg>
