<svg width="106" height="118" viewBox="0 0 106 118" fill="none" xmlns="http://www.w3.org/2000/svg">
<path d="M24.5703 31.046H12.5696C11.4651 31.046 10.5696 31.9415 10.5696 33.046V40.9398C10.5696 42.0105 9.72465 42.8836 8.66665 43.0478C5.14199 43.5948 0.539151 45.3325 1.03723 49.4313C1.71703 55.0255 3.51378 55.8868 8.91982 56.904C9.87217 57.0832 10.5696 57.9097 10.5696 58.8787V69.1619M10.5696 69.1619V105.577C10.5696 106.681 11.4651 107.577 12.5696 107.577H20.3175C21.588 107.577 22.5416 108.763 22.6414 110.03C22.8523 112.705 24.2886 115.956 28.8897 116.844C36.6348 118.339 36.188 108.623 36.039 107.577C35.9917 107.244 41.2671 107.121 48.6992 107.115M10.5696 69.1619H20.4285C21.6101 69.1619 22.5282 70.1867 22.6366 71.3634C22.9231 74.4734 24.4631 78.3344 29.1876 78.4293C33.9807 78.5255 35.6247 74.5002 35.9808 71.2883C36.108 70.1411 37.0153 69.1619 38.1696 69.1619H60.1866C60.5876 69.1619 60.9126 68.8368 60.9126 68.4359V68.4359C60.9126 68.3235 60.8855 68.214 60.8414 68.1106C59.6679 65.3582 62.199 59.745 67.1683 59.745C72.4041 59.745 74.0539 63.7881 74.3506 66.8453C74.4687 68.0626 75.4178 69.1619 76.6409 69.1619H84.382C85.4866 69.1619 86.382 70.0573 86.382 71.1619V80.0778C86.382 81.0966 86.831 81.5394 87.8349 81.3656C90.4375 80.9151 95.4015 81.1545 95.9144 87.8461C96.3807 93.9288 92.3773 95.2818 88.9725 95.1289C87.6523 95.0697 86.382 96.028 86.382 97.3496V105.535C86.382 106.656 85.4621 107.558 84.3415 107.535C74.1555 107.334 59.2529 107.106 48.6992 107.115M48.6992 107.115V96.6679C48.6992 95.4208 49.8373 94.4814 51.0835 94.4319C54.1337 94.3107 57.7848 92.9161 57.7848 87.9956C57.7848 83.1136 54.1907 81.8208 51.1554 81.7805C49.8825 81.7636 48.6992 80.8166 48.6992 79.5437V58.6252C48.6992 57.3069 47.4311 56.3464 46.1129 56.3582C43.1783 56.3845 39.7341 55.135 39.4647 50.1787C39.1853 45.0379 43.0131 43.7632 46.2392 43.7848C47.514 43.7933 48.6992 42.8465 48.6992 41.5718V33.046C48.6992 31.9415 47.8038 31.046 46.6992 31.046H32.0175M105 31.345V46.2355C105 47.3401 104.105 48.2355 103 48.2355H94.6134C93.4076 48.2355 92.4818 47.1695 92.3931 45.9669C92.1622 42.8372 90.6241 39.0232 85.6373 39.1176C80.6907 39.2113 79.1374 42.9181 78.8874 45.9571C78.7882 47.1622 77.8607 48.2355 76.6515 48.2355H69.1683C68.0637 48.2355 67.1683 47.3401 67.1683 46.2355V38.0075C67.1683 36.8918 66.2529 35.9999 65.1451 35.8667C61.6019 35.4404 57.0939 33.7081 57.7848 28.9534C58.4186 24.5919 61.6152 23.0038 64.2247 22.6018C65.3929 22.4218 66.4236 21.5016 66.4236 20.3196V11.8207C66.4236 10.7162 67.319 9.82074 68.4236 9.82074H76.7976C77.9543 9.82074 78.862 8.83698 78.9975 7.6882C79.3561 4.64828 80.9407 0.906697 85.4884 1.00178C90.0971 1.09813 91.985 4.88914 92.5705 7.86993C92.7807 8.94065 93.6614 9.82074 94.7525 9.82074H102.851C103.956 9.82074 104.851 10.7162 104.851 11.8207V24.0208" stroke="white" stroke-width="2"/>
</svg>
