<svg width="81" height="75" viewBox="0 0 81 75" fill="none" xmlns="http://www.w3.org/2000/svg">
<path d="M36.1054 37.9665C38.4335 35.7492 42.0955 35.7611 44.4092 37.9933L61 54L69.5833 63.1147C73.7313 67.5195 70.6084 74.75 64.558 74.75C62.7696 74.75 61.0511 74.056 59.7643 72.8141L40.2702 54L21.3521 72.6929C20.0182 74.0109 18.2186 74.75 16.3434 74.75C10.1208 74.75 6.88713 67.334 11.1216 62.7744L19.2702 54L36.1054 37.9665Z" fill="white"/>
<path d="M36.1054 3.96649C38.4335 1.74923 42.0955 1.76108 44.4092 3.99335L61 20L69.5833 29.1147C73.7313 33.5195 70.6084 40.75 64.558 40.75C62.7696 40.75 61.0511 40.056 59.7643 38.8141L40.2702 20L21.3521 38.6929C20.0182 40.0109 18.2186 40.75 16.3434 40.75C10.1208 40.75 6.88713 33.334 11.1216 28.7744L19.2702 20L36.1054 3.96649Z" fill="white"/>
</svg>
