<svg width="115" height="87" viewBox="0 0 115 87" fill="none" xmlns="http://www.w3.org/2000/svg">
<path d="M4.74398 37.04V83C4.74398 84.6569 6.08712 86 7.74398 86H106.575C108.232 86 109.575 84.6569 109.575 83V37.04M4.74398 37.04H4C2.34315 37.04 1 35.6969 1 34.04V22.02C1 20.3631 2.34315 19.02 4 19.02H35.3765M4.74398 37.04H22.1024M109.575 37.04H111C112.657 37.04 114 35.6969 114 34.04V22.02C114 20.3631 112.657 19.02 111 19.02H79.2831M109.575 37.04H92.5572M22.1024 37.04V33.24C22.1024 31.5831 23.4456 30.24 25.1024 30.24H31.0151C32.6719 30.24 34.0151 31.5831 34.0151 33.24V37.04M22.1024 37.04V44.92C22.1024 46.5769 23.4456 47.92 25.1024 47.92H31.0151C32.6719 47.92 34.0151 46.5769 34.0151 44.92V37.04M34.0151 37.04H80.3042M80.3042 37.04V44.92C80.3042 46.5769 81.6474 47.92 83.3042 47.92H89.5572C91.2141 47.92 92.5572 46.5769 92.5572 44.92V37.04M80.3042 37.04V33.24C80.3042 31.5831 81.6474 30.24 83.3042 30.24H89.5572C91.2141 30.24 92.5572 31.5831 92.5572 33.24V37.04M35.3765 19.02V4C35.3765 2.34314 36.7197 1 38.3765 1H76.2831C77.94 1 79.2831 2.34315 79.2831 4V19.02M35.3765 19.02H41.8434M79.2831 19.02H73.1566M41.8434 19.02V10.12C41.8434 8.46315 43.1865 7.12 44.8434 7.12H70.1566C71.8135 7.12 73.1566 8.46315 73.1566 10.12V19.02M41.8434 19.02H73.1566" stroke="white" stroke-width="2"/>
</svg>
