<svg width="90" height="97" viewBox="0 0 90 97" fill="none" xmlns="http://www.w3.org/2000/svg">
<path d="M72 0H13V94.5H89V17L73 15.5L72 0Z" fill="#ECEAEC"/>
<path d="M13.0664 0C9.95861 -3.25739e-05 10.0663 1.42157 10.0664 3L10.0663 95C10.0663 96.6 11.3996 97 12.0663 97C36.2329 96.8334 85.0659 97 87.0663 97C89.0681 97.0001 89.0671 95.5551 89.0663 94.5561L89.0663 94.5H18.0663C14.4663 94.5 13.233 90.8334 13.0664 89V0Z" fill="#DAD8DB"/>
<path d="M72 15V0.5V0H73L89 16V17H74C72 17 72 15.5 72 15Z" fill="#DAD8DB"/>
<path d="M53.665 60.5H3.66504V86.1246H57.165V64C57.165 61.2 54.8317 60.5 53.665 60.5Z" fill="#2D98DB"/>
<path d="M8.73828 86.0002H57.165C57.165 87.2002 55.6651 88.8333 55.165 89C40.8317 89.1667 11.365 89.0002 6.16504 89.0002C0.965039 89.0002 0.165039 85.0002 0.165039 83.0002V55L1.66504 55.0001L3.73828 55.0002V81.0002C3.73828 85.0002 7.07161 86.0002 8.73828 86.0002Z" fill="#328AC1"/>
<path d="M4.18385 51H10.0657L10.0657 60.5H3.56592C-2.49288 57.3421 0.166821 51.5263 4.18385 51Z" fill="#237CB5"/>
<path d="M17.0125 68.0081C15.8125 68.0081 16.0125 69.8415 16.0125 70.5081V80.0003C16.0125 80.8003 16.5125 81.0081 17.0125 81.0081C20.0125 81.0081 24.5125 81.5005 24.5125 74.5005C24.5125 67.5005 18.5125 68.0081 17.0125 68.0081Z" stroke="white" stroke-width="3"/>
<path d="M37.5 75C37.5 76.916 36.9157 78.5928 36.0426 79.7569C35.17 80.9204 34.0789 81.5 33 81.5C31.9211 81.5 30.83 80.9204 29.9574 79.7569C29.0843 78.5928 28.5 76.916 28.5 75C28.5 73.084 29.0843 71.4072 29.9574 70.2431C30.83 69.0796 31.9211 68.5 33 68.5C34.0789 68.5 35.17 69.0796 36.0426 70.2431C36.9157 71.4072 37.5 73.084 37.5 75Z" stroke="white" stroke-width="3"/>
<path d="M49 69H44C42.8954 69 42 69.8954 42 71V79C42 80.1046 42.8954 81 44 81H49" stroke="white" stroke-width="3"/>
<circle cx="56" cy="19" r="3" fill="#2D98DB"/>
<circle cx="28" cy="19" r="3" fill="#2D98DB"/>
<rect x="28" y="16" width="28" height="6" fill="#2D98DB"/>
<ellipse cx="67.8529" cy="29" rx="4.14706" ry="3" fill="#2D98DB"/>
<ellipse cx="29.1471" cy="29" rx="4.14706" ry="3" fill="#2D98DB"/>
<rect x="29.147" y="26" width="38.7059" height="6" fill="#2D98DB"/>
<ellipse cx="67.8529" cy="39" rx="4.14706" ry="3" fill="#2D98DB"/>
<ellipse cx="29.1471" cy="39" rx="4.14706" ry="3" fill="#2D98DB"/>
<rect x="29.147" y="36" width="38.7059" height="6" fill="#2D98DB"/>
</svg>
