<svg width="77" height="77" viewBox="0 0 77 77" fill="none" xmlns="http://www.w3.org/2000/svg">
<path d="M66.4429 75H73C74.1046 75 75 74.1046 75 73V4C75 2.89543 74.1046 2 73 2H4C2.89543 2 2 2.89543 2 4V73C2 74.1046 2.89543 75 4 75H57.583M63.1867 75H61.8237M36.001 28.8987L50.1621 36.839C51.5066 37.5929 51.5288 39.5203 50.202 40.305L31.8251 51.1731C30.4919 51.9616 28.8071 51.0006 28.8071 49.4516V27.7881C28.8071 26.3884 30.2917 25.4876 31.5332 26.1341V26.1341" stroke="black" stroke-width="4"/>
</svg>
